G04 #@! TF.GenerationSoftware,KiCad,Pcbnew,5.0.0-rc3-6a2723a~65~ubuntu18.04.1*
G04 #@! TF.CreationDate,2018-07-16T03:01:28+02:00*
G04 #@! TF.ProjectId,securisam,73656375726973616D2E6B696361645F,rev?*
G04 #@! TF.SameCoordinates,Original*
G04 #@! TF.FileFunction,Copper,L2,Bot,Signal*
G04 #@! TF.FilePolarity,Positive*
%FSLAX46Y46*%
G04 Gerber Fmt 4.6, Leading zero omitted, Abs format (unit mm)*
G04 Created by KiCad (PCBNEW 5.0.0-rc3-6a2723a~65~ubuntu18.04.1) date Mon Jul 16 03:01:28 2018*
%MOMM*%
%LPD*%
G01*
G04 APERTURE LIST*
G04 #@! TA.AperFunction,ComponentPad*
%ADD10R,1.700000X1.700000*%
G04 #@! TD*
G04 #@! TA.AperFunction,ComponentPad*
%ADD11O,1.700000X1.700000*%
G04 #@! TD*
G04 #@! TA.AperFunction,ViaPad*
%ADD12C,0.800000*%
G04 #@! TD*
G04 #@! TA.AperFunction,Conductor*
%ADD13C,0.250000*%
G04 #@! TD*
G04 #@! TA.AperFunction,Conductor*
%ADD14C,0.200000*%
G04 #@! TD*
G04 APERTURE END LIST*
D10*
G04 #@! TO.P,J4,1*
G04 #@! TO.N,GND*
X110490000Y-127000000D03*
D11*
G04 #@! TO.P,J4,2*
G04 #@! TO.N,VDD*
X107950000Y-127000000D03*
G04 #@! TD*
D10*
G04 #@! TO.P,J1,1*
G04 #@! TO.N,/SWDIO*
X105410000Y-93980000D03*
D11*
G04 #@! TO.P,J1,2*
G04 #@! TO.N,GND*
X107950000Y-93980000D03*
G04 #@! TO.P,J1,3*
G04 #@! TO.N,/SWCLK*
X110490000Y-93980000D03*
G04 #@! TO.P,J1,4*
G04 #@! TO.N,VDD*
X113030000Y-93980000D03*
G04 #@! TD*
G04 #@! TO.P,J3,14*
G04 #@! TO.N,VDD*
X116840000Y-93980000D03*
G04 #@! TO.P,J3,13*
G04 #@! TO.N,/PA27*
X116840000Y-96520000D03*
G04 #@! TO.P,J3,12*
G04 #@! TO.N,/PA25*
X116840000Y-99060000D03*
G04 #@! TO.P,J3,11*
G04 #@! TO.N,/PA24*
X116840000Y-101600000D03*
G04 #@! TO.P,J3,10*
G04 #@! TO.N,/PA23*
X116840000Y-104140000D03*
G04 #@! TO.P,J3,9*
G04 #@! TO.N,/PA22*
X116840000Y-106680000D03*
G04 #@! TO.P,J3,8*
G04 #@! TO.N,/PA19*
X116840000Y-109220000D03*
G04 #@! TO.P,J3,7*
G04 #@! TO.N,/PA18*
X116840000Y-111760000D03*
G04 #@! TO.P,J3,6*
G04 #@! TO.N,/PA17*
X116840000Y-114300000D03*
G04 #@! TO.P,J3,5*
G04 #@! TO.N,/PA16*
X116840000Y-116840000D03*
G04 #@! TO.P,J3,4*
G04 #@! TO.N,/PA15*
X116840000Y-119380000D03*
G04 #@! TO.P,J3,3*
G04 #@! TO.N,/PA14*
X116840000Y-121920000D03*
G04 #@! TO.P,J3,2*
G04 #@! TO.N,GND*
X116840000Y-124460000D03*
D10*
G04 #@! TO.P,J3,1*
X116840000Y-127000000D03*
G04 #@! TD*
G04 #@! TO.P,J2,1*
G04 #@! TO.N,GND*
X101600000Y-127000000D03*
D11*
G04 #@! TO.P,J2,2*
G04 #@! TO.N,/PA11*
X101600000Y-124460000D03*
G04 #@! TO.P,J2,3*
G04 #@! TO.N,/PA10*
X101600000Y-121920000D03*
G04 #@! TO.P,J2,4*
G04 #@! TO.N,/PA09*
X101600000Y-119380000D03*
G04 #@! TO.P,J2,5*
G04 #@! TO.N,/PA08*
X101600000Y-116840000D03*
G04 #@! TO.P,J2,6*
G04 #@! TO.N,/PA07*
X101600000Y-114300000D03*
G04 #@! TO.P,J2,7*
G04 #@! TO.N,/PA06*
X101600000Y-111760000D03*
G04 #@! TO.P,J2,8*
G04 #@! TO.N,/PA05*
X101600000Y-109220000D03*
G04 #@! TO.P,J2,9*
G04 #@! TO.N,/PA04*
X101600000Y-106680000D03*
G04 #@! TO.P,J2,10*
G04 #@! TO.N,/PA03*
X101600000Y-104140000D03*
G04 #@! TO.P,J2,11*
G04 #@! TO.N,/PA02*
X101600000Y-101600000D03*
G04 #@! TO.P,J2,12*
G04 #@! TO.N,/PA01*
X101600000Y-99060000D03*
G04 #@! TO.P,J2,13*
G04 #@! TO.N,/PA00*
X101600000Y-96520000D03*
G04 #@! TO.P,J2,14*
G04 #@! TO.N,VDD*
X101600000Y-93980000D03*
G04 #@! TD*
D12*
G04 #@! TO.N,/~RESET~*
X108585000Y-116840000D03*
X110871000Y-106426000D03*
G04 #@! TO.N,GND*
X108331000Y-111252000D03*
X110109000Y-111252000D03*
X110109000Y-109474000D03*
X108331000Y-109474000D03*
G04 #@! TO.N,VDD*
X109236500Y-101473000D03*
X103632000Y-114808000D03*
X103632000Y-126492000D03*
X110998000Y-96012000D03*
G04 #@! TO.N,GND*
X109220000Y-106426000D03*
X108077000Y-100711000D03*
X111633000Y-100711000D03*
X109347000Y-120650000D03*
X113665000Y-114808000D03*
G04 #@! TD*
D13*
G04 #@! TO.N,/~RESET~*
X112522000Y-108077000D02*
X110871000Y-106426000D01*
X112522000Y-115824000D02*
X112522000Y-108077000D01*
X108585000Y-116840000D02*
X111506000Y-116840000D01*
X111506000Y-116840000D02*
X112522000Y-115824000D01*
G04 #@! TO.N,VDD*
X103632000Y-107077500D02*
X103632000Y-114242315D01*
X109236500Y-101473000D02*
X103632000Y-107077500D01*
X103632000Y-114242315D02*
X103632000Y-114808000D01*
X103632000Y-125730000D02*
X103632000Y-126492000D01*
X103632000Y-114808000D02*
X103632000Y-125730000D01*
X110432315Y-96012000D02*
X110998000Y-96012000D01*
X103632000Y-96012000D02*
X110432315Y-96012000D01*
X101600000Y-93980000D02*
X103632000Y-96012000D01*
G04 #@! TD*
D14*
G04 #@! TO.N,GND*
G36*
X117235242Y-92695243D02*
X117595540Y-92868256D01*
X117889038Y-93139563D01*
X118089787Y-93485178D01*
X118185442Y-93897863D01*
X118189001Y-93988444D01*
X118189000Y-126967934D01*
X118124757Y-127395242D01*
X118044000Y-127563418D01*
X118044000Y-127115500D01*
X117955500Y-127027000D01*
X116867000Y-127027000D01*
X116867000Y-128115500D01*
X116955500Y-128204000D01*
X117413651Y-128204000D01*
X117334823Y-128249787D01*
X116922138Y-128345442D01*
X116831582Y-128349000D01*
X101632066Y-128349000D01*
X101204758Y-128284757D01*
X101036582Y-128204000D01*
X101484500Y-128204000D01*
X101573000Y-128115500D01*
X101573000Y-127027000D01*
X101627000Y-127027000D01*
X101627000Y-128115500D01*
X101715500Y-128204000D01*
X102520415Y-128204000D01*
X102650525Y-128150107D01*
X102750107Y-128050525D01*
X102804000Y-127920415D01*
X102804000Y-127115500D01*
X102715500Y-127027000D01*
X101627000Y-127027000D01*
X101573000Y-127027000D01*
X100484500Y-127027000D01*
X100396000Y-127115500D01*
X100396000Y-127573651D01*
X100350213Y-127494823D01*
X100254558Y-127082138D01*
X100251000Y-126991582D01*
X100251000Y-126079585D01*
X100396000Y-126079585D01*
X100396000Y-126884500D01*
X100484500Y-126973000D01*
X101573000Y-126973000D01*
X101573000Y-125884500D01*
X101627000Y-125884500D01*
X101627000Y-126973000D01*
X102715500Y-126973000D01*
X102804000Y-126884500D01*
X102804000Y-126079585D01*
X102750107Y-125949475D01*
X102650525Y-125849893D01*
X102520415Y-125796000D01*
X101715500Y-125796000D01*
X101627000Y-125884500D01*
X101573000Y-125884500D01*
X101484500Y-125796000D01*
X100679585Y-125796000D01*
X100549475Y-125849893D01*
X100449893Y-125949475D01*
X100396000Y-126079585D01*
X100251000Y-126079585D01*
X100251000Y-124460000D01*
X100372413Y-124460000D01*
X100465857Y-124929777D01*
X100731965Y-125328035D01*
X101130223Y-125594143D01*
X101481420Y-125664000D01*
X101718580Y-125664000D01*
X102069777Y-125594143D01*
X102468035Y-125328035D01*
X102734143Y-124929777D01*
X102827587Y-124460000D01*
X102734143Y-123990223D01*
X102468035Y-123591965D01*
X102069777Y-123325857D01*
X101718580Y-123256000D01*
X101481420Y-123256000D01*
X101130223Y-123325857D01*
X100731965Y-123591965D01*
X100465857Y-123990223D01*
X100372413Y-124460000D01*
X100251000Y-124460000D01*
X100251000Y-121920000D01*
X100372413Y-121920000D01*
X100465857Y-122389777D01*
X100731965Y-122788035D01*
X101130223Y-123054143D01*
X101481420Y-123124000D01*
X101718580Y-123124000D01*
X102069777Y-123054143D01*
X102468035Y-122788035D01*
X102734143Y-122389777D01*
X102827587Y-121920000D01*
X102734143Y-121450223D01*
X102468035Y-121051965D01*
X102069777Y-120785857D01*
X101718580Y-120716000D01*
X101481420Y-120716000D01*
X101130223Y-120785857D01*
X100731965Y-121051965D01*
X100465857Y-121450223D01*
X100372413Y-121920000D01*
X100251000Y-121920000D01*
X100251000Y-119380000D01*
X100372413Y-119380000D01*
X100465857Y-119849777D01*
X100731965Y-120248035D01*
X101130223Y-120514143D01*
X101481420Y-120584000D01*
X101718580Y-120584000D01*
X102069777Y-120514143D01*
X102468035Y-120248035D01*
X102734143Y-119849777D01*
X102827587Y-119380000D01*
X102734143Y-118910223D01*
X102468035Y-118511965D01*
X102069777Y-118245857D01*
X101718580Y-118176000D01*
X101481420Y-118176000D01*
X101130223Y-118245857D01*
X100731965Y-118511965D01*
X100465857Y-118910223D01*
X100372413Y-119380000D01*
X100251000Y-119380000D01*
X100251000Y-116840000D01*
X100372413Y-116840000D01*
X100465857Y-117309777D01*
X100731965Y-117708035D01*
X101130223Y-117974143D01*
X101481420Y-118044000D01*
X101718580Y-118044000D01*
X102069777Y-117974143D01*
X102468035Y-117708035D01*
X102734143Y-117309777D01*
X102827587Y-116840000D01*
X102734143Y-116370223D01*
X102468035Y-115971965D01*
X102069777Y-115705857D01*
X101718580Y-115636000D01*
X101481420Y-115636000D01*
X101130223Y-115705857D01*
X100731965Y-115971965D01*
X100465857Y-116370223D01*
X100372413Y-116840000D01*
X100251000Y-116840000D01*
X100251000Y-114300000D01*
X100372413Y-114300000D01*
X100465857Y-114769777D01*
X100731965Y-115168035D01*
X101130223Y-115434143D01*
X101481420Y-115504000D01*
X101718580Y-115504000D01*
X102069777Y-115434143D01*
X102468035Y-115168035D01*
X102734143Y-114769777D01*
X102756372Y-114658020D01*
X102878000Y-114658020D01*
X102878000Y-114957980D01*
X102992789Y-115235107D01*
X103153000Y-115395318D01*
X103153001Y-125682820D01*
X103153000Y-125682825D01*
X103153000Y-125904682D01*
X102992789Y-126064893D01*
X102878000Y-126342020D01*
X102878000Y-126641980D01*
X102992789Y-126919107D01*
X103204893Y-127131211D01*
X103482020Y-127246000D01*
X103781980Y-127246000D01*
X104059107Y-127131211D01*
X104190318Y-127000000D01*
X106722413Y-127000000D01*
X106815857Y-127469777D01*
X107081965Y-127868035D01*
X107480223Y-128134143D01*
X107831420Y-128204000D01*
X108068580Y-128204000D01*
X108419777Y-128134143D01*
X108818035Y-127868035D01*
X109084143Y-127469777D01*
X109154612Y-127115500D01*
X109286000Y-127115500D01*
X109286000Y-127920415D01*
X109339893Y-128050525D01*
X109439475Y-128150107D01*
X109569585Y-128204000D01*
X110374500Y-128204000D01*
X110463000Y-128115500D01*
X110463000Y-127027000D01*
X110517000Y-127027000D01*
X110517000Y-128115500D01*
X110605500Y-128204000D01*
X111410415Y-128204000D01*
X111540525Y-128150107D01*
X111640107Y-128050525D01*
X111694000Y-127920415D01*
X111694000Y-127115500D01*
X115636000Y-127115500D01*
X115636000Y-127920415D01*
X115689893Y-128050525D01*
X115789475Y-128150107D01*
X115919585Y-128204000D01*
X116724500Y-128204000D01*
X116813000Y-128115500D01*
X116813000Y-127027000D01*
X115724500Y-127027000D01*
X115636000Y-127115500D01*
X111694000Y-127115500D01*
X111605500Y-127027000D01*
X110517000Y-127027000D01*
X110463000Y-127027000D01*
X109374500Y-127027000D01*
X109286000Y-127115500D01*
X109154612Y-127115500D01*
X109177587Y-127000000D01*
X109084143Y-126530223D01*
X108818035Y-126131965D01*
X108739643Y-126079585D01*
X109286000Y-126079585D01*
X109286000Y-126884500D01*
X109374500Y-126973000D01*
X110463000Y-126973000D01*
X110463000Y-125884500D01*
X110517000Y-125884500D01*
X110517000Y-126973000D01*
X111605500Y-126973000D01*
X111694000Y-126884500D01*
X111694000Y-126079585D01*
X115636000Y-126079585D01*
X115636000Y-126884500D01*
X115724500Y-126973000D01*
X116813000Y-126973000D01*
X116813000Y-125884500D01*
X116867000Y-125884500D01*
X116867000Y-126973000D01*
X117955500Y-126973000D01*
X118044000Y-126884500D01*
X118044000Y-126079585D01*
X117990107Y-125949475D01*
X117890525Y-125849893D01*
X117760415Y-125796000D01*
X116955500Y-125796000D01*
X116867000Y-125884500D01*
X116813000Y-125884500D01*
X116724500Y-125796000D01*
X115919585Y-125796000D01*
X115789475Y-125849893D01*
X115689893Y-125949475D01*
X115636000Y-126079585D01*
X111694000Y-126079585D01*
X111640107Y-125949475D01*
X111540525Y-125849893D01*
X111410415Y-125796000D01*
X110605500Y-125796000D01*
X110517000Y-125884500D01*
X110463000Y-125884500D01*
X110374500Y-125796000D01*
X109569585Y-125796000D01*
X109439475Y-125849893D01*
X109339893Y-125949475D01*
X109286000Y-126079585D01*
X108739643Y-126079585D01*
X108419777Y-125865857D01*
X108068580Y-125796000D01*
X107831420Y-125796000D01*
X107480223Y-125865857D01*
X107081965Y-126131965D01*
X106815857Y-126530223D01*
X106722413Y-127000000D01*
X104190318Y-127000000D01*
X104271211Y-126919107D01*
X104386000Y-126641980D01*
X104386000Y-126342020D01*
X104271211Y-126064893D01*
X104111000Y-125904682D01*
X104111000Y-124674967D01*
X115655346Y-124674967D01*
X115663255Y-124714745D01*
X115850316Y-125145674D01*
X116188047Y-125472216D01*
X116625032Y-125644657D01*
X116813000Y-125575200D01*
X116813000Y-124487000D01*
X116867000Y-124487000D01*
X116867000Y-125575200D01*
X117054968Y-125644657D01*
X117491953Y-125472216D01*
X117829684Y-125145674D01*
X118016745Y-124714745D01*
X118024654Y-124674967D01*
X117955173Y-124487000D01*
X116867000Y-124487000D01*
X116813000Y-124487000D01*
X115724827Y-124487000D01*
X115655346Y-124674967D01*
X104111000Y-124674967D01*
X104111000Y-124245033D01*
X115655346Y-124245033D01*
X115724827Y-124433000D01*
X116813000Y-124433000D01*
X116813000Y-123344800D01*
X116867000Y-123344800D01*
X116867000Y-124433000D01*
X117955173Y-124433000D01*
X118024654Y-124245033D01*
X118016745Y-124205255D01*
X117829684Y-123774326D01*
X117491953Y-123447784D01*
X117054968Y-123275343D01*
X116867000Y-123344800D01*
X116813000Y-123344800D01*
X116625032Y-123275343D01*
X116188047Y-123447784D01*
X115850316Y-123774326D01*
X115663255Y-124205255D01*
X115655346Y-124245033D01*
X104111000Y-124245033D01*
X104111000Y-121920000D01*
X115612413Y-121920000D01*
X115705857Y-122389777D01*
X115971965Y-122788035D01*
X116370223Y-123054143D01*
X116721420Y-123124000D01*
X116958580Y-123124000D01*
X117309777Y-123054143D01*
X117708035Y-122788035D01*
X117974143Y-122389777D01*
X118067587Y-121920000D01*
X117974143Y-121450223D01*
X117708035Y-121051965D01*
X117309777Y-120785857D01*
X116958580Y-120716000D01*
X116721420Y-120716000D01*
X116370223Y-120785857D01*
X115971965Y-121051965D01*
X115705857Y-121450223D01*
X115612413Y-121920000D01*
X104111000Y-121920000D01*
X104111000Y-119380000D01*
X115612413Y-119380000D01*
X115705857Y-119849777D01*
X115971965Y-120248035D01*
X116370223Y-120514143D01*
X116721420Y-120584000D01*
X116958580Y-120584000D01*
X117309777Y-120514143D01*
X117708035Y-120248035D01*
X117974143Y-119849777D01*
X118067587Y-119380000D01*
X117974143Y-118910223D01*
X117708035Y-118511965D01*
X117309777Y-118245857D01*
X116958580Y-118176000D01*
X116721420Y-118176000D01*
X116370223Y-118245857D01*
X115971965Y-118511965D01*
X115705857Y-118910223D01*
X115612413Y-119380000D01*
X104111000Y-119380000D01*
X104111000Y-116690020D01*
X107831000Y-116690020D01*
X107831000Y-116989980D01*
X107945789Y-117267107D01*
X108157893Y-117479211D01*
X108435020Y-117594000D01*
X108734980Y-117594000D01*
X109012107Y-117479211D01*
X109172318Y-117319000D01*
X111458825Y-117319000D01*
X111506000Y-117328384D01*
X111553175Y-117319000D01*
X111553176Y-117319000D01*
X111692896Y-117291208D01*
X111851340Y-117185340D01*
X111878067Y-117145340D01*
X112183407Y-116840000D01*
X115612413Y-116840000D01*
X115705857Y-117309777D01*
X115971965Y-117708035D01*
X116370223Y-117974143D01*
X116721420Y-118044000D01*
X116958580Y-118044000D01*
X117309777Y-117974143D01*
X117708035Y-117708035D01*
X117974143Y-117309777D01*
X118067587Y-116840000D01*
X117974143Y-116370223D01*
X117708035Y-115971965D01*
X117309777Y-115705857D01*
X116958580Y-115636000D01*
X116721420Y-115636000D01*
X116370223Y-115705857D01*
X115971965Y-115971965D01*
X115705857Y-116370223D01*
X115612413Y-116840000D01*
X112183407Y-116840000D01*
X112827344Y-116196064D01*
X112867340Y-116169340D01*
X112973208Y-116010896D01*
X113001000Y-115871176D01*
X113001000Y-115871175D01*
X113010384Y-115824000D01*
X113001000Y-115776825D01*
X113001000Y-114300000D01*
X115612413Y-114300000D01*
X115705857Y-114769777D01*
X115971965Y-115168035D01*
X116370223Y-115434143D01*
X116721420Y-115504000D01*
X116958580Y-115504000D01*
X117309777Y-115434143D01*
X117708035Y-115168035D01*
X117974143Y-114769777D01*
X118067587Y-114300000D01*
X117974143Y-113830223D01*
X117708035Y-113431965D01*
X117309777Y-113165857D01*
X116958580Y-113096000D01*
X116721420Y-113096000D01*
X116370223Y-113165857D01*
X115971965Y-113431965D01*
X115705857Y-113830223D01*
X115612413Y-114300000D01*
X113001000Y-114300000D01*
X113001000Y-111760000D01*
X115612413Y-111760000D01*
X115705857Y-112229777D01*
X115971965Y-112628035D01*
X116370223Y-112894143D01*
X116721420Y-112964000D01*
X116958580Y-112964000D01*
X117309777Y-112894143D01*
X117708035Y-112628035D01*
X117974143Y-112229777D01*
X118067587Y-111760000D01*
X117974143Y-111290223D01*
X117708035Y-110891965D01*
X117309777Y-110625857D01*
X116958580Y-110556000D01*
X116721420Y-110556000D01*
X116370223Y-110625857D01*
X115971965Y-110891965D01*
X115705857Y-111290223D01*
X115612413Y-111760000D01*
X113001000Y-111760000D01*
X113001000Y-109220000D01*
X115612413Y-109220000D01*
X115705857Y-109689777D01*
X115971965Y-110088035D01*
X116370223Y-110354143D01*
X116721420Y-110424000D01*
X116958580Y-110424000D01*
X117309777Y-110354143D01*
X117708035Y-110088035D01*
X117974143Y-109689777D01*
X118067587Y-109220000D01*
X117974143Y-108750223D01*
X117708035Y-108351965D01*
X117309777Y-108085857D01*
X116958580Y-108016000D01*
X116721420Y-108016000D01*
X116370223Y-108085857D01*
X115971965Y-108351965D01*
X115705857Y-108750223D01*
X115612413Y-109220000D01*
X113001000Y-109220000D01*
X113001000Y-108124175D01*
X113010384Y-108077000D01*
X112998250Y-108016000D01*
X112973208Y-107890104D01*
X112867340Y-107731660D01*
X112827343Y-107704935D01*
X111802408Y-106680000D01*
X115612413Y-106680000D01*
X115705857Y-107149777D01*
X115971965Y-107548035D01*
X116370223Y-107814143D01*
X116721420Y-107884000D01*
X116958580Y-107884000D01*
X117309777Y-107814143D01*
X117708035Y-107548035D01*
X117974143Y-107149777D01*
X118067587Y-106680000D01*
X117974143Y-106210223D01*
X117708035Y-105811965D01*
X117309777Y-105545857D01*
X116958580Y-105476000D01*
X116721420Y-105476000D01*
X116370223Y-105545857D01*
X115971965Y-105811965D01*
X115705857Y-106210223D01*
X115612413Y-106680000D01*
X111802408Y-106680000D01*
X111625000Y-106502593D01*
X111625000Y-106276020D01*
X111510211Y-105998893D01*
X111298107Y-105786789D01*
X111020980Y-105672000D01*
X110721020Y-105672000D01*
X110443893Y-105786789D01*
X110231789Y-105998893D01*
X110117000Y-106276020D01*
X110117000Y-106575980D01*
X110231789Y-106853107D01*
X110443893Y-107065211D01*
X110721020Y-107180000D01*
X110947593Y-107180000D01*
X112043001Y-108275409D01*
X112043000Y-115625592D01*
X111307593Y-116361000D01*
X109172318Y-116361000D01*
X109012107Y-116200789D01*
X108734980Y-116086000D01*
X108435020Y-116086000D01*
X108157893Y-116200789D01*
X107945789Y-116412893D01*
X107831000Y-116690020D01*
X104111000Y-116690020D01*
X104111000Y-115395318D01*
X104271211Y-115235107D01*
X104386000Y-114957980D01*
X104386000Y-114658020D01*
X104271211Y-114380893D01*
X104111000Y-114220682D01*
X104111000Y-107275907D01*
X107246907Y-104140000D01*
X115612413Y-104140000D01*
X115705857Y-104609777D01*
X115971965Y-105008035D01*
X116370223Y-105274143D01*
X116721420Y-105344000D01*
X116958580Y-105344000D01*
X117309777Y-105274143D01*
X117708035Y-105008035D01*
X117974143Y-104609777D01*
X118067587Y-104140000D01*
X117974143Y-103670223D01*
X117708035Y-103271965D01*
X117309777Y-103005857D01*
X116958580Y-102936000D01*
X116721420Y-102936000D01*
X116370223Y-103005857D01*
X115971965Y-103271965D01*
X115705857Y-103670223D01*
X115612413Y-104140000D01*
X107246907Y-104140000D01*
X109159908Y-102227000D01*
X109386480Y-102227000D01*
X109663607Y-102112211D01*
X109875711Y-101900107D01*
X109990500Y-101622980D01*
X109990500Y-101600000D01*
X115612413Y-101600000D01*
X115705857Y-102069777D01*
X115971965Y-102468035D01*
X116370223Y-102734143D01*
X116721420Y-102804000D01*
X116958580Y-102804000D01*
X117309777Y-102734143D01*
X117708035Y-102468035D01*
X117974143Y-102069777D01*
X118067587Y-101600000D01*
X117974143Y-101130223D01*
X117708035Y-100731965D01*
X117309777Y-100465857D01*
X116958580Y-100396000D01*
X116721420Y-100396000D01*
X116370223Y-100465857D01*
X115971965Y-100731965D01*
X115705857Y-101130223D01*
X115612413Y-101600000D01*
X109990500Y-101600000D01*
X109990500Y-101323020D01*
X109875711Y-101045893D01*
X109663607Y-100833789D01*
X109386480Y-100719000D01*
X109086520Y-100719000D01*
X108809393Y-100833789D01*
X108597289Y-101045893D01*
X108482500Y-101323020D01*
X108482500Y-101549592D01*
X103326660Y-106705433D01*
X103286660Y-106732160D01*
X103180792Y-106890605D01*
X103154256Y-107024009D01*
X103143616Y-107077500D01*
X103153000Y-107124675D01*
X103153001Y-114195135D01*
X103153000Y-114195140D01*
X103153000Y-114220682D01*
X102992789Y-114380893D01*
X102878000Y-114658020D01*
X102756372Y-114658020D01*
X102827587Y-114300000D01*
X102734143Y-113830223D01*
X102468035Y-113431965D01*
X102069777Y-113165857D01*
X101718580Y-113096000D01*
X101481420Y-113096000D01*
X101130223Y-113165857D01*
X100731965Y-113431965D01*
X100465857Y-113830223D01*
X100372413Y-114300000D01*
X100251000Y-114300000D01*
X100251000Y-111760000D01*
X100372413Y-111760000D01*
X100465857Y-112229777D01*
X100731965Y-112628035D01*
X101130223Y-112894143D01*
X101481420Y-112964000D01*
X101718580Y-112964000D01*
X102069777Y-112894143D01*
X102468035Y-112628035D01*
X102734143Y-112229777D01*
X102827587Y-111760000D01*
X102734143Y-111290223D01*
X102468035Y-110891965D01*
X102069777Y-110625857D01*
X101718580Y-110556000D01*
X101481420Y-110556000D01*
X101130223Y-110625857D01*
X100731965Y-110891965D01*
X100465857Y-111290223D01*
X100372413Y-111760000D01*
X100251000Y-111760000D01*
X100251000Y-109220000D01*
X100372413Y-109220000D01*
X100465857Y-109689777D01*
X100731965Y-110088035D01*
X101130223Y-110354143D01*
X101481420Y-110424000D01*
X101718580Y-110424000D01*
X102069777Y-110354143D01*
X102468035Y-110088035D01*
X102734143Y-109689777D01*
X102827587Y-109220000D01*
X102734143Y-108750223D01*
X102468035Y-108351965D01*
X102069777Y-108085857D01*
X101718580Y-108016000D01*
X101481420Y-108016000D01*
X101130223Y-108085857D01*
X100731965Y-108351965D01*
X100465857Y-108750223D01*
X100372413Y-109220000D01*
X100251000Y-109220000D01*
X100251000Y-106680000D01*
X100372413Y-106680000D01*
X100465857Y-107149777D01*
X100731965Y-107548035D01*
X101130223Y-107814143D01*
X101481420Y-107884000D01*
X101718580Y-107884000D01*
X102069777Y-107814143D01*
X102468035Y-107548035D01*
X102734143Y-107149777D01*
X102827587Y-106680000D01*
X102734143Y-106210223D01*
X102468035Y-105811965D01*
X102069777Y-105545857D01*
X101718580Y-105476000D01*
X101481420Y-105476000D01*
X101130223Y-105545857D01*
X100731965Y-105811965D01*
X100465857Y-106210223D01*
X100372413Y-106680000D01*
X100251000Y-106680000D01*
X100251000Y-104140000D01*
X100372413Y-104140000D01*
X100465857Y-104609777D01*
X100731965Y-105008035D01*
X101130223Y-105274143D01*
X101481420Y-105344000D01*
X101718580Y-105344000D01*
X102069777Y-105274143D01*
X102468035Y-105008035D01*
X102734143Y-104609777D01*
X102827587Y-104140000D01*
X102734143Y-103670223D01*
X102468035Y-103271965D01*
X102069777Y-103005857D01*
X101718580Y-102936000D01*
X101481420Y-102936000D01*
X101130223Y-103005857D01*
X100731965Y-103271965D01*
X100465857Y-103670223D01*
X100372413Y-104140000D01*
X100251000Y-104140000D01*
X100251000Y-101600000D01*
X100372413Y-101600000D01*
X100465857Y-102069777D01*
X100731965Y-102468035D01*
X101130223Y-102734143D01*
X101481420Y-102804000D01*
X101718580Y-102804000D01*
X102069777Y-102734143D01*
X102468035Y-102468035D01*
X102734143Y-102069777D01*
X102827587Y-101600000D01*
X102734143Y-101130223D01*
X102468035Y-100731965D01*
X102069777Y-100465857D01*
X101718580Y-100396000D01*
X101481420Y-100396000D01*
X101130223Y-100465857D01*
X100731965Y-100731965D01*
X100465857Y-101130223D01*
X100372413Y-101600000D01*
X100251000Y-101600000D01*
X100251000Y-99060000D01*
X100372413Y-99060000D01*
X100465857Y-99529777D01*
X100731965Y-99928035D01*
X101130223Y-100194143D01*
X101481420Y-100264000D01*
X101718580Y-100264000D01*
X102069777Y-100194143D01*
X102468035Y-99928035D01*
X102734143Y-99529777D01*
X102827587Y-99060000D01*
X115612413Y-99060000D01*
X115705857Y-99529777D01*
X115971965Y-99928035D01*
X116370223Y-100194143D01*
X116721420Y-100264000D01*
X116958580Y-100264000D01*
X117309777Y-100194143D01*
X117708035Y-99928035D01*
X117974143Y-99529777D01*
X118067587Y-99060000D01*
X117974143Y-98590223D01*
X117708035Y-98191965D01*
X117309777Y-97925857D01*
X116958580Y-97856000D01*
X116721420Y-97856000D01*
X116370223Y-97925857D01*
X115971965Y-98191965D01*
X115705857Y-98590223D01*
X115612413Y-99060000D01*
X102827587Y-99060000D01*
X102734143Y-98590223D01*
X102468035Y-98191965D01*
X102069777Y-97925857D01*
X101718580Y-97856000D01*
X101481420Y-97856000D01*
X101130223Y-97925857D01*
X100731965Y-98191965D01*
X100465857Y-98590223D01*
X100372413Y-99060000D01*
X100251000Y-99060000D01*
X100251000Y-96520000D01*
X100372413Y-96520000D01*
X100465857Y-96989777D01*
X100731965Y-97388035D01*
X101130223Y-97654143D01*
X101481420Y-97724000D01*
X101718580Y-97724000D01*
X102069777Y-97654143D01*
X102468035Y-97388035D01*
X102734143Y-96989777D01*
X102827587Y-96520000D01*
X102734143Y-96050223D01*
X102468035Y-95651965D01*
X102069777Y-95385857D01*
X101718580Y-95316000D01*
X101481420Y-95316000D01*
X101130223Y-95385857D01*
X100731965Y-95651965D01*
X100465857Y-96050223D01*
X100372413Y-96520000D01*
X100251000Y-96520000D01*
X100251000Y-94012066D01*
X100255820Y-93980000D01*
X100372413Y-93980000D01*
X100465857Y-94449777D01*
X100731965Y-94848035D01*
X101130223Y-95114143D01*
X101481420Y-95184000D01*
X101718580Y-95184000D01*
X102058899Y-95116307D01*
X103259935Y-96317343D01*
X103286660Y-96357340D01*
X103445104Y-96463208D01*
X103584824Y-96491000D01*
X103584825Y-96491000D01*
X103632000Y-96500384D01*
X103679175Y-96491000D01*
X110410682Y-96491000D01*
X110570893Y-96651211D01*
X110848020Y-96766000D01*
X111147980Y-96766000D01*
X111425107Y-96651211D01*
X111556318Y-96520000D01*
X115612413Y-96520000D01*
X115705857Y-96989777D01*
X115971965Y-97388035D01*
X116370223Y-97654143D01*
X116721420Y-97724000D01*
X116958580Y-97724000D01*
X117309777Y-97654143D01*
X117708035Y-97388035D01*
X117974143Y-96989777D01*
X118067587Y-96520000D01*
X117974143Y-96050223D01*
X117708035Y-95651965D01*
X117309777Y-95385857D01*
X116958580Y-95316000D01*
X116721420Y-95316000D01*
X116370223Y-95385857D01*
X115971965Y-95651965D01*
X115705857Y-96050223D01*
X115612413Y-96520000D01*
X111556318Y-96520000D01*
X111637211Y-96439107D01*
X111752000Y-96161980D01*
X111752000Y-95862020D01*
X111637211Y-95584893D01*
X111425107Y-95372789D01*
X111147980Y-95258000D01*
X110848020Y-95258000D01*
X110570893Y-95372789D01*
X110410682Y-95533000D01*
X103830408Y-95533000D01*
X102736307Y-94438899D01*
X102827587Y-93980000D01*
X102734143Y-93510223D01*
X102480086Y-93130000D01*
X104199065Y-93130000D01*
X104199065Y-94830000D01*
X104226540Y-94968124D01*
X104304780Y-95085220D01*
X104421876Y-95163460D01*
X104560000Y-95190935D01*
X106260000Y-95190935D01*
X106398124Y-95163460D01*
X106515220Y-95085220D01*
X106593460Y-94968124D01*
X106620935Y-94830000D01*
X106620935Y-94194968D01*
X106765343Y-94194968D01*
X106937784Y-94631953D01*
X107264326Y-94969684D01*
X107695255Y-95156745D01*
X107735033Y-95164654D01*
X107923000Y-95095173D01*
X107923000Y-94007000D01*
X107977000Y-94007000D01*
X107977000Y-95095173D01*
X108164967Y-95164654D01*
X108204745Y-95156745D01*
X108635674Y-94969684D01*
X108962216Y-94631953D01*
X109134657Y-94194968D01*
X109065200Y-94007000D01*
X107977000Y-94007000D01*
X107923000Y-94007000D01*
X106834800Y-94007000D01*
X106765343Y-94194968D01*
X106620935Y-94194968D01*
X106620935Y-93980000D01*
X109262413Y-93980000D01*
X109355857Y-94449777D01*
X109621965Y-94848035D01*
X110020223Y-95114143D01*
X110371420Y-95184000D01*
X110608580Y-95184000D01*
X110959777Y-95114143D01*
X111358035Y-94848035D01*
X111624143Y-94449777D01*
X111717587Y-93980000D01*
X111802413Y-93980000D01*
X111895857Y-94449777D01*
X112161965Y-94848035D01*
X112560223Y-95114143D01*
X112911420Y-95184000D01*
X113148580Y-95184000D01*
X113499777Y-95114143D01*
X113898035Y-94848035D01*
X114164143Y-94449777D01*
X114257587Y-93980000D01*
X115612413Y-93980000D01*
X115705857Y-94449777D01*
X115971965Y-94848035D01*
X116370223Y-95114143D01*
X116721420Y-95184000D01*
X116958580Y-95184000D01*
X117309777Y-95114143D01*
X117708035Y-94848035D01*
X117974143Y-94449777D01*
X118067587Y-93980000D01*
X117974143Y-93510223D01*
X117708035Y-93111965D01*
X117309777Y-92845857D01*
X116958580Y-92776000D01*
X116721420Y-92776000D01*
X116370223Y-92845857D01*
X115971965Y-93111965D01*
X115705857Y-93510223D01*
X115612413Y-93980000D01*
X114257587Y-93980000D01*
X114164143Y-93510223D01*
X113898035Y-93111965D01*
X113499777Y-92845857D01*
X113148580Y-92776000D01*
X112911420Y-92776000D01*
X112560223Y-92845857D01*
X112161965Y-93111965D01*
X111895857Y-93510223D01*
X111802413Y-93980000D01*
X111717587Y-93980000D01*
X111624143Y-93510223D01*
X111358035Y-93111965D01*
X110959777Y-92845857D01*
X110608580Y-92776000D01*
X110371420Y-92776000D01*
X110020223Y-92845857D01*
X109621965Y-93111965D01*
X109355857Y-93510223D01*
X109262413Y-93980000D01*
X106620935Y-93980000D01*
X106620935Y-93765032D01*
X106765343Y-93765032D01*
X106834800Y-93953000D01*
X107923000Y-93953000D01*
X107923000Y-92864827D01*
X107977000Y-92864827D01*
X107977000Y-93953000D01*
X109065200Y-93953000D01*
X109134657Y-93765032D01*
X108962216Y-93328047D01*
X108635674Y-92990316D01*
X108204745Y-92803255D01*
X108164967Y-92795346D01*
X107977000Y-92864827D01*
X107923000Y-92864827D01*
X107735033Y-92795346D01*
X107695255Y-92803255D01*
X107264326Y-92990316D01*
X106937784Y-93328047D01*
X106765343Y-93765032D01*
X106620935Y-93765032D01*
X106620935Y-93130000D01*
X106593460Y-92991876D01*
X106515220Y-92874780D01*
X106398124Y-92796540D01*
X106260000Y-92769065D01*
X104560000Y-92769065D01*
X104421876Y-92796540D01*
X104304780Y-92874780D01*
X104226540Y-92991876D01*
X104199065Y-93130000D01*
X102480086Y-93130000D01*
X102468035Y-93111965D01*
X102069777Y-92845857D01*
X101718580Y-92776000D01*
X101481420Y-92776000D01*
X101130223Y-92845857D01*
X100731965Y-93111965D01*
X100465857Y-93510223D01*
X100372413Y-93980000D01*
X100255820Y-93980000D01*
X100315243Y-93584758D01*
X100488256Y-93224460D01*
X100759563Y-92930962D01*
X101105178Y-92730213D01*
X101517863Y-92634558D01*
X101608419Y-92631000D01*
X116807934Y-92631000D01*
X117235242Y-92695243D01*
X117235242Y-92695243D01*
G37*
X117235242Y-92695243D02*
X117595540Y-92868256D01*
X117889038Y-93139563D01*
X118089787Y-93485178D01*
X118185442Y-93897863D01*
X118189001Y-93988444D01*
X118189000Y-126967934D01*
X118124757Y-127395242D01*
X118044000Y-127563418D01*
X118044000Y-127115500D01*
X117955500Y-127027000D01*
X116867000Y-127027000D01*
X116867000Y-128115500D01*
X116955500Y-128204000D01*
X117413651Y-128204000D01*
X117334823Y-128249787D01*
X116922138Y-128345442D01*
X116831582Y-128349000D01*
X101632066Y-128349000D01*
X101204758Y-128284757D01*
X101036582Y-128204000D01*
X101484500Y-128204000D01*
X101573000Y-128115500D01*
X101573000Y-127027000D01*
X101627000Y-127027000D01*
X101627000Y-128115500D01*
X101715500Y-128204000D01*
X102520415Y-128204000D01*
X102650525Y-128150107D01*
X102750107Y-128050525D01*
X102804000Y-127920415D01*
X102804000Y-127115500D01*
X102715500Y-127027000D01*
X101627000Y-127027000D01*
X101573000Y-127027000D01*
X100484500Y-127027000D01*
X100396000Y-127115500D01*
X100396000Y-127573651D01*
X100350213Y-127494823D01*
X100254558Y-127082138D01*
X100251000Y-126991582D01*
X100251000Y-126079585D01*
X100396000Y-126079585D01*
X100396000Y-126884500D01*
X100484500Y-126973000D01*
X101573000Y-126973000D01*
X101573000Y-125884500D01*
X101627000Y-125884500D01*
X101627000Y-126973000D01*
X102715500Y-126973000D01*
X102804000Y-126884500D01*
X102804000Y-126079585D01*
X102750107Y-125949475D01*
X102650525Y-125849893D01*
X102520415Y-125796000D01*
X101715500Y-125796000D01*
X101627000Y-125884500D01*
X101573000Y-125884500D01*
X101484500Y-125796000D01*
X100679585Y-125796000D01*
X100549475Y-125849893D01*
X100449893Y-125949475D01*
X100396000Y-126079585D01*
X100251000Y-126079585D01*
X100251000Y-124460000D01*
X100372413Y-124460000D01*
X100465857Y-124929777D01*
X100731965Y-125328035D01*
X101130223Y-125594143D01*
X101481420Y-125664000D01*
X101718580Y-125664000D01*
X102069777Y-125594143D01*
X102468035Y-125328035D01*
X102734143Y-124929777D01*
X102827587Y-124460000D01*
X102734143Y-123990223D01*
X102468035Y-123591965D01*
X102069777Y-123325857D01*
X101718580Y-123256000D01*
X101481420Y-123256000D01*
X101130223Y-123325857D01*
X100731965Y-123591965D01*
X100465857Y-123990223D01*
X100372413Y-124460000D01*
X100251000Y-124460000D01*
X100251000Y-121920000D01*
X100372413Y-121920000D01*
X100465857Y-122389777D01*
X100731965Y-122788035D01*
X101130223Y-123054143D01*
X101481420Y-123124000D01*
X101718580Y-123124000D01*
X102069777Y-123054143D01*
X102468035Y-122788035D01*
X102734143Y-122389777D01*
X102827587Y-121920000D01*
X102734143Y-121450223D01*
X102468035Y-121051965D01*
X102069777Y-120785857D01*
X101718580Y-120716000D01*
X101481420Y-120716000D01*
X101130223Y-120785857D01*
X100731965Y-121051965D01*
X100465857Y-121450223D01*
X100372413Y-121920000D01*
X100251000Y-121920000D01*
X100251000Y-119380000D01*
X100372413Y-119380000D01*
X100465857Y-119849777D01*
X100731965Y-120248035D01*
X101130223Y-120514143D01*
X101481420Y-120584000D01*
X101718580Y-120584000D01*
X102069777Y-120514143D01*
X102468035Y-120248035D01*
X102734143Y-119849777D01*
X102827587Y-119380000D01*
X102734143Y-118910223D01*
X102468035Y-118511965D01*
X102069777Y-118245857D01*
X101718580Y-118176000D01*
X101481420Y-118176000D01*
X101130223Y-118245857D01*
X100731965Y-118511965D01*
X100465857Y-118910223D01*
X100372413Y-119380000D01*
X100251000Y-119380000D01*
X100251000Y-116840000D01*
X100372413Y-116840000D01*
X100465857Y-117309777D01*
X100731965Y-117708035D01*
X101130223Y-117974143D01*
X101481420Y-118044000D01*
X101718580Y-118044000D01*
X102069777Y-117974143D01*
X102468035Y-117708035D01*
X102734143Y-117309777D01*
X102827587Y-116840000D01*
X102734143Y-116370223D01*
X102468035Y-115971965D01*
X102069777Y-115705857D01*
X101718580Y-115636000D01*
X101481420Y-115636000D01*
X101130223Y-115705857D01*
X100731965Y-115971965D01*
X100465857Y-116370223D01*
X100372413Y-116840000D01*
X100251000Y-116840000D01*
X100251000Y-114300000D01*
X100372413Y-114300000D01*
X100465857Y-114769777D01*
X100731965Y-115168035D01*
X101130223Y-115434143D01*
X101481420Y-115504000D01*
X101718580Y-115504000D01*
X102069777Y-115434143D01*
X102468035Y-115168035D01*
X102734143Y-114769777D01*
X102756372Y-114658020D01*
X102878000Y-114658020D01*
X102878000Y-114957980D01*
X102992789Y-115235107D01*
X103153000Y-115395318D01*
X103153001Y-125682820D01*
X103153000Y-125682825D01*
X103153000Y-125904682D01*
X102992789Y-126064893D01*
X102878000Y-126342020D01*
X102878000Y-126641980D01*
X102992789Y-126919107D01*
X103204893Y-127131211D01*
X103482020Y-127246000D01*
X103781980Y-127246000D01*
X104059107Y-127131211D01*
X104190318Y-127000000D01*
X106722413Y-127000000D01*
X106815857Y-127469777D01*
X107081965Y-127868035D01*
X107480223Y-128134143D01*
X107831420Y-128204000D01*
X108068580Y-128204000D01*
X108419777Y-128134143D01*
X108818035Y-127868035D01*
X109084143Y-127469777D01*
X109154612Y-127115500D01*
X109286000Y-127115500D01*
X109286000Y-127920415D01*
X109339893Y-128050525D01*
X109439475Y-128150107D01*
X109569585Y-128204000D01*
X110374500Y-128204000D01*
X110463000Y-128115500D01*
X110463000Y-127027000D01*
X110517000Y-127027000D01*
X110517000Y-128115500D01*
X110605500Y-128204000D01*
X111410415Y-128204000D01*
X111540525Y-128150107D01*
X111640107Y-128050525D01*
X111694000Y-127920415D01*
X111694000Y-127115500D01*
X115636000Y-127115500D01*
X115636000Y-127920415D01*
X115689893Y-128050525D01*
X115789475Y-128150107D01*
X115919585Y-128204000D01*
X116724500Y-128204000D01*
X116813000Y-128115500D01*
X116813000Y-127027000D01*
X115724500Y-127027000D01*
X115636000Y-127115500D01*
X111694000Y-127115500D01*
X111605500Y-127027000D01*
X110517000Y-127027000D01*
X110463000Y-127027000D01*
X109374500Y-127027000D01*
X109286000Y-127115500D01*
X109154612Y-127115500D01*
X109177587Y-127000000D01*
X109084143Y-126530223D01*
X108818035Y-126131965D01*
X108739643Y-126079585D01*
X109286000Y-126079585D01*
X109286000Y-126884500D01*
X109374500Y-126973000D01*
X110463000Y-126973000D01*
X110463000Y-125884500D01*
X110517000Y-125884500D01*
X110517000Y-126973000D01*
X111605500Y-126973000D01*
X111694000Y-126884500D01*
X111694000Y-126079585D01*
X115636000Y-126079585D01*
X115636000Y-126884500D01*
X115724500Y-126973000D01*
X116813000Y-126973000D01*
X116813000Y-125884500D01*
X116867000Y-125884500D01*
X116867000Y-126973000D01*
X117955500Y-126973000D01*
X118044000Y-126884500D01*
X118044000Y-126079585D01*
X117990107Y-125949475D01*
X117890525Y-125849893D01*
X117760415Y-125796000D01*
X116955500Y-125796000D01*
X116867000Y-125884500D01*
X116813000Y-125884500D01*
X116724500Y-125796000D01*
X115919585Y-125796000D01*
X115789475Y-125849893D01*
X115689893Y-125949475D01*
X115636000Y-126079585D01*
X111694000Y-126079585D01*
X111640107Y-125949475D01*
X111540525Y-125849893D01*
X111410415Y-125796000D01*
X110605500Y-125796000D01*
X110517000Y-125884500D01*
X110463000Y-125884500D01*
X110374500Y-125796000D01*
X109569585Y-125796000D01*
X109439475Y-125849893D01*
X109339893Y-125949475D01*
X109286000Y-126079585D01*
X108739643Y-126079585D01*
X108419777Y-125865857D01*
X108068580Y-125796000D01*
X107831420Y-125796000D01*
X107480223Y-125865857D01*
X107081965Y-126131965D01*
X106815857Y-126530223D01*
X106722413Y-127000000D01*
X104190318Y-127000000D01*
X104271211Y-126919107D01*
X104386000Y-126641980D01*
X104386000Y-126342020D01*
X104271211Y-126064893D01*
X104111000Y-125904682D01*
X104111000Y-124674967D01*
X115655346Y-124674967D01*
X115663255Y-124714745D01*
X115850316Y-125145674D01*
X116188047Y-125472216D01*
X116625032Y-125644657D01*
X116813000Y-125575200D01*
X116813000Y-124487000D01*
X116867000Y-124487000D01*
X116867000Y-125575200D01*
X117054968Y-125644657D01*
X117491953Y-125472216D01*
X117829684Y-125145674D01*
X118016745Y-124714745D01*
X118024654Y-124674967D01*
X117955173Y-124487000D01*
X116867000Y-124487000D01*
X116813000Y-124487000D01*
X115724827Y-124487000D01*
X115655346Y-124674967D01*
X104111000Y-124674967D01*
X104111000Y-124245033D01*
X115655346Y-124245033D01*
X115724827Y-124433000D01*
X116813000Y-124433000D01*
X116813000Y-123344800D01*
X116867000Y-123344800D01*
X116867000Y-124433000D01*
X117955173Y-124433000D01*
X118024654Y-124245033D01*
X118016745Y-124205255D01*
X117829684Y-123774326D01*
X117491953Y-123447784D01*
X117054968Y-123275343D01*
X116867000Y-123344800D01*
X116813000Y-123344800D01*
X116625032Y-123275343D01*
X116188047Y-123447784D01*
X115850316Y-123774326D01*
X115663255Y-124205255D01*
X115655346Y-124245033D01*
X104111000Y-124245033D01*
X104111000Y-121920000D01*
X115612413Y-121920000D01*
X115705857Y-122389777D01*
X115971965Y-122788035D01*
X116370223Y-123054143D01*
X116721420Y-123124000D01*
X116958580Y-123124000D01*
X117309777Y-123054143D01*
X117708035Y-122788035D01*
X117974143Y-122389777D01*
X118067587Y-121920000D01*
X117974143Y-121450223D01*
X117708035Y-121051965D01*
X117309777Y-120785857D01*
X116958580Y-120716000D01*
X116721420Y-120716000D01*
X116370223Y-120785857D01*
X115971965Y-121051965D01*
X115705857Y-121450223D01*
X115612413Y-121920000D01*
X104111000Y-121920000D01*
X104111000Y-119380000D01*
X115612413Y-119380000D01*
X115705857Y-119849777D01*
X115971965Y-120248035D01*
X116370223Y-120514143D01*
X116721420Y-120584000D01*
X116958580Y-120584000D01*
X117309777Y-120514143D01*
X117708035Y-120248035D01*
X117974143Y-119849777D01*
X118067587Y-119380000D01*
X117974143Y-118910223D01*
X117708035Y-118511965D01*
X117309777Y-118245857D01*
X116958580Y-118176000D01*
X116721420Y-118176000D01*
X116370223Y-118245857D01*
X115971965Y-118511965D01*
X115705857Y-118910223D01*
X115612413Y-119380000D01*
X104111000Y-119380000D01*
X104111000Y-116690020D01*
X107831000Y-116690020D01*
X107831000Y-116989980D01*
X107945789Y-117267107D01*
X108157893Y-117479211D01*
X108435020Y-117594000D01*
X108734980Y-117594000D01*
X109012107Y-117479211D01*
X109172318Y-117319000D01*
X111458825Y-117319000D01*
X111506000Y-117328384D01*
X111553175Y-117319000D01*
X111553176Y-117319000D01*
X111692896Y-117291208D01*
X111851340Y-117185340D01*
X111878067Y-117145340D01*
X112183407Y-116840000D01*
X115612413Y-116840000D01*
X115705857Y-117309777D01*
X115971965Y-117708035D01*
X116370223Y-117974143D01*
X116721420Y-118044000D01*
X116958580Y-118044000D01*
X117309777Y-117974143D01*
X117708035Y-117708035D01*
X117974143Y-117309777D01*
X118067587Y-116840000D01*
X117974143Y-116370223D01*
X117708035Y-115971965D01*
X117309777Y-115705857D01*
X116958580Y-115636000D01*
X116721420Y-115636000D01*
X116370223Y-115705857D01*
X115971965Y-115971965D01*
X115705857Y-116370223D01*
X115612413Y-116840000D01*
X112183407Y-116840000D01*
X112827344Y-116196064D01*
X112867340Y-116169340D01*
X112973208Y-116010896D01*
X113001000Y-115871176D01*
X113001000Y-115871175D01*
X113010384Y-115824000D01*
X113001000Y-115776825D01*
X113001000Y-114300000D01*
X115612413Y-114300000D01*
X115705857Y-114769777D01*
X115971965Y-115168035D01*
X116370223Y-115434143D01*
X116721420Y-115504000D01*
X116958580Y-115504000D01*
X117309777Y-115434143D01*
X117708035Y-115168035D01*
X117974143Y-114769777D01*
X118067587Y-114300000D01*
X117974143Y-113830223D01*
X117708035Y-113431965D01*
X117309777Y-113165857D01*
X116958580Y-113096000D01*
X116721420Y-113096000D01*
X116370223Y-113165857D01*
X115971965Y-113431965D01*
X115705857Y-113830223D01*
X115612413Y-114300000D01*
X113001000Y-114300000D01*
X113001000Y-111760000D01*
X115612413Y-111760000D01*
X115705857Y-112229777D01*
X115971965Y-112628035D01*
X116370223Y-112894143D01*
X116721420Y-112964000D01*
X116958580Y-112964000D01*
X117309777Y-112894143D01*
X117708035Y-112628035D01*
X117974143Y-112229777D01*
X118067587Y-111760000D01*
X117974143Y-111290223D01*
X117708035Y-110891965D01*
X117309777Y-110625857D01*
X116958580Y-110556000D01*
X116721420Y-110556000D01*
X116370223Y-110625857D01*
X115971965Y-110891965D01*
X115705857Y-111290223D01*
X115612413Y-111760000D01*
X113001000Y-111760000D01*
X113001000Y-109220000D01*
X115612413Y-109220000D01*
X115705857Y-109689777D01*
X115971965Y-110088035D01*
X116370223Y-110354143D01*
X116721420Y-110424000D01*
X116958580Y-110424000D01*
X117309777Y-110354143D01*
X117708035Y-110088035D01*
X117974143Y-109689777D01*
X118067587Y-109220000D01*
X117974143Y-108750223D01*
X117708035Y-108351965D01*
X117309777Y-108085857D01*
X116958580Y-108016000D01*
X116721420Y-108016000D01*
X116370223Y-108085857D01*
X115971965Y-108351965D01*
X115705857Y-108750223D01*
X115612413Y-109220000D01*
X113001000Y-109220000D01*
X113001000Y-108124175D01*
X113010384Y-108077000D01*
X112998250Y-108016000D01*
X112973208Y-107890104D01*
X112867340Y-107731660D01*
X112827343Y-107704935D01*
X111802408Y-106680000D01*
X115612413Y-106680000D01*
X115705857Y-107149777D01*
X115971965Y-107548035D01*
X116370223Y-107814143D01*
X116721420Y-107884000D01*
X116958580Y-107884000D01*
X117309777Y-107814143D01*
X117708035Y-107548035D01*
X117974143Y-107149777D01*
X118067587Y-106680000D01*
X117974143Y-106210223D01*
X117708035Y-105811965D01*
X117309777Y-105545857D01*
X116958580Y-105476000D01*
X116721420Y-105476000D01*
X116370223Y-105545857D01*
X115971965Y-105811965D01*
X115705857Y-106210223D01*
X115612413Y-106680000D01*
X111802408Y-106680000D01*
X111625000Y-106502593D01*
X111625000Y-106276020D01*
X111510211Y-105998893D01*
X111298107Y-105786789D01*
X111020980Y-105672000D01*
X110721020Y-105672000D01*
X110443893Y-105786789D01*
X110231789Y-105998893D01*
X110117000Y-106276020D01*
X110117000Y-106575980D01*
X110231789Y-106853107D01*
X110443893Y-107065211D01*
X110721020Y-107180000D01*
X110947593Y-107180000D01*
X112043001Y-108275409D01*
X112043000Y-115625592D01*
X111307593Y-116361000D01*
X109172318Y-116361000D01*
X109012107Y-116200789D01*
X108734980Y-116086000D01*
X108435020Y-116086000D01*
X108157893Y-116200789D01*
X107945789Y-116412893D01*
X107831000Y-116690020D01*
X104111000Y-116690020D01*
X104111000Y-115395318D01*
X104271211Y-115235107D01*
X104386000Y-114957980D01*
X104386000Y-114658020D01*
X104271211Y-114380893D01*
X104111000Y-114220682D01*
X104111000Y-107275907D01*
X107246907Y-104140000D01*
X115612413Y-104140000D01*
X115705857Y-104609777D01*
X115971965Y-105008035D01*
X116370223Y-105274143D01*
X116721420Y-105344000D01*
X116958580Y-105344000D01*
X117309777Y-105274143D01*
X117708035Y-105008035D01*
X117974143Y-104609777D01*
X118067587Y-104140000D01*
X117974143Y-103670223D01*
X117708035Y-103271965D01*
X117309777Y-103005857D01*
X116958580Y-102936000D01*
X116721420Y-102936000D01*
X116370223Y-103005857D01*
X115971965Y-103271965D01*
X115705857Y-103670223D01*
X115612413Y-104140000D01*
X107246907Y-104140000D01*
X109159908Y-102227000D01*
X109386480Y-102227000D01*
X109663607Y-102112211D01*
X109875711Y-101900107D01*
X109990500Y-101622980D01*
X109990500Y-101600000D01*
X115612413Y-101600000D01*
X115705857Y-102069777D01*
X115971965Y-102468035D01*
X116370223Y-102734143D01*
X116721420Y-102804000D01*
X116958580Y-102804000D01*
X117309777Y-102734143D01*
X117708035Y-102468035D01*
X117974143Y-102069777D01*
X118067587Y-101600000D01*
X117974143Y-101130223D01*
X117708035Y-100731965D01*
X117309777Y-100465857D01*
X116958580Y-100396000D01*
X116721420Y-100396000D01*
X116370223Y-100465857D01*
X115971965Y-100731965D01*
X115705857Y-101130223D01*
X115612413Y-101600000D01*
X109990500Y-101600000D01*
X109990500Y-101323020D01*
X109875711Y-101045893D01*
X109663607Y-100833789D01*
X109386480Y-100719000D01*
X109086520Y-100719000D01*
X108809393Y-100833789D01*
X108597289Y-101045893D01*
X108482500Y-101323020D01*
X108482500Y-101549592D01*
X103326660Y-106705433D01*
X103286660Y-106732160D01*
X103180792Y-106890605D01*
X103154256Y-107024009D01*
X103143616Y-107077500D01*
X103153000Y-107124675D01*
X103153001Y-114195135D01*
X103153000Y-114195140D01*
X103153000Y-114220682D01*
X102992789Y-114380893D01*
X102878000Y-114658020D01*
X102756372Y-114658020D01*
X102827587Y-114300000D01*
X102734143Y-113830223D01*
X102468035Y-113431965D01*
X102069777Y-113165857D01*
X101718580Y-113096000D01*
X101481420Y-113096000D01*
X101130223Y-113165857D01*
X100731965Y-113431965D01*
X100465857Y-113830223D01*
X100372413Y-114300000D01*
X100251000Y-114300000D01*
X100251000Y-111760000D01*
X100372413Y-111760000D01*
X100465857Y-112229777D01*
X100731965Y-112628035D01*
X101130223Y-112894143D01*
X101481420Y-112964000D01*
X101718580Y-112964000D01*
X102069777Y-112894143D01*
X102468035Y-112628035D01*
X102734143Y-112229777D01*
X102827587Y-111760000D01*
X102734143Y-111290223D01*
X102468035Y-110891965D01*
X102069777Y-110625857D01*
X101718580Y-110556000D01*
X101481420Y-110556000D01*
X101130223Y-110625857D01*
X100731965Y-110891965D01*
X100465857Y-111290223D01*
X100372413Y-111760000D01*
X100251000Y-111760000D01*
X100251000Y-109220000D01*
X100372413Y-109220000D01*
X100465857Y-109689777D01*
X100731965Y-110088035D01*
X101130223Y-110354143D01*
X101481420Y-110424000D01*
X101718580Y-110424000D01*
X102069777Y-110354143D01*
X102468035Y-110088035D01*
X102734143Y-109689777D01*
X102827587Y-109220000D01*
X102734143Y-108750223D01*
X102468035Y-108351965D01*
X102069777Y-108085857D01*
X101718580Y-108016000D01*
X101481420Y-108016000D01*
X101130223Y-108085857D01*
X100731965Y-108351965D01*
X100465857Y-108750223D01*
X100372413Y-109220000D01*
X100251000Y-109220000D01*
X100251000Y-106680000D01*
X100372413Y-106680000D01*
X100465857Y-107149777D01*
X100731965Y-107548035D01*
X101130223Y-107814143D01*
X101481420Y-107884000D01*
X101718580Y-107884000D01*
X102069777Y-107814143D01*
X102468035Y-107548035D01*
X102734143Y-107149777D01*
X102827587Y-106680000D01*
X102734143Y-106210223D01*
X102468035Y-105811965D01*
X102069777Y-105545857D01*
X101718580Y-105476000D01*
X101481420Y-105476000D01*
X101130223Y-105545857D01*
X100731965Y-105811965D01*
X100465857Y-106210223D01*
X100372413Y-106680000D01*
X100251000Y-106680000D01*
X100251000Y-104140000D01*
X100372413Y-104140000D01*
X100465857Y-104609777D01*
X100731965Y-105008035D01*
X101130223Y-105274143D01*
X101481420Y-105344000D01*
X101718580Y-105344000D01*
X102069777Y-105274143D01*
X102468035Y-105008035D01*
X102734143Y-104609777D01*
X102827587Y-104140000D01*
X102734143Y-103670223D01*
X102468035Y-103271965D01*
X102069777Y-103005857D01*
X101718580Y-102936000D01*
X101481420Y-102936000D01*
X101130223Y-103005857D01*
X100731965Y-103271965D01*
X100465857Y-103670223D01*
X100372413Y-104140000D01*
X100251000Y-104140000D01*
X100251000Y-101600000D01*
X100372413Y-101600000D01*
X100465857Y-102069777D01*
X100731965Y-102468035D01*
X101130223Y-102734143D01*
X101481420Y-102804000D01*
X101718580Y-102804000D01*
X102069777Y-102734143D01*
X102468035Y-102468035D01*
X102734143Y-102069777D01*
X102827587Y-101600000D01*
X102734143Y-101130223D01*
X102468035Y-100731965D01*
X102069777Y-100465857D01*
X101718580Y-100396000D01*
X101481420Y-100396000D01*
X101130223Y-100465857D01*
X100731965Y-100731965D01*
X100465857Y-101130223D01*
X100372413Y-101600000D01*
X100251000Y-101600000D01*
X100251000Y-99060000D01*
X100372413Y-99060000D01*
X100465857Y-99529777D01*
X100731965Y-99928035D01*
X101130223Y-100194143D01*
X101481420Y-100264000D01*
X101718580Y-100264000D01*
X102069777Y-100194143D01*
X102468035Y-99928035D01*
X102734143Y-99529777D01*
X102827587Y-99060000D01*
X115612413Y-99060000D01*
X115705857Y-99529777D01*
X115971965Y-99928035D01*
X116370223Y-100194143D01*
X116721420Y-100264000D01*
X116958580Y-100264000D01*
X117309777Y-100194143D01*
X117708035Y-99928035D01*
X117974143Y-99529777D01*
X118067587Y-99060000D01*
X117974143Y-98590223D01*
X117708035Y-98191965D01*
X117309777Y-97925857D01*
X116958580Y-97856000D01*
X116721420Y-97856000D01*
X116370223Y-97925857D01*
X115971965Y-98191965D01*
X115705857Y-98590223D01*
X115612413Y-99060000D01*
X102827587Y-99060000D01*
X102734143Y-98590223D01*
X102468035Y-98191965D01*
X102069777Y-97925857D01*
X101718580Y-97856000D01*
X101481420Y-97856000D01*
X101130223Y-97925857D01*
X100731965Y-98191965D01*
X100465857Y-98590223D01*
X100372413Y-99060000D01*
X100251000Y-99060000D01*
X100251000Y-96520000D01*
X100372413Y-96520000D01*
X100465857Y-96989777D01*
X100731965Y-97388035D01*
X101130223Y-97654143D01*
X101481420Y-97724000D01*
X101718580Y-97724000D01*
X102069777Y-97654143D01*
X102468035Y-97388035D01*
X102734143Y-96989777D01*
X102827587Y-96520000D01*
X102734143Y-96050223D01*
X102468035Y-95651965D01*
X102069777Y-95385857D01*
X101718580Y-95316000D01*
X101481420Y-95316000D01*
X101130223Y-95385857D01*
X100731965Y-95651965D01*
X100465857Y-96050223D01*
X100372413Y-96520000D01*
X100251000Y-96520000D01*
X100251000Y-94012066D01*
X100255820Y-93980000D01*
X100372413Y-93980000D01*
X100465857Y-94449777D01*
X100731965Y-94848035D01*
X101130223Y-95114143D01*
X101481420Y-95184000D01*
X101718580Y-95184000D01*
X102058899Y-95116307D01*
X103259935Y-96317343D01*
X103286660Y-96357340D01*
X103445104Y-96463208D01*
X103584824Y-96491000D01*
X103584825Y-96491000D01*
X103632000Y-96500384D01*
X103679175Y-96491000D01*
X110410682Y-96491000D01*
X110570893Y-96651211D01*
X110848020Y-96766000D01*
X111147980Y-96766000D01*
X111425107Y-96651211D01*
X111556318Y-96520000D01*
X115612413Y-96520000D01*
X115705857Y-96989777D01*
X115971965Y-97388035D01*
X116370223Y-97654143D01*
X116721420Y-97724000D01*
X116958580Y-97724000D01*
X117309777Y-97654143D01*
X117708035Y-97388035D01*
X117974143Y-96989777D01*
X118067587Y-96520000D01*
X117974143Y-96050223D01*
X117708035Y-95651965D01*
X117309777Y-95385857D01*
X116958580Y-95316000D01*
X116721420Y-95316000D01*
X116370223Y-95385857D01*
X115971965Y-95651965D01*
X115705857Y-96050223D01*
X115612413Y-96520000D01*
X111556318Y-96520000D01*
X111637211Y-96439107D01*
X111752000Y-96161980D01*
X111752000Y-95862020D01*
X111637211Y-95584893D01*
X111425107Y-95372789D01*
X111147980Y-95258000D01*
X110848020Y-95258000D01*
X110570893Y-95372789D01*
X110410682Y-95533000D01*
X103830408Y-95533000D01*
X102736307Y-94438899D01*
X102827587Y-93980000D01*
X102734143Y-93510223D01*
X102480086Y-93130000D01*
X104199065Y-93130000D01*
X104199065Y-94830000D01*
X104226540Y-94968124D01*
X104304780Y-95085220D01*
X104421876Y-95163460D01*
X104560000Y-95190935D01*
X106260000Y-95190935D01*
X106398124Y-95163460D01*
X106515220Y-95085220D01*
X106593460Y-94968124D01*
X106620935Y-94830000D01*
X106620935Y-94194968D01*
X106765343Y-94194968D01*
X106937784Y-94631953D01*
X107264326Y-94969684D01*
X107695255Y-95156745D01*
X107735033Y-95164654D01*
X107923000Y-95095173D01*
X107923000Y-94007000D01*
X107977000Y-94007000D01*
X107977000Y-95095173D01*
X108164967Y-95164654D01*
X108204745Y-95156745D01*
X108635674Y-94969684D01*
X108962216Y-94631953D01*
X109134657Y-94194968D01*
X109065200Y-94007000D01*
X107977000Y-94007000D01*
X107923000Y-94007000D01*
X106834800Y-94007000D01*
X106765343Y-94194968D01*
X106620935Y-94194968D01*
X106620935Y-93980000D01*
X109262413Y-93980000D01*
X109355857Y-94449777D01*
X109621965Y-94848035D01*
X110020223Y-95114143D01*
X110371420Y-95184000D01*
X110608580Y-95184000D01*
X110959777Y-95114143D01*
X111358035Y-94848035D01*
X111624143Y-94449777D01*
X111717587Y-93980000D01*
X111802413Y-93980000D01*
X111895857Y-94449777D01*
X112161965Y-94848035D01*
X112560223Y-95114143D01*
X112911420Y-95184000D01*
X113148580Y-95184000D01*
X113499777Y-95114143D01*
X113898035Y-94848035D01*
X114164143Y-94449777D01*
X114257587Y-93980000D01*
X115612413Y-93980000D01*
X115705857Y-94449777D01*
X115971965Y-94848035D01*
X116370223Y-95114143D01*
X116721420Y-95184000D01*
X116958580Y-95184000D01*
X117309777Y-95114143D01*
X117708035Y-94848035D01*
X117974143Y-94449777D01*
X118067587Y-93980000D01*
X117974143Y-93510223D01*
X117708035Y-93111965D01*
X117309777Y-92845857D01*
X116958580Y-92776000D01*
X116721420Y-92776000D01*
X116370223Y-92845857D01*
X115971965Y-93111965D01*
X115705857Y-93510223D01*
X115612413Y-93980000D01*
X114257587Y-93980000D01*
X114164143Y-93510223D01*
X113898035Y-93111965D01*
X113499777Y-92845857D01*
X113148580Y-92776000D01*
X112911420Y-92776000D01*
X112560223Y-92845857D01*
X112161965Y-93111965D01*
X111895857Y-93510223D01*
X111802413Y-93980000D01*
X111717587Y-93980000D01*
X111624143Y-93510223D01*
X111358035Y-93111965D01*
X110959777Y-92845857D01*
X110608580Y-92776000D01*
X110371420Y-92776000D01*
X110020223Y-92845857D01*
X109621965Y-93111965D01*
X109355857Y-93510223D01*
X109262413Y-93980000D01*
X106620935Y-93980000D01*
X106620935Y-93765032D01*
X106765343Y-93765032D01*
X106834800Y-93953000D01*
X107923000Y-93953000D01*
X107923000Y-92864827D01*
X107977000Y-92864827D01*
X107977000Y-93953000D01*
X109065200Y-93953000D01*
X109134657Y-93765032D01*
X108962216Y-93328047D01*
X108635674Y-92990316D01*
X108204745Y-92803255D01*
X108164967Y-92795346D01*
X107977000Y-92864827D01*
X107923000Y-92864827D01*
X107735033Y-92795346D01*
X107695255Y-92803255D01*
X107264326Y-92990316D01*
X106937784Y-93328047D01*
X106765343Y-93765032D01*
X106620935Y-93765032D01*
X106620935Y-93130000D01*
X106593460Y-92991876D01*
X106515220Y-92874780D01*
X106398124Y-92796540D01*
X106260000Y-92769065D01*
X104560000Y-92769065D01*
X104421876Y-92796540D01*
X104304780Y-92874780D01*
X104226540Y-92991876D01*
X104199065Y-93130000D01*
X102480086Y-93130000D01*
X102468035Y-93111965D01*
X102069777Y-92845857D01*
X101718580Y-92776000D01*
X101481420Y-92776000D01*
X101130223Y-92845857D01*
X100731965Y-93111965D01*
X100465857Y-93510223D01*
X100372413Y-93980000D01*
X100255820Y-93980000D01*
X100315243Y-93584758D01*
X100488256Y-93224460D01*
X100759563Y-92930962D01*
X101105178Y-92730213D01*
X101517863Y-92634558D01*
X101608419Y-92631000D01*
X116807934Y-92631000D01*
X117235242Y-92695243D01*
G04 #@! TD*
M02*
