G04 #@! TF.GenerationSoftware,KiCad,Pcbnew,5.0.0-rc3-6a2723a~65~ubuntu18.04.1*
G04 #@! TF.CreationDate,2018-07-16T03:01:28+02:00*
G04 #@! TF.ProjectId,securisam,73656375726973616D2E6B696361645F,rev?*
G04 #@! TF.SameCoordinates,Original*
G04 #@! TF.FileFunction,Soldermask,Top*
G04 #@! TF.FilePolarity,Negative*
%FSLAX46Y46*%
G04 Gerber Fmt 4.6, Leading zero omitted, Abs format (unit mm)*
G04 Created by KiCad (PCBNEW 5.0.0-rc3-6a2723a~65~ubuntu18.04.1) date Mon Jul 16 03:01:28 2018*
%MOMM*%
%LPD*%
G01*
G04 APERTURE LIST*
%ADD10R,2.100000X2.100000*%
%ADD11O,2.100000X2.100000*%
%ADD12R,2.580000X2.000000*%
%ADD13C,0.100000*%
%ADD14C,1.275000*%
%ADD15R,4.200000X4.200000*%
%ADD16O,0.700000X1.200000*%
%ADD17O,1.200000X0.700000*%
G04 APERTURE END LIST*
D10*
G04 #@! TO.C,J4*
X110490000Y-127000000D03*
D11*
X107950000Y-127000000D03*
G04 #@! TD*
D10*
G04 #@! TO.C,J1*
X105410000Y-93980000D03*
D11*
X107950000Y-93980000D03*
X110490000Y-93980000D03*
X113030000Y-93980000D03*
G04 #@! TD*
D12*
G04 #@! TO.C,SW1*
X113810000Y-120650000D03*
X104630000Y-120650000D03*
G04 #@! TD*
D13*
G04 #@! TO.C,C6*
G36*
X108161493Y-102571535D02*
X108192435Y-102576125D01*
X108222778Y-102583725D01*
X108252230Y-102594263D01*
X108280508Y-102607638D01*
X108307338Y-102623719D01*
X108332463Y-102642353D01*
X108355640Y-102663360D01*
X108376647Y-102686537D01*
X108395281Y-102711662D01*
X108411362Y-102738492D01*
X108424737Y-102766770D01*
X108435275Y-102796222D01*
X108442875Y-102826565D01*
X108447465Y-102857507D01*
X108449000Y-102888750D01*
X108449000Y-103526250D01*
X108447465Y-103557493D01*
X108442875Y-103588435D01*
X108435275Y-103618778D01*
X108424737Y-103648230D01*
X108411362Y-103676508D01*
X108395281Y-103703338D01*
X108376647Y-103728463D01*
X108355640Y-103751640D01*
X108332463Y-103772647D01*
X108307338Y-103791281D01*
X108280508Y-103807362D01*
X108252230Y-103820737D01*
X108222778Y-103831275D01*
X108192435Y-103838875D01*
X108161493Y-103843465D01*
X108130250Y-103845000D01*
X107417750Y-103845000D01*
X107386507Y-103843465D01*
X107355565Y-103838875D01*
X107325222Y-103831275D01*
X107295770Y-103820737D01*
X107267492Y-103807362D01*
X107240662Y-103791281D01*
X107215537Y-103772647D01*
X107192360Y-103751640D01*
X107171353Y-103728463D01*
X107152719Y-103703338D01*
X107136638Y-103676508D01*
X107123263Y-103648230D01*
X107112725Y-103618778D01*
X107105125Y-103588435D01*
X107100535Y-103557493D01*
X107099000Y-103526250D01*
X107099000Y-102888750D01*
X107100535Y-102857507D01*
X107105125Y-102826565D01*
X107112725Y-102796222D01*
X107123263Y-102766770D01*
X107136638Y-102738492D01*
X107152719Y-102711662D01*
X107171353Y-102686537D01*
X107192360Y-102663360D01*
X107215537Y-102642353D01*
X107240662Y-102623719D01*
X107267492Y-102607638D01*
X107295770Y-102594263D01*
X107325222Y-102583725D01*
X107355565Y-102576125D01*
X107386507Y-102571535D01*
X107417750Y-102570000D01*
X108130250Y-102570000D01*
X108161493Y-102571535D01*
X108161493Y-102571535D01*
G37*
D14*
X107774000Y-103207500D03*
D13*
G36*
X108161493Y-104146535D02*
X108192435Y-104151125D01*
X108222778Y-104158725D01*
X108252230Y-104169263D01*
X108280508Y-104182638D01*
X108307338Y-104198719D01*
X108332463Y-104217353D01*
X108355640Y-104238360D01*
X108376647Y-104261537D01*
X108395281Y-104286662D01*
X108411362Y-104313492D01*
X108424737Y-104341770D01*
X108435275Y-104371222D01*
X108442875Y-104401565D01*
X108447465Y-104432507D01*
X108449000Y-104463750D01*
X108449000Y-105101250D01*
X108447465Y-105132493D01*
X108442875Y-105163435D01*
X108435275Y-105193778D01*
X108424737Y-105223230D01*
X108411362Y-105251508D01*
X108395281Y-105278338D01*
X108376647Y-105303463D01*
X108355640Y-105326640D01*
X108332463Y-105347647D01*
X108307338Y-105366281D01*
X108280508Y-105382362D01*
X108252230Y-105395737D01*
X108222778Y-105406275D01*
X108192435Y-105413875D01*
X108161493Y-105418465D01*
X108130250Y-105420000D01*
X107417750Y-105420000D01*
X107386507Y-105418465D01*
X107355565Y-105413875D01*
X107325222Y-105406275D01*
X107295770Y-105395737D01*
X107267492Y-105382362D01*
X107240662Y-105366281D01*
X107215537Y-105347647D01*
X107192360Y-105326640D01*
X107171353Y-105303463D01*
X107152719Y-105278338D01*
X107136638Y-105251508D01*
X107123263Y-105223230D01*
X107112725Y-105193778D01*
X107105125Y-105163435D01*
X107100535Y-105132493D01*
X107099000Y-105101250D01*
X107099000Y-104463750D01*
X107100535Y-104432507D01*
X107105125Y-104401565D01*
X107112725Y-104371222D01*
X107123263Y-104341770D01*
X107136638Y-104313492D01*
X107152719Y-104286662D01*
X107171353Y-104261537D01*
X107192360Y-104238360D01*
X107215537Y-104217353D01*
X107240662Y-104198719D01*
X107267492Y-104182638D01*
X107295770Y-104169263D01*
X107325222Y-104158725D01*
X107355565Y-104151125D01*
X107386507Y-104146535D01*
X107417750Y-104145000D01*
X108130250Y-104145000D01*
X108161493Y-104146535D01*
X108161493Y-104146535D01*
G37*
D14*
X107774000Y-104782500D03*
G04 #@! TD*
D13*
G04 #@! TO.C,C5*
G36*
X105035493Y-114197535D02*
X105066435Y-114202125D01*
X105096778Y-114209725D01*
X105126230Y-114220263D01*
X105154508Y-114233638D01*
X105181338Y-114249719D01*
X105206463Y-114268353D01*
X105229640Y-114289360D01*
X105250647Y-114312537D01*
X105269281Y-114337662D01*
X105285362Y-114364492D01*
X105298737Y-114392770D01*
X105309275Y-114422222D01*
X105316875Y-114452565D01*
X105321465Y-114483507D01*
X105323000Y-114514750D01*
X105323000Y-115152250D01*
X105321465Y-115183493D01*
X105316875Y-115214435D01*
X105309275Y-115244778D01*
X105298737Y-115274230D01*
X105285362Y-115302508D01*
X105269281Y-115329338D01*
X105250647Y-115354463D01*
X105229640Y-115377640D01*
X105206463Y-115398647D01*
X105181338Y-115417281D01*
X105154508Y-115433362D01*
X105126230Y-115446737D01*
X105096778Y-115457275D01*
X105066435Y-115464875D01*
X105035493Y-115469465D01*
X105004250Y-115471000D01*
X104291750Y-115471000D01*
X104260507Y-115469465D01*
X104229565Y-115464875D01*
X104199222Y-115457275D01*
X104169770Y-115446737D01*
X104141492Y-115433362D01*
X104114662Y-115417281D01*
X104089537Y-115398647D01*
X104066360Y-115377640D01*
X104045353Y-115354463D01*
X104026719Y-115329338D01*
X104010638Y-115302508D01*
X103997263Y-115274230D01*
X103986725Y-115244778D01*
X103979125Y-115214435D01*
X103974535Y-115183493D01*
X103973000Y-115152250D01*
X103973000Y-114514750D01*
X103974535Y-114483507D01*
X103979125Y-114452565D01*
X103986725Y-114422222D01*
X103997263Y-114392770D01*
X104010638Y-114364492D01*
X104026719Y-114337662D01*
X104045353Y-114312537D01*
X104066360Y-114289360D01*
X104089537Y-114268353D01*
X104114662Y-114249719D01*
X104141492Y-114233638D01*
X104169770Y-114220263D01*
X104199222Y-114209725D01*
X104229565Y-114202125D01*
X104260507Y-114197535D01*
X104291750Y-114196000D01*
X105004250Y-114196000D01*
X105035493Y-114197535D01*
X105035493Y-114197535D01*
G37*
D14*
X104648000Y-114833500D03*
D13*
G36*
X105035493Y-112622535D02*
X105066435Y-112627125D01*
X105096778Y-112634725D01*
X105126230Y-112645263D01*
X105154508Y-112658638D01*
X105181338Y-112674719D01*
X105206463Y-112693353D01*
X105229640Y-112714360D01*
X105250647Y-112737537D01*
X105269281Y-112762662D01*
X105285362Y-112789492D01*
X105298737Y-112817770D01*
X105309275Y-112847222D01*
X105316875Y-112877565D01*
X105321465Y-112908507D01*
X105323000Y-112939750D01*
X105323000Y-113577250D01*
X105321465Y-113608493D01*
X105316875Y-113639435D01*
X105309275Y-113669778D01*
X105298737Y-113699230D01*
X105285362Y-113727508D01*
X105269281Y-113754338D01*
X105250647Y-113779463D01*
X105229640Y-113802640D01*
X105206463Y-113823647D01*
X105181338Y-113842281D01*
X105154508Y-113858362D01*
X105126230Y-113871737D01*
X105096778Y-113882275D01*
X105066435Y-113889875D01*
X105035493Y-113894465D01*
X105004250Y-113896000D01*
X104291750Y-113896000D01*
X104260507Y-113894465D01*
X104229565Y-113889875D01*
X104199222Y-113882275D01*
X104169770Y-113871737D01*
X104141492Y-113858362D01*
X104114662Y-113842281D01*
X104089537Y-113823647D01*
X104066360Y-113802640D01*
X104045353Y-113779463D01*
X104026719Y-113754338D01*
X104010638Y-113727508D01*
X103997263Y-113699230D01*
X103986725Y-113669778D01*
X103979125Y-113639435D01*
X103974535Y-113608493D01*
X103973000Y-113577250D01*
X103973000Y-112939750D01*
X103974535Y-112908507D01*
X103979125Y-112877565D01*
X103986725Y-112847222D01*
X103997263Y-112817770D01*
X104010638Y-112789492D01*
X104026719Y-112762662D01*
X104045353Y-112737537D01*
X104066360Y-112714360D01*
X104089537Y-112693353D01*
X104114662Y-112674719D01*
X104141492Y-112658638D01*
X104169770Y-112645263D01*
X104199222Y-112634725D01*
X104229565Y-112627125D01*
X104260507Y-112622535D01*
X104291750Y-112621000D01*
X105004250Y-112621000D01*
X105035493Y-112622535D01*
X105035493Y-112622535D01*
G37*
D14*
X104648000Y-113258500D03*
G04 #@! TD*
D13*
G04 #@! TO.C,C4*
G36*
X111161493Y-104046535D02*
X111192435Y-104051125D01*
X111222778Y-104058725D01*
X111252230Y-104069263D01*
X111280508Y-104082638D01*
X111307338Y-104098719D01*
X111332463Y-104117353D01*
X111355640Y-104138360D01*
X111376647Y-104161537D01*
X111395281Y-104186662D01*
X111411362Y-104213492D01*
X111424737Y-104241770D01*
X111435275Y-104271222D01*
X111442875Y-104301565D01*
X111447465Y-104332507D01*
X111449000Y-104363750D01*
X111449000Y-105076250D01*
X111447465Y-105107493D01*
X111442875Y-105138435D01*
X111435275Y-105168778D01*
X111424737Y-105198230D01*
X111411362Y-105226508D01*
X111395281Y-105253338D01*
X111376647Y-105278463D01*
X111355640Y-105301640D01*
X111332463Y-105322647D01*
X111307338Y-105341281D01*
X111280508Y-105357362D01*
X111252230Y-105370737D01*
X111222778Y-105381275D01*
X111192435Y-105388875D01*
X111161493Y-105393465D01*
X111130250Y-105395000D01*
X110492750Y-105395000D01*
X110461507Y-105393465D01*
X110430565Y-105388875D01*
X110400222Y-105381275D01*
X110370770Y-105370737D01*
X110342492Y-105357362D01*
X110315662Y-105341281D01*
X110290537Y-105322647D01*
X110267360Y-105301640D01*
X110246353Y-105278463D01*
X110227719Y-105253338D01*
X110211638Y-105226508D01*
X110198263Y-105198230D01*
X110187725Y-105168778D01*
X110180125Y-105138435D01*
X110175535Y-105107493D01*
X110174000Y-105076250D01*
X110174000Y-104363750D01*
X110175535Y-104332507D01*
X110180125Y-104301565D01*
X110187725Y-104271222D01*
X110198263Y-104241770D01*
X110211638Y-104213492D01*
X110227719Y-104186662D01*
X110246353Y-104161537D01*
X110267360Y-104138360D01*
X110290537Y-104117353D01*
X110315662Y-104098719D01*
X110342492Y-104082638D01*
X110370770Y-104069263D01*
X110400222Y-104058725D01*
X110430565Y-104051125D01*
X110461507Y-104046535D01*
X110492750Y-104045000D01*
X111130250Y-104045000D01*
X111161493Y-104046535D01*
X111161493Y-104046535D01*
G37*
D14*
X110811500Y-104720000D03*
D13*
G36*
X109586493Y-104046535D02*
X109617435Y-104051125D01*
X109647778Y-104058725D01*
X109677230Y-104069263D01*
X109705508Y-104082638D01*
X109732338Y-104098719D01*
X109757463Y-104117353D01*
X109780640Y-104138360D01*
X109801647Y-104161537D01*
X109820281Y-104186662D01*
X109836362Y-104213492D01*
X109849737Y-104241770D01*
X109860275Y-104271222D01*
X109867875Y-104301565D01*
X109872465Y-104332507D01*
X109874000Y-104363750D01*
X109874000Y-105076250D01*
X109872465Y-105107493D01*
X109867875Y-105138435D01*
X109860275Y-105168778D01*
X109849737Y-105198230D01*
X109836362Y-105226508D01*
X109820281Y-105253338D01*
X109801647Y-105278463D01*
X109780640Y-105301640D01*
X109757463Y-105322647D01*
X109732338Y-105341281D01*
X109705508Y-105357362D01*
X109677230Y-105370737D01*
X109647778Y-105381275D01*
X109617435Y-105388875D01*
X109586493Y-105393465D01*
X109555250Y-105395000D01*
X108917750Y-105395000D01*
X108886507Y-105393465D01*
X108855565Y-105388875D01*
X108825222Y-105381275D01*
X108795770Y-105370737D01*
X108767492Y-105357362D01*
X108740662Y-105341281D01*
X108715537Y-105322647D01*
X108692360Y-105301640D01*
X108671353Y-105278463D01*
X108652719Y-105253338D01*
X108636638Y-105226508D01*
X108623263Y-105198230D01*
X108612725Y-105168778D01*
X108605125Y-105138435D01*
X108600535Y-105107493D01*
X108599000Y-105076250D01*
X108599000Y-104363750D01*
X108600535Y-104332507D01*
X108605125Y-104301565D01*
X108612725Y-104271222D01*
X108623263Y-104241770D01*
X108636638Y-104213492D01*
X108652719Y-104186662D01*
X108671353Y-104161537D01*
X108692360Y-104138360D01*
X108715537Y-104117353D01*
X108740662Y-104098719D01*
X108767492Y-104082638D01*
X108795770Y-104069263D01*
X108825222Y-104058725D01*
X108855565Y-104051125D01*
X108886507Y-104046535D01*
X108917750Y-104045000D01*
X109555250Y-104045000D01*
X109586493Y-104046535D01*
X109586493Y-104046535D01*
G37*
D14*
X109236500Y-104720000D03*
G04 #@! TD*
D13*
G04 #@! TO.C,C3*
G36*
X109586493Y-102571535D02*
X109617435Y-102576125D01*
X109647778Y-102583725D01*
X109677230Y-102594263D01*
X109705508Y-102607638D01*
X109732338Y-102623719D01*
X109757463Y-102642353D01*
X109780640Y-102663360D01*
X109801647Y-102686537D01*
X109820281Y-102711662D01*
X109836362Y-102738492D01*
X109849737Y-102766770D01*
X109860275Y-102796222D01*
X109867875Y-102826565D01*
X109872465Y-102857507D01*
X109874000Y-102888750D01*
X109874000Y-103601250D01*
X109872465Y-103632493D01*
X109867875Y-103663435D01*
X109860275Y-103693778D01*
X109849737Y-103723230D01*
X109836362Y-103751508D01*
X109820281Y-103778338D01*
X109801647Y-103803463D01*
X109780640Y-103826640D01*
X109757463Y-103847647D01*
X109732338Y-103866281D01*
X109705508Y-103882362D01*
X109677230Y-103895737D01*
X109647778Y-103906275D01*
X109617435Y-103913875D01*
X109586493Y-103918465D01*
X109555250Y-103920000D01*
X108917750Y-103920000D01*
X108886507Y-103918465D01*
X108855565Y-103913875D01*
X108825222Y-103906275D01*
X108795770Y-103895737D01*
X108767492Y-103882362D01*
X108740662Y-103866281D01*
X108715537Y-103847647D01*
X108692360Y-103826640D01*
X108671353Y-103803463D01*
X108652719Y-103778338D01*
X108636638Y-103751508D01*
X108623263Y-103723230D01*
X108612725Y-103693778D01*
X108605125Y-103663435D01*
X108600535Y-103632493D01*
X108599000Y-103601250D01*
X108599000Y-102888750D01*
X108600535Y-102857507D01*
X108605125Y-102826565D01*
X108612725Y-102796222D01*
X108623263Y-102766770D01*
X108636638Y-102738492D01*
X108652719Y-102711662D01*
X108671353Y-102686537D01*
X108692360Y-102663360D01*
X108715537Y-102642353D01*
X108740662Y-102623719D01*
X108767492Y-102607638D01*
X108795770Y-102594263D01*
X108825222Y-102583725D01*
X108855565Y-102576125D01*
X108886507Y-102571535D01*
X108917750Y-102570000D01*
X109555250Y-102570000D01*
X109586493Y-102571535D01*
X109586493Y-102571535D01*
G37*
D14*
X109236500Y-103245000D03*
D13*
G36*
X111161493Y-102571535D02*
X111192435Y-102576125D01*
X111222778Y-102583725D01*
X111252230Y-102594263D01*
X111280508Y-102607638D01*
X111307338Y-102623719D01*
X111332463Y-102642353D01*
X111355640Y-102663360D01*
X111376647Y-102686537D01*
X111395281Y-102711662D01*
X111411362Y-102738492D01*
X111424737Y-102766770D01*
X111435275Y-102796222D01*
X111442875Y-102826565D01*
X111447465Y-102857507D01*
X111449000Y-102888750D01*
X111449000Y-103601250D01*
X111447465Y-103632493D01*
X111442875Y-103663435D01*
X111435275Y-103693778D01*
X111424737Y-103723230D01*
X111411362Y-103751508D01*
X111395281Y-103778338D01*
X111376647Y-103803463D01*
X111355640Y-103826640D01*
X111332463Y-103847647D01*
X111307338Y-103866281D01*
X111280508Y-103882362D01*
X111252230Y-103895737D01*
X111222778Y-103906275D01*
X111192435Y-103913875D01*
X111161493Y-103918465D01*
X111130250Y-103920000D01*
X110492750Y-103920000D01*
X110461507Y-103918465D01*
X110430565Y-103913875D01*
X110400222Y-103906275D01*
X110370770Y-103895737D01*
X110342492Y-103882362D01*
X110315662Y-103866281D01*
X110290537Y-103847647D01*
X110267360Y-103826640D01*
X110246353Y-103803463D01*
X110227719Y-103778338D01*
X110211638Y-103751508D01*
X110198263Y-103723230D01*
X110187725Y-103693778D01*
X110180125Y-103663435D01*
X110175535Y-103632493D01*
X110174000Y-103601250D01*
X110174000Y-102888750D01*
X110175535Y-102857507D01*
X110180125Y-102826565D01*
X110187725Y-102796222D01*
X110198263Y-102766770D01*
X110211638Y-102738492D01*
X110227719Y-102711662D01*
X110246353Y-102686537D01*
X110267360Y-102663360D01*
X110290537Y-102642353D01*
X110315662Y-102623719D01*
X110342492Y-102607638D01*
X110370770Y-102594263D01*
X110400222Y-102583725D01*
X110430565Y-102576125D01*
X110461507Y-102571535D01*
X110492750Y-102570000D01*
X111130250Y-102570000D01*
X111161493Y-102571535D01*
X111161493Y-102571535D01*
G37*
D14*
X110811500Y-103245000D03*
G04 #@! TD*
D13*
G04 #@! TO.C,C2*
G36*
X106750493Y-123532535D02*
X106781435Y-123537125D01*
X106811778Y-123544725D01*
X106841230Y-123555263D01*
X106869508Y-123568638D01*
X106896338Y-123584719D01*
X106921463Y-123603353D01*
X106944640Y-123624360D01*
X106965647Y-123647537D01*
X106984281Y-123672662D01*
X107000362Y-123699492D01*
X107013737Y-123727770D01*
X107024275Y-123757222D01*
X107031875Y-123787565D01*
X107036465Y-123818507D01*
X107038000Y-123849750D01*
X107038000Y-124562250D01*
X107036465Y-124593493D01*
X107031875Y-124624435D01*
X107024275Y-124654778D01*
X107013737Y-124684230D01*
X107000362Y-124712508D01*
X106984281Y-124739338D01*
X106965647Y-124764463D01*
X106944640Y-124787640D01*
X106921463Y-124808647D01*
X106896338Y-124827281D01*
X106869508Y-124843362D01*
X106841230Y-124856737D01*
X106811778Y-124867275D01*
X106781435Y-124874875D01*
X106750493Y-124879465D01*
X106719250Y-124881000D01*
X106081750Y-124881000D01*
X106050507Y-124879465D01*
X106019565Y-124874875D01*
X105989222Y-124867275D01*
X105959770Y-124856737D01*
X105931492Y-124843362D01*
X105904662Y-124827281D01*
X105879537Y-124808647D01*
X105856360Y-124787640D01*
X105835353Y-124764463D01*
X105816719Y-124739338D01*
X105800638Y-124712508D01*
X105787263Y-124684230D01*
X105776725Y-124654778D01*
X105769125Y-124624435D01*
X105764535Y-124593493D01*
X105763000Y-124562250D01*
X105763000Y-123849750D01*
X105764535Y-123818507D01*
X105769125Y-123787565D01*
X105776725Y-123757222D01*
X105787263Y-123727770D01*
X105800638Y-123699492D01*
X105816719Y-123672662D01*
X105835353Y-123647537D01*
X105856360Y-123624360D01*
X105879537Y-123603353D01*
X105904662Y-123584719D01*
X105931492Y-123568638D01*
X105959770Y-123555263D01*
X105989222Y-123544725D01*
X106019565Y-123537125D01*
X106050507Y-123532535D01*
X106081750Y-123531000D01*
X106719250Y-123531000D01*
X106750493Y-123532535D01*
X106750493Y-123532535D01*
G37*
D14*
X106400500Y-124206000D03*
D13*
G36*
X108325493Y-123532535D02*
X108356435Y-123537125D01*
X108386778Y-123544725D01*
X108416230Y-123555263D01*
X108444508Y-123568638D01*
X108471338Y-123584719D01*
X108496463Y-123603353D01*
X108519640Y-123624360D01*
X108540647Y-123647537D01*
X108559281Y-123672662D01*
X108575362Y-123699492D01*
X108588737Y-123727770D01*
X108599275Y-123757222D01*
X108606875Y-123787565D01*
X108611465Y-123818507D01*
X108613000Y-123849750D01*
X108613000Y-124562250D01*
X108611465Y-124593493D01*
X108606875Y-124624435D01*
X108599275Y-124654778D01*
X108588737Y-124684230D01*
X108575362Y-124712508D01*
X108559281Y-124739338D01*
X108540647Y-124764463D01*
X108519640Y-124787640D01*
X108496463Y-124808647D01*
X108471338Y-124827281D01*
X108444508Y-124843362D01*
X108416230Y-124856737D01*
X108386778Y-124867275D01*
X108356435Y-124874875D01*
X108325493Y-124879465D01*
X108294250Y-124881000D01*
X107656750Y-124881000D01*
X107625507Y-124879465D01*
X107594565Y-124874875D01*
X107564222Y-124867275D01*
X107534770Y-124856737D01*
X107506492Y-124843362D01*
X107479662Y-124827281D01*
X107454537Y-124808647D01*
X107431360Y-124787640D01*
X107410353Y-124764463D01*
X107391719Y-124739338D01*
X107375638Y-124712508D01*
X107362263Y-124684230D01*
X107351725Y-124654778D01*
X107344125Y-124624435D01*
X107339535Y-124593493D01*
X107338000Y-124562250D01*
X107338000Y-123849750D01*
X107339535Y-123818507D01*
X107344125Y-123787565D01*
X107351725Y-123757222D01*
X107362263Y-123727770D01*
X107375638Y-123699492D01*
X107391719Y-123672662D01*
X107410353Y-123647537D01*
X107431360Y-123624360D01*
X107454537Y-123603353D01*
X107479662Y-123584719D01*
X107506492Y-123568638D01*
X107534770Y-123555263D01*
X107564222Y-123544725D01*
X107594565Y-123537125D01*
X107625507Y-123532535D01*
X107656750Y-123531000D01*
X108294250Y-123531000D01*
X108325493Y-123532535D01*
X108325493Y-123532535D01*
G37*
D14*
X107975500Y-124206000D03*
G04 #@! TD*
D13*
G04 #@! TO.C,C1*
G36*
X111373493Y-117055535D02*
X111404435Y-117060125D01*
X111434778Y-117067725D01*
X111464230Y-117078263D01*
X111492508Y-117091638D01*
X111519338Y-117107719D01*
X111544463Y-117126353D01*
X111567640Y-117147360D01*
X111588647Y-117170537D01*
X111607281Y-117195662D01*
X111623362Y-117222492D01*
X111636737Y-117250770D01*
X111647275Y-117280222D01*
X111654875Y-117310565D01*
X111659465Y-117341507D01*
X111661000Y-117372750D01*
X111661000Y-118085250D01*
X111659465Y-118116493D01*
X111654875Y-118147435D01*
X111647275Y-118177778D01*
X111636737Y-118207230D01*
X111623362Y-118235508D01*
X111607281Y-118262338D01*
X111588647Y-118287463D01*
X111567640Y-118310640D01*
X111544463Y-118331647D01*
X111519338Y-118350281D01*
X111492508Y-118366362D01*
X111464230Y-118379737D01*
X111434778Y-118390275D01*
X111404435Y-118397875D01*
X111373493Y-118402465D01*
X111342250Y-118404000D01*
X110704750Y-118404000D01*
X110673507Y-118402465D01*
X110642565Y-118397875D01*
X110612222Y-118390275D01*
X110582770Y-118379737D01*
X110554492Y-118366362D01*
X110527662Y-118350281D01*
X110502537Y-118331647D01*
X110479360Y-118310640D01*
X110458353Y-118287463D01*
X110439719Y-118262338D01*
X110423638Y-118235508D01*
X110410263Y-118207230D01*
X110399725Y-118177778D01*
X110392125Y-118147435D01*
X110387535Y-118116493D01*
X110386000Y-118085250D01*
X110386000Y-117372750D01*
X110387535Y-117341507D01*
X110392125Y-117310565D01*
X110399725Y-117280222D01*
X110410263Y-117250770D01*
X110423638Y-117222492D01*
X110439719Y-117195662D01*
X110458353Y-117170537D01*
X110479360Y-117147360D01*
X110502537Y-117126353D01*
X110527662Y-117107719D01*
X110554492Y-117091638D01*
X110582770Y-117078263D01*
X110612222Y-117067725D01*
X110642565Y-117060125D01*
X110673507Y-117055535D01*
X110704750Y-117054000D01*
X111342250Y-117054000D01*
X111373493Y-117055535D01*
X111373493Y-117055535D01*
G37*
D14*
X111023500Y-117729000D03*
D13*
G36*
X109798493Y-117055535D02*
X109829435Y-117060125D01*
X109859778Y-117067725D01*
X109889230Y-117078263D01*
X109917508Y-117091638D01*
X109944338Y-117107719D01*
X109969463Y-117126353D01*
X109992640Y-117147360D01*
X110013647Y-117170537D01*
X110032281Y-117195662D01*
X110048362Y-117222492D01*
X110061737Y-117250770D01*
X110072275Y-117280222D01*
X110079875Y-117310565D01*
X110084465Y-117341507D01*
X110086000Y-117372750D01*
X110086000Y-118085250D01*
X110084465Y-118116493D01*
X110079875Y-118147435D01*
X110072275Y-118177778D01*
X110061737Y-118207230D01*
X110048362Y-118235508D01*
X110032281Y-118262338D01*
X110013647Y-118287463D01*
X109992640Y-118310640D01*
X109969463Y-118331647D01*
X109944338Y-118350281D01*
X109917508Y-118366362D01*
X109889230Y-118379737D01*
X109859778Y-118390275D01*
X109829435Y-118397875D01*
X109798493Y-118402465D01*
X109767250Y-118404000D01*
X109129750Y-118404000D01*
X109098507Y-118402465D01*
X109067565Y-118397875D01*
X109037222Y-118390275D01*
X109007770Y-118379737D01*
X108979492Y-118366362D01*
X108952662Y-118350281D01*
X108927537Y-118331647D01*
X108904360Y-118310640D01*
X108883353Y-118287463D01*
X108864719Y-118262338D01*
X108848638Y-118235508D01*
X108835263Y-118207230D01*
X108824725Y-118177778D01*
X108817125Y-118147435D01*
X108812535Y-118116493D01*
X108811000Y-118085250D01*
X108811000Y-117372750D01*
X108812535Y-117341507D01*
X108817125Y-117310565D01*
X108824725Y-117280222D01*
X108835263Y-117250770D01*
X108848638Y-117222492D01*
X108864719Y-117195662D01*
X108883353Y-117170537D01*
X108904360Y-117147360D01*
X108927537Y-117126353D01*
X108952662Y-117107719D01*
X108979492Y-117091638D01*
X109007770Y-117078263D01*
X109037222Y-117067725D01*
X109067565Y-117060125D01*
X109098507Y-117055535D01*
X109129750Y-117054000D01*
X109767250Y-117054000D01*
X109798493Y-117055535D01*
X109798493Y-117055535D01*
G37*
D14*
X109448500Y-117729000D03*
G04 #@! TD*
D11*
G04 #@! TO.C,J3*
X116840000Y-93980000D03*
X116840000Y-96520000D03*
X116840000Y-99060000D03*
X116840000Y-101600000D03*
X116840000Y-104140000D03*
X116840000Y-106680000D03*
X116840000Y-109220000D03*
X116840000Y-111760000D03*
X116840000Y-114300000D03*
X116840000Y-116840000D03*
X116840000Y-119380000D03*
X116840000Y-121920000D03*
X116840000Y-124460000D03*
D10*
X116840000Y-127000000D03*
G04 #@! TD*
G04 #@! TO.C,J2*
X101600000Y-127000000D03*
D11*
X101600000Y-124460000D03*
X101600000Y-121920000D03*
X101600000Y-119380000D03*
X101600000Y-116840000D03*
X101600000Y-114300000D03*
X101600000Y-111760000D03*
X101600000Y-109220000D03*
X101600000Y-106680000D03*
X101600000Y-104140000D03*
X101600000Y-101600000D03*
X101600000Y-99060000D03*
X101600000Y-96520000D03*
X101600000Y-93980000D03*
G04 #@! TD*
D15*
G04 #@! TO.C,U1*
X109220000Y-110490000D03*
D16*
X107470000Y-107990000D03*
X107970000Y-107990001D03*
X108470000Y-107990000D03*
X108970000Y-107990000D03*
X109470000Y-107990000D03*
X109970000Y-107990000D03*
X110470000Y-107990001D03*
X110970000Y-107990000D03*
D17*
X111720000Y-108740000D03*
X111719999Y-109240000D03*
X111720000Y-109740000D03*
X111720000Y-110240000D03*
X111720000Y-110740000D03*
X111720000Y-111240000D03*
X111719999Y-111740000D03*
X111720000Y-112240000D03*
D16*
X110970000Y-112990000D03*
X110470000Y-112989999D03*
X109970000Y-112990000D03*
X109470000Y-112990000D03*
X108970000Y-112990000D03*
X108470000Y-112990000D03*
X107970000Y-112989999D03*
X107470000Y-112990000D03*
D17*
X106720000Y-112240000D03*
X106720001Y-111740000D03*
X106720000Y-111240000D03*
X106720000Y-110740000D03*
X106720000Y-110240000D03*
X106720000Y-109740000D03*
X106720001Y-109240000D03*
X106720000Y-108740000D03*
G04 #@! TD*
D13*
G04 #@! TO.C,R2*
G36*
X109798493Y-115531535D02*
X109829435Y-115536125D01*
X109859778Y-115543725D01*
X109889230Y-115554263D01*
X109917508Y-115567638D01*
X109944338Y-115583719D01*
X109969463Y-115602353D01*
X109992640Y-115623360D01*
X110013647Y-115646537D01*
X110032281Y-115671662D01*
X110048362Y-115698492D01*
X110061737Y-115726770D01*
X110072275Y-115756222D01*
X110079875Y-115786565D01*
X110084465Y-115817507D01*
X110086000Y-115848750D01*
X110086000Y-116561250D01*
X110084465Y-116592493D01*
X110079875Y-116623435D01*
X110072275Y-116653778D01*
X110061737Y-116683230D01*
X110048362Y-116711508D01*
X110032281Y-116738338D01*
X110013647Y-116763463D01*
X109992640Y-116786640D01*
X109969463Y-116807647D01*
X109944338Y-116826281D01*
X109917508Y-116842362D01*
X109889230Y-116855737D01*
X109859778Y-116866275D01*
X109829435Y-116873875D01*
X109798493Y-116878465D01*
X109767250Y-116880000D01*
X109129750Y-116880000D01*
X109098507Y-116878465D01*
X109067565Y-116873875D01*
X109037222Y-116866275D01*
X109007770Y-116855737D01*
X108979492Y-116842362D01*
X108952662Y-116826281D01*
X108927537Y-116807647D01*
X108904360Y-116786640D01*
X108883353Y-116763463D01*
X108864719Y-116738338D01*
X108848638Y-116711508D01*
X108835263Y-116683230D01*
X108824725Y-116653778D01*
X108817125Y-116623435D01*
X108812535Y-116592493D01*
X108811000Y-116561250D01*
X108811000Y-115848750D01*
X108812535Y-115817507D01*
X108817125Y-115786565D01*
X108824725Y-115756222D01*
X108835263Y-115726770D01*
X108848638Y-115698492D01*
X108864719Y-115671662D01*
X108883353Y-115646537D01*
X108904360Y-115623360D01*
X108927537Y-115602353D01*
X108952662Y-115583719D01*
X108979492Y-115567638D01*
X109007770Y-115554263D01*
X109037222Y-115543725D01*
X109067565Y-115536125D01*
X109098507Y-115531535D01*
X109129750Y-115530000D01*
X109767250Y-115530000D01*
X109798493Y-115531535D01*
X109798493Y-115531535D01*
G37*
D14*
X109448500Y-116205000D03*
D13*
G36*
X111373493Y-115531535D02*
X111404435Y-115536125D01*
X111434778Y-115543725D01*
X111464230Y-115554263D01*
X111492508Y-115567638D01*
X111519338Y-115583719D01*
X111544463Y-115602353D01*
X111567640Y-115623360D01*
X111588647Y-115646537D01*
X111607281Y-115671662D01*
X111623362Y-115698492D01*
X111636737Y-115726770D01*
X111647275Y-115756222D01*
X111654875Y-115786565D01*
X111659465Y-115817507D01*
X111661000Y-115848750D01*
X111661000Y-116561250D01*
X111659465Y-116592493D01*
X111654875Y-116623435D01*
X111647275Y-116653778D01*
X111636737Y-116683230D01*
X111623362Y-116711508D01*
X111607281Y-116738338D01*
X111588647Y-116763463D01*
X111567640Y-116786640D01*
X111544463Y-116807647D01*
X111519338Y-116826281D01*
X111492508Y-116842362D01*
X111464230Y-116855737D01*
X111434778Y-116866275D01*
X111404435Y-116873875D01*
X111373493Y-116878465D01*
X111342250Y-116880000D01*
X110704750Y-116880000D01*
X110673507Y-116878465D01*
X110642565Y-116873875D01*
X110612222Y-116866275D01*
X110582770Y-116855737D01*
X110554492Y-116842362D01*
X110527662Y-116826281D01*
X110502537Y-116807647D01*
X110479360Y-116786640D01*
X110458353Y-116763463D01*
X110439719Y-116738338D01*
X110423638Y-116711508D01*
X110410263Y-116683230D01*
X110399725Y-116653778D01*
X110392125Y-116623435D01*
X110387535Y-116592493D01*
X110386000Y-116561250D01*
X110386000Y-115848750D01*
X110387535Y-115817507D01*
X110392125Y-115786565D01*
X110399725Y-115756222D01*
X110410263Y-115726770D01*
X110423638Y-115698492D01*
X110439719Y-115671662D01*
X110458353Y-115646537D01*
X110479360Y-115623360D01*
X110502537Y-115602353D01*
X110527662Y-115583719D01*
X110554492Y-115567638D01*
X110582770Y-115554263D01*
X110612222Y-115543725D01*
X110642565Y-115536125D01*
X110673507Y-115531535D01*
X110704750Y-115530000D01*
X111342250Y-115530000D01*
X111373493Y-115531535D01*
X111373493Y-115531535D01*
G37*
D14*
X111023500Y-116205000D03*
G04 #@! TD*
D13*
G04 #@! TO.C,R1*
G36*
X108325493Y-117055535D02*
X108356435Y-117060125D01*
X108386778Y-117067725D01*
X108416230Y-117078263D01*
X108444508Y-117091638D01*
X108471338Y-117107719D01*
X108496463Y-117126353D01*
X108519640Y-117147360D01*
X108540647Y-117170537D01*
X108559281Y-117195662D01*
X108575362Y-117222492D01*
X108588737Y-117250770D01*
X108599275Y-117280222D01*
X108606875Y-117310565D01*
X108611465Y-117341507D01*
X108613000Y-117372750D01*
X108613000Y-118085250D01*
X108611465Y-118116493D01*
X108606875Y-118147435D01*
X108599275Y-118177778D01*
X108588737Y-118207230D01*
X108575362Y-118235508D01*
X108559281Y-118262338D01*
X108540647Y-118287463D01*
X108519640Y-118310640D01*
X108496463Y-118331647D01*
X108471338Y-118350281D01*
X108444508Y-118366362D01*
X108416230Y-118379737D01*
X108386778Y-118390275D01*
X108356435Y-118397875D01*
X108325493Y-118402465D01*
X108294250Y-118404000D01*
X107656750Y-118404000D01*
X107625507Y-118402465D01*
X107594565Y-118397875D01*
X107564222Y-118390275D01*
X107534770Y-118379737D01*
X107506492Y-118366362D01*
X107479662Y-118350281D01*
X107454537Y-118331647D01*
X107431360Y-118310640D01*
X107410353Y-118287463D01*
X107391719Y-118262338D01*
X107375638Y-118235508D01*
X107362263Y-118207230D01*
X107351725Y-118177778D01*
X107344125Y-118147435D01*
X107339535Y-118116493D01*
X107338000Y-118085250D01*
X107338000Y-117372750D01*
X107339535Y-117341507D01*
X107344125Y-117310565D01*
X107351725Y-117280222D01*
X107362263Y-117250770D01*
X107375638Y-117222492D01*
X107391719Y-117195662D01*
X107410353Y-117170537D01*
X107431360Y-117147360D01*
X107454537Y-117126353D01*
X107479662Y-117107719D01*
X107506492Y-117091638D01*
X107534770Y-117078263D01*
X107564222Y-117067725D01*
X107594565Y-117060125D01*
X107625507Y-117055535D01*
X107656750Y-117054000D01*
X108294250Y-117054000D01*
X108325493Y-117055535D01*
X108325493Y-117055535D01*
G37*
D14*
X107975500Y-117729000D03*
D13*
G36*
X106750493Y-117055535D02*
X106781435Y-117060125D01*
X106811778Y-117067725D01*
X106841230Y-117078263D01*
X106869508Y-117091638D01*
X106896338Y-117107719D01*
X106921463Y-117126353D01*
X106944640Y-117147360D01*
X106965647Y-117170537D01*
X106984281Y-117195662D01*
X107000362Y-117222492D01*
X107013737Y-117250770D01*
X107024275Y-117280222D01*
X107031875Y-117310565D01*
X107036465Y-117341507D01*
X107038000Y-117372750D01*
X107038000Y-118085250D01*
X107036465Y-118116493D01*
X107031875Y-118147435D01*
X107024275Y-118177778D01*
X107013737Y-118207230D01*
X107000362Y-118235508D01*
X106984281Y-118262338D01*
X106965647Y-118287463D01*
X106944640Y-118310640D01*
X106921463Y-118331647D01*
X106896338Y-118350281D01*
X106869508Y-118366362D01*
X106841230Y-118379737D01*
X106811778Y-118390275D01*
X106781435Y-118397875D01*
X106750493Y-118402465D01*
X106719250Y-118404000D01*
X106081750Y-118404000D01*
X106050507Y-118402465D01*
X106019565Y-118397875D01*
X105989222Y-118390275D01*
X105959770Y-118379737D01*
X105931492Y-118366362D01*
X105904662Y-118350281D01*
X105879537Y-118331647D01*
X105856360Y-118310640D01*
X105835353Y-118287463D01*
X105816719Y-118262338D01*
X105800638Y-118235508D01*
X105787263Y-118207230D01*
X105776725Y-118177778D01*
X105769125Y-118147435D01*
X105764535Y-118116493D01*
X105763000Y-118085250D01*
X105763000Y-117372750D01*
X105764535Y-117341507D01*
X105769125Y-117310565D01*
X105776725Y-117280222D01*
X105787263Y-117250770D01*
X105800638Y-117222492D01*
X105816719Y-117195662D01*
X105835353Y-117170537D01*
X105856360Y-117147360D01*
X105879537Y-117126353D01*
X105904662Y-117107719D01*
X105931492Y-117091638D01*
X105959770Y-117078263D01*
X105989222Y-117067725D01*
X106019565Y-117060125D01*
X106050507Y-117055535D01*
X106081750Y-117054000D01*
X106719250Y-117054000D01*
X106750493Y-117055535D01*
X106750493Y-117055535D01*
G37*
D14*
X106400500Y-117729000D03*
G04 #@! TD*
M02*
