M48
;DRILL file {KiCad 5.0.0-rc3-6a2723a~65~ubuntu18.04.1} date Mon Jul 16 03:01:29 2018
;FORMAT={-:-/ absolute / inch / decimal}
FMAT,2
INCH,TZ
T1C0.0157
T2C0.0394
%
G90
G05
M72
T1
X4.08Y-4.52
X4.08Y-4.98
X4.255Y-3.965
X4.265Y-4.31
X4.265Y-4.38
X4.275Y-4.6
X4.3Y-4.19
X4.3006Y-3.995
X4.305Y-4.75
X4.335Y-4.31
X4.335Y-4.38
X4.365Y-4.19
X4.37Y-3.78
X4.395Y-3.965
X4.475Y-4.52
T2
X4.25Y-5.
X4.35Y-5.
X4.15Y-3.7
X4.25Y-3.7
X4.35Y-3.7
X4.45Y-3.7
X4.6Y-3.7
X4.6Y-3.8
X4.6Y-3.9
X4.6Y-4.
X4.6Y-4.1
X4.6Y-4.2
X4.6Y-4.3
X4.6Y-4.4
X4.6Y-4.5
X4.6Y-4.6
X4.6Y-4.7
X4.6Y-4.8
X4.6Y-4.9
X4.6Y-5.
X4.Y-3.7
X4.Y-3.8
X4.Y-3.9
X4.Y-4.
X4.Y-4.1
X4.Y-4.2
X4.Y-4.3
X4.Y-4.4
X4.Y-4.5
X4.Y-4.6
X4.Y-4.7
X4.Y-4.8
X4.Y-4.9
X4.Y-5.
T0
M30
