G04 #@! TF.GenerationSoftware,KiCad,Pcbnew,5.0.0-rc3-6a2723a~65~ubuntu18.04.1*
G04 #@! TF.CreationDate,2018-07-16T03:01:28+02:00*
G04 #@! TF.ProjectId,securisam,73656375726973616D2E6B696361645F,rev?*
G04 #@! TF.SameCoordinates,Original*
G04 #@! TF.FileFunction,Copper,L1,Top,Signal*
G04 #@! TF.FilePolarity,Positive*
%FSLAX46Y46*%
G04 Gerber Fmt 4.6, Leading zero omitted, Abs format (unit mm)*
G04 Created by KiCad (PCBNEW 5.0.0-rc3-6a2723a~65~ubuntu18.04.1) date Mon Jul 16 03:01:28 2018*
%MOMM*%
%LPD*%
G01*
G04 APERTURE LIST*
G04 #@! TA.AperFunction,ComponentPad*
%ADD10R,1.700000X1.700000*%
G04 #@! TD*
G04 #@! TA.AperFunction,ComponentPad*
%ADD11O,1.700000X1.700000*%
G04 #@! TD*
G04 #@! TA.AperFunction,SMDPad,CuDef*
%ADD12R,2.180000X1.600000*%
G04 #@! TD*
G04 #@! TA.AperFunction,Conductor*
%ADD13C,0.100000*%
G04 #@! TD*
G04 #@! TA.AperFunction,SMDPad,CuDef*
%ADD14C,0.875000*%
G04 #@! TD*
G04 #@! TA.AperFunction,SMDPad,CuDef*
%ADD15R,3.800000X3.800000*%
G04 #@! TD*
G04 #@! TA.AperFunction,SMDPad,CuDef*
%ADD16O,0.300000X0.800000*%
G04 #@! TD*
G04 #@! TA.AperFunction,SMDPad,CuDef*
%ADD17O,0.800000X0.300000*%
G04 #@! TD*
G04 #@! TA.AperFunction,ViaPad*
%ADD18C,0.800000*%
G04 #@! TD*
G04 #@! TA.AperFunction,Conductor*
%ADD19C,0.250000*%
G04 #@! TD*
G04 #@! TA.AperFunction,Conductor*
%ADD20C,0.200000*%
G04 #@! TD*
G04 APERTURE END LIST*
D10*
G04 #@! TO.P,J4,1*
G04 #@! TO.N,GND*
X110490000Y-127000000D03*
D11*
G04 #@! TO.P,J4,2*
G04 #@! TO.N,VDD*
X107950000Y-127000000D03*
G04 #@! TD*
D10*
G04 #@! TO.P,J1,1*
G04 #@! TO.N,/SWDIO*
X105410000Y-93980000D03*
D11*
G04 #@! TO.P,J1,2*
G04 #@! TO.N,GND*
X107950000Y-93980000D03*
G04 #@! TO.P,J1,3*
G04 #@! TO.N,/SWCLK*
X110490000Y-93980000D03*
G04 #@! TO.P,J1,4*
G04 #@! TO.N,VDD*
X113030000Y-93980000D03*
G04 #@! TD*
D12*
G04 #@! TO.P,SW1,1*
G04 #@! TO.N,GND*
X113810000Y-120650000D03*
G04 #@! TO.P,SW1,2*
G04 #@! TO.N,Net-(R1-Pad2)*
X104630000Y-120650000D03*
G04 #@! TD*
D13*
G04 #@! TO.N,GND*
G04 #@! TO.C,C6*
G36*
X108051691Y-102771053D02*
X108072926Y-102774203D01*
X108093750Y-102779419D01*
X108113962Y-102786651D01*
X108133368Y-102795830D01*
X108151781Y-102806866D01*
X108169024Y-102819654D01*
X108184930Y-102834070D01*
X108199346Y-102849976D01*
X108212134Y-102867219D01*
X108223170Y-102885632D01*
X108232349Y-102905038D01*
X108239581Y-102925250D01*
X108244797Y-102946074D01*
X108247947Y-102967309D01*
X108249000Y-102988750D01*
X108249000Y-103426250D01*
X108247947Y-103447691D01*
X108244797Y-103468926D01*
X108239581Y-103489750D01*
X108232349Y-103509962D01*
X108223170Y-103529368D01*
X108212134Y-103547781D01*
X108199346Y-103565024D01*
X108184930Y-103580930D01*
X108169024Y-103595346D01*
X108151781Y-103608134D01*
X108133368Y-103619170D01*
X108113962Y-103628349D01*
X108093750Y-103635581D01*
X108072926Y-103640797D01*
X108051691Y-103643947D01*
X108030250Y-103645000D01*
X107517750Y-103645000D01*
X107496309Y-103643947D01*
X107475074Y-103640797D01*
X107454250Y-103635581D01*
X107434038Y-103628349D01*
X107414632Y-103619170D01*
X107396219Y-103608134D01*
X107378976Y-103595346D01*
X107363070Y-103580930D01*
X107348654Y-103565024D01*
X107335866Y-103547781D01*
X107324830Y-103529368D01*
X107315651Y-103509962D01*
X107308419Y-103489750D01*
X107303203Y-103468926D01*
X107300053Y-103447691D01*
X107299000Y-103426250D01*
X107299000Y-102988750D01*
X107300053Y-102967309D01*
X107303203Y-102946074D01*
X107308419Y-102925250D01*
X107315651Y-102905038D01*
X107324830Y-102885632D01*
X107335866Y-102867219D01*
X107348654Y-102849976D01*
X107363070Y-102834070D01*
X107378976Y-102819654D01*
X107396219Y-102806866D01*
X107414632Y-102795830D01*
X107434038Y-102786651D01*
X107454250Y-102779419D01*
X107475074Y-102774203D01*
X107496309Y-102771053D01*
X107517750Y-102770000D01*
X108030250Y-102770000D01*
X108051691Y-102771053D01*
X108051691Y-102771053D01*
G37*
D14*
G04 #@! TD*
G04 #@! TO.P,C6,2*
G04 #@! TO.N,GND*
X107774000Y-103207500D03*
D13*
G04 #@! TO.N,VDD*
G04 #@! TO.C,C6*
G36*
X108051691Y-104346053D02*
X108072926Y-104349203D01*
X108093750Y-104354419D01*
X108113962Y-104361651D01*
X108133368Y-104370830D01*
X108151781Y-104381866D01*
X108169024Y-104394654D01*
X108184930Y-104409070D01*
X108199346Y-104424976D01*
X108212134Y-104442219D01*
X108223170Y-104460632D01*
X108232349Y-104480038D01*
X108239581Y-104500250D01*
X108244797Y-104521074D01*
X108247947Y-104542309D01*
X108249000Y-104563750D01*
X108249000Y-105001250D01*
X108247947Y-105022691D01*
X108244797Y-105043926D01*
X108239581Y-105064750D01*
X108232349Y-105084962D01*
X108223170Y-105104368D01*
X108212134Y-105122781D01*
X108199346Y-105140024D01*
X108184930Y-105155930D01*
X108169024Y-105170346D01*
X108151781Y-105183134D01*
X108133368Y-105194170D01*
X108113962Y-105203349D01*
X108093750Y-105210581D01*
X108072926Y-105215797D01*
X108051691Y-105218947D01*
X108030250Y-105220000D01*
X107517750Y-105220000D01*
X107496309Y-105218947D01*
X107475074Y-105215797D01*
X107454250Y-105210581D01*
X107434038Y-105203349D01*
X107414632Y-105194170D01*
X107396219Y-105183134D01*
X107378976Y-105170346D01*
X107363070Y-105155930D01*
X107348654Y-105140024D01*
X107335866Y-105122781D01*
X107324830Y-105104368D01*
X107315651Y-105084962D01*
X107308419Y-105064750D01*
X107303203Y-105043926D01*
X107300053Y-105022691D01*
X107299000Y-105001250D01*
X107299000Y-104563750D01*
X107300053Y-104542309D01*
X107303203Y-104521074D01*
X107308419Y-104500250D01*
X107315651Y-104480038D01*
X107324830Y-104460632D01*
X107335866Y-104442219D01*
X107348654Y-104424976D01*
X107363070Y-104409070D01*
X107378976Y-104394654D01*
X107396219Y-104381866D01*
X107414632Y-104370830D01*
X107434038Y-104361651D01*
X107454250Y-104354419D01*
X107475074Y-104349203D01*
X107496309Y-104346053D01*
X107517750Y-104345000D01*
X108030250Y-104345000D01*
X108051691Y-104346053D01*
X108051691Y-104346053D01*
G37*
D14*
G04 #@! TD*
G04 #@! TO.P,C6,1*
G04 #@! TO.N,VDD*
X107774000Y-104782500D03*
D13*
G04 #@! TO.N,VDD*
G04 #@! TO.C,C5*
G36*
X104925691Y-114397053D02*
X104946926Y-114400203D01*
X104967750Y-114405419D01*
X104987962Y-114412651D01*
X105007368Y-114421830D01*
X105025781Y-114432866D01*
X105043024Y-114445654D01*
X105058930Y-114460070D01*
X105073346Y-114475976D01*
X105086134Y-114493219D01*
X105097170Y-114511632D01*
X105106349Y-114531038D01*
X105113581Y-114551250D01*
X105118797Y-114572074D01*
X105121947Y-114593309D01*
X105123000Y-114614750D01*
X105123000Y-115052250D01*
X105121947Y-115073691D01*
X105118797Y-115094926D01*
X105113581Y-115115750D01*
X105106349Y-115135962D01*
X105097170Y-115155368D01*
X105086134Y-115173781D01*
X105073346Y-115191024D01*
X105058930Y-115206930D01*
X105043024Y-115221346D01*
X105025781Y-115234134D01*
X105007368Y-115245170D01*
X104987962Y-115254349D01*
X104967750Y-115261581D01*
X104946926Y-115266797D01*
X104925691Y-115269947D01*
X104904250Y-115271000D01*
X104391750Y-115271000D01*
X104370309Y-115269947D01*
X104349074Y-115266797D01*
X104328250Y-115261581D01*
X104308038Y-115254349D01*
X104288632Y-115245170D01*
X104270219Y-115234134D01*
X104252976Y-115221346D01*
X104237070Y-115206930D01*
X104222654Y-115191024D01*
X104209866Y-115173781D01*
X104198830Y-115155368D01*
X104189651Y-115135962D01*
X104182419Y-115115750D01*
X104177203Y-115094926D01*
X104174053Y-115073691D01*
X104173000Y-115052250D01*
X104173000Y-114614750D01*
X104174053Y-114593309D01*
X104177203Y-114572074D01*
X104182419Y-114551250D01*
X104189651Y-114531038D01*
X104198830Y-114511632D01*
X104209866Y-114493219D01*
X104222654Y-114475976D01*
X104237070Y-114460070D01*
X104252976Y-114445654D01*
X104270219Y-114432866D01*
X104288632Y-114421830D01*
X104308038Y-114412651D01*
X104328250Y-114405419D01*
X104349074Y-114400203D01*
X104370309Y-114397053D01*
X104391750Y-114396000D01*
X104904250Y-114396000D01*
X104925691Y-114397053D01*
X104925691Y-114397053D01*
G37*
D14*
G04 #@! TD*
G04 #@! TO.P,C5,1*
G04 #@! TO.N,VDD*
X104648000Y-114833500D03*
D13*
G04 #@! TO.N,GND*
G04 #@! TO.C,C5*
G36*
X104925691Y-112822053D02*
X104946926Y-112825203D01*
X104967750Y-112830419D01*
X104987962Y-112837651D01*
X105007368Y-112846830D01*
X105025781Y-112857866D01*
X105043024Y-112870654D01*
X105058930Y-112885070D01*
X105073346Y-112900976D01*
X105086134Y-112918219D01*
X105097170Y-112936632D01*
X105106349Y-112956038D01*
X105113581Y-112976250D01*
X105118797Y-112997074D01*
X105121947Y-113018309D01*
X105123000Y-113039750D01*
X105123000Y-113477250D01*
X105121947Y-113498691D01*
X105118797Y-113519926D01*
X105113581Y-113540750D01*
X105106349Y-113560962D01*
X105097170Y-113580368D01*
X105086134Y-113598781D01*
X105073346Y-113616024D01*
X105058930Y-113631930D01*
X105043024Y-113646346D01*
X105025781Y-113659134D01*
X105007368Y-113670170D01*
X104987962Y-113679349D01*
X104967750Y-113686581D01*
X104946926Y-113691797D01*
X104925691Y-113694947D01*
X104904250Y-113696000D01*
X104391750Y-113696000D01*
X104370309Y-113694947D01*
X104349074Y-113691797D01*
X104328250Y-113686581D01*
X104308038Y-113679349D01*
X104288632Y-113670170D01*
X104270219Y-113659134D01*
X104252976Y-113646346D01*
X104237070Y-113631930D01*
X104222654Y-113616024D01*
X104209866Y-113598781D01*
X104198830Y-113580368D01*
X104189651Y-113560962D01*
X104182419Y-113540750D01*
X104177203Y-113519926D01*
X104174053Y-113498691D01*
X104173000Y-113477250D01*
X104173000Y-113039750D01*
X104174053Y-113018309D01*
X104177203Y-112997074D01*
X104182419Y-112976250D01*
X104189651Y-112956038D01*
X104198830Y-112936632D01*
X104209866Y-112918219D01*
X104222654Y-112900976D01*
X104237070Y-112885070D01*
X104252976Y-112870654D01*
X104270219Y-112857866D01*
X104288632Y-112846830D01*
X104308038Y-112837651D01*
X104328250Y-112830419D01*
X104349074Y-112825203D01*
X104370309Y-112822053D01*
X104391750Y-112821000D01*
X104904250Y-112821000D01*
X104925691Y-112822053D01*
X104925691Y-112822053D01*
G37*
D14*
G04 #@! TD*
G04 #@! TO.P,C5,2*
G04 #@! TO.N,GND*
X104648000Y-113258500D03*
D13*
G04 #@! TO.N,GND*
G04 #@! TO.C,C4*
G36*
X111051691Y-104246053D02*
X111072926Y-104249203D01*
X111093750Y-104254419D01*
X111113962Y-104261651D01*
X111133368Y-104270830D01*
X111151781Y-104281866D01*
X111169024Y-104294654D01*
X111184930Y-104309070D01*
X111199346Y-104324976D01*
X111212134Y-104342219D01*
X111223170Y-104360632D01*
X111232349Y-104380038D01*
X111239581Y-104400250D01*
X111244797Y-104421074D01*
X111247947Y-104442309D01*
X111249000Y-104463750D01*
X111249000Y-104976250D01*
X111247947Y-104997691D01*
X111244797Y-105018926D01*
X111239581Y-105039750D01*
X111232349Y-105059962D01*
X111223170Y-105079368D01*
X111212134Y-105097781D01*
X111199346Y-105115024D01*
X111184930Y-105130930D01*
X111169024Y-105145346D01*
X111151781Y-105158134D01*
X111133368Y-105169170D01*
X111113962Y-105178349D01*
X111093750Y-105185581D01*
X111072926Y-105190797D01*
X111051691Y-105193947D01*
X111030250Y-105195000D01*
X110592750Y-105195000D01*
X110571309Y-105193947D01*
X110550074Y-105190797D01*
X110529250Y-105185581D01*
X110509038Y-105178349D01*
X110489632Y-105169170D01*
X110471219Y-105158134D01*
X110453976Y-105145346D01*
X110438070Y-105130930D01*
X110423654Y-105115024D01*
X110410866Y-105097781D01*
X110399830Y-105079368D01*
X110390651Y-105059962D01*
X110383419Y-105039750D01*
X110378203Y-105018926D01*
X110375053Y-104997691D01*
X110374000Y-104976250D01*
X110374000Y-104463750D01*
X110375053Y-104442309D01*
X110378203Y-104421074D01*
X110383419Y-104400250D01*
X110390651Y-104380038D01*
X110399830Y-104360632D01*
X110410866Y-104342219D01*
X110423654Y-104324976D01*
X110438070Y-104309070D01*
X110453976Y-104294654D01*
X110471219Y-104281866D01*
X110489632Y-104270830D01*
X110509038Y-104261651D01*
X110529250Y-104254419D01*
X110550074Y-104249203D01*
X110571309Y-104246053D01*
X110592750Y-104245000D01*
X111030250Y-104245000D01*
X111051691Y-104246053D01*
X111051691Y-104246053D01*
G37*
D14*
G04 #@! TD*
G04 #@! TO.P,C4,2*
G04 #@! TO.N,GND*
X110811500Y-104720000D03*
D13*
G04 #@! TO.N,VDD*
G04 #@! TO.C,C4*
G36*
X109476691Y-104246053D02*
X109497926Y-104249203D01*
X109518750Y-104254419D01*
X109538962Y-104261651D01*
X109558368Y-104270830D01*
X109576781Y-104281866D01*
X109594024Y-104294654D01*
X109609930Y-104309070D01*
X109624346Y-104324976D01*
X109637134Y-104342219D01*
X109648170Y-104360632D01*
X109657349Y-104380038D01*
X109664581Y-104400250D01*
X109669797Y-104421074D01*
X109672947Y-104442309D01*
X109674000Y-104463750D01*
X109674000Y-104976250D01*
X109672947Y-104997691D01*
X109669797Y-105018926D01*
X109664581Y-105039750D01*
X109657349Y-105059962D01*
X109648170Y-105079368D01*
X109637134Y-105097781D01*
X109624346Y-105115024D01*
X109609930Y-105130930D01*
X109594024Y-105145346D01*
X109576781Y-105158134D01*
X109558368Y-105169170D01*
X109538962Y-105178349D01*
X109518750Y-105185581D01*
X109497926Y-105190797D01*
X109476691Y-105193947D01*
X109455250Y-105195000D01*
X109017750Y-105195000D01*
X108996309Y-105193947D01*
X108975074Y-105190797D01*
X108954250Y-105185581D01*
X108934038Y-105178349D01*
X108914632Y-105169170D01*
X108896219Y-105158134D01*
X108878976Y-105145346D01*
X108863070Y-105130930D01*
X108848654Y-105115024D01*
X108835866Y-105097781D01*
X108824830Y-105079368D01*
X108815651Y-105059962D01*
X108808419Y-105039750D01*
X108803203Y-105018926D01*
X108800053Y-104997691D01*
X108799000Y-104976250D01*
X108799000Y-104463750D01*
X108800053Y-104442309D01*
X108803203Y-104421074D01*
X108808419Y-104400250D01*
X108815651Y-104380038D01*
X108824830Y-104360632D01*
X108835866Y-104342219D01*
X108848654Y-104324976D01*
X108863070Y-104309070D01*
X108878976Y-104294654D01*
X108896219Y-104281866D01*
X108914632Y-104270830D01*
X108934038Y-104261651D01*
X108954250Y-104254419D01*
X108975074Y-104249203D01*
X108996309Y-104246053D01*
X109017750Y-104245000D01*
X109455250Y-104245000D01*
X109476691Y-104246053D01*
X109476691Y-104246053D01*
G37*
D14*
G04 #@! TD*
G04 #@! TO.P,C4,1*
G04 #@! TO.N,VDD*
X109236500Y-104720000D03*
D13*
G04 #@! TO.N,VDD*
G04 #@! TO.C,C3*
G36*
X109476691Y-102771053D02*
X109497926Y-102774203D01*
X109518750Y-102779419D01*
X109538962Y-102786651D01*
X109558368Y-102795830D01*
X109576781Y-102806866D01*
X109594024Y-102819654D01*
X109609930Y-102834070D01*
X109624346Y-102849976D01*
X109637134Y-102867219D01*
X109648170Y-102885632D01*
X109657349Y-102905038D01*
X109664581Y-102925250D01*
X109669797Y-102946074D01*
X109672947Y-102967309D01*
X109674000Y-102988750D01*
X109674000Y-103501250D01*
X109672947Y-103522691D01*
X109669797Y-103543926D01*
X109664581Y-103564750D01*
X109657349Y-103584962D01*
X109648170Y-103604368D01*
X109637134Y-103622781D01*
X109624346Y-103640024D01*
X109609930Y-103655930D01*
X109594024Y-103670346D01*
X109576781Y-103683134D01*
X109558368Y-103694170D01*
X109538962Y-103703349D01*
X109518750Y-103710581D01*
X109497926Y-103715797D01*
X109476691Y-103718947D01*
X109455250Y-103720000D01*
X109017750Y-103720000D01*
X108996309Y-103718947D01*
X108975074Y-103715797D01*
X108954250Y-103710581D01*
X108934038Y-103703349D01*
X108914632Y-103694170D01*
X108896219Y-103683134D01*
X108878976Y-103670346D01*
X108863070Y-103655930D01*
X108848654Y-103640024D01*
X108835866Y-103622781D01*
X108824830Y-103604368D01*
X108815651Y-103584962D01*
X108808419Y-103564750D01*
X108803203Y-103543926D01*
X108800053Y-103522691D01*
X108799000Y-103501250D01*
X108799000Y-102988750D01*
X108800053Y-102967309D01*
X108803203Y-102946074D01*
X108808419Y-102925250D01*
X108815651Y-102905038D01*
X108824830Y-102885632D01*
X108835866Y-102867219D01*
X108848654Y-102849976D01*
X108863070Y-102834070D01*
X108878976Y-102819654D01*
X108896219Y-102806866D01*
X108914632Y-102795830D01*
X108934038Y-102786651D01*
X108954250Y-102779419D01*
X108975074Y-102774203D01*
X108996309Y-102771053D01*
X109017750Y-102770000D01*
X109455250Y-102770000D01*
X109476691Y-102771053D01*
X109476691Y-102771053D01*
G37*
D14*
G04 #@! TD*
G04 #@! TO.P,C3,1*
G04 #@! TO.N,VDD*
X109236500Y-103245000D03*
D13*
G04 #@! TO.N,GND*
G04 #@! TO.C,C3*
G36*
X111051691Y-102771053D02*
X111072926Y-102774203D01*
X111093750Y-102779419D01*
X111113962Y-102786651D01*
X111133368Y-102795830D01*
X111151781Y-102806866D01*
X111169024Y-102819654D01*
X111184930Y-102834070D01*
X111199346Y-102849976D01*
X111212134Y-102867219D01*
X111223170Y-102885632D01*
X111232349Y-102905038D01*
X111239581Y-102925250D01*
X111244797Y-102946074D01*
X111247947Y-102967309D01*
X111249000Y-102988750D01*
X111249000Y-103501250D01*
X111247947Y-103522691D01*
X111244797Y-103543926D01*
X111239581Y-103564750D01*
X111232349Y-103584962D01*
X111223170Y-103604368D01*
X111212134Y-103622781D01*
X111199346Y-103640024D01*
X111184930Y-103655930D01*
X111169024Y-103670346D01*
X111151781Y-103683134D01*
X111133368Y-103694170D01*
X111113962Y-103703349D01*
X111093750Y-103710581D01*
X111072926Y-103715797D01*
X111051691Y-103718947D01*
X111030250Y-103720000D01*
X110592750Y-103720000D01*
X110571309Y-103718947D01*
X110550074Y-103715797D01*
X110529250Y-103710581D01*
X110509038Y-103703349D01*
X110489632Y-103694170D01*
X110471219Y-103683134D01*
X110453976Y-103670346D01*
X110438070Y-103655930D01*
X110423654Y-103640024D01*
X110410866Y-103622781D01*
X110399830Y-103604368D01*
X110390651Y-103584962D01*
X110383419Y-103564750D01*
X110378203Y-103543926D01*
X110375053Y-103522691D01*
X110374000Y-103501250D01*
X110374000Y-102988750D01*
X110375053Y-102967309D01*
X110378203Y-102946074D01*
X110383419Y-102925250D01*
X110390651Y-102905038D01*
X110399830Y-102885632D01*
X110410866Y-102867219D01*
X110423654Y-102849976D01*
X110438070Y-102834070D01*
X110453976Y-102819654D01*
X110471219Y-102806866D01*
X110489632Y-102795830D01*
X110509038Y-102786651D01*
X110529250Y-102779419D01*
X110550074Y-102774203D01*
X110571309Y-102771053D01*
X110592750Y-102770000D01*
X111030250Y-102770000D01*
X111051691Y-102771053D01*
X111051691Y-102771053D01*
G37*
D14*
G04 #@! TD*
G04 #@! TO.P,C3,2*
G04 #@! TO.N,GND*
X110811500Y-103245000D03*
D13*
G04 #@! TO.N,GND*
G04 #@! TO.C,C2*
G36*
X106640691Y-123732053D02*
X106661926Y-123735203D01*
X106682750Y-123740419D01*
X106702962Y-123747651D01*
X106722368Y-123756830D01*
X106740781Y-123767866D01*
X106758024Y-123780654D01*
X106773930Y-123795070D01*
X106788346Y-123810976D01*
X106801134Y-123828219D01*
X106812170Y-123846632D01*
X106821349Y-123866038D01*
X106828581Y-123886250D01*
X106833797Y-123907074D01*
X106836947Y-123928309D01*
X106838000Y-123949750D01*
X106838000Y-124462250D01*
X106836947Y-124483691D01*
X106833797Y-124504926D01*
X106828581Y-124525750D01*
X106821349Y-124545962D01*
X106812170Y-124565368D01*
X106801134Y-124583781D01*
X106788346Y-124601024D01*
X106773930Y-124616930D01*
X106758024Y-124631346D01*
X106740781Y-124644134D01*
X106722368Y-124655170D01*
X106702962Y-124664349D01*
X106682750Y-124671581D01*
X106661926Y-124676797D01*
X106640691Y-124679947D01*
X106619250Y-124681000D01*
X106181750Y-124681000D01*
X106160309Y-124679947D01*
X106139074Y-124676797D01*
X106118250Y-124671581D01*
X106098038Y-124664349D01*
X106078632Y-124655170D01*
X106060219Y-124644134D01*
X106042976Y-124631346D01*
X106027070Y-124616930D01*
X106012654Y-124601024D01*
X105999866Y-124583781D01*
X105988830Y-124565368D01*
X105979651Y-124545962D01*
X105972419Y-124525750D01*
X105967203Y-124504926D01*
X105964053Y-124483691D01*
X105963000Y-124462250D01*
X105963000Y-123949750D01*
X105964053Y-123928309D01*
X105967203Y-123907074D01*
X105972419Y-123886250D01*
X105979651Y-123866038D01*
X105988830Y-123846632D01*
X105999866Y-123828219D01*
X106012654Y-123810976D01*
X106027070Y-123795070D01*
X106042976Y-123780654D01*
X106060219Y-123767866D01*
X106078632Y-123756830D01*
X106098038Y-123747651D01*
X106118250Y-123740419D01*
X106139074Y-123735203D01*
X106160309Y-123732053D01*
X106181750Y-123731000D01*
X106619250Y-123731000D01*
X106640691Y-123732053D01*
X106640691Y-123732053D01*
G37*
D14*
G04 #@! TD*
G04 #@! TO.P,C2,2*
G04 #@! TO.N,GND*
X106400500Y-124206000D03*
D13*
G04 #@! TO.N,VDD*
G04 #@! TO.C,C2*
G36*
X108215691Y-123732053D02*
X108236926Y-123735203D01*
X108257750Y-123740419D01*
X108277962Y-123747651D01*
X108297368Y-123756830D01*
X108315781Y-123767866D01*
X108333024Y-123780654D01*
X108348930Y-123795070D01*
X108363346Y-123810976D01*
X108376134Y-123828219D01*
X108387170Y-123846632D01*
X108396349Y-123866038D01*
X108403581Y-123886250D01*
X108408797Y-123907074D01*
X108411947Y-123928309D01*
X108413000Y-123949750D01*
X108413000Y-124462250D01*
X108411947Y-124483691D01*
X108408797Y-124504926D01*
X108403581Y-124525750D01*
X108396349Y-124545962D01*
X108387170Y-124565368D01*
X108376134Y-124583781D01*
X108363346Y-124601024D01*
X108348930Y-124616930D01*
X108333024Y-124631346D01*
X108315781Y-124644134D01*
X108297368Y-124655170D01*
X108277962Y-124664349D01*
X108257750Y-124671581D01*
X108236926Y-124676797D01*
X108215691Y-124679947D01*
X108194250Y-124681000D01*
X107756750Y-124681000D01*
X107735309Y-124679947D01*
X107714074Y-124676797D01*
X107693250Y-124671581D01*
X107673038Y-124664349D01*
X107653632Y-124655170D01*
X107635219Y-124644134D01*
X107617976Y-124631346D01*
X107602070Y-124616930D01*
X107587654Y-124601024D01*
X107574866Y-124583781D01*
X107563830Y-124565368D01*
X107554651Y-124545962D01*
X107547419Y-124525750D01*
X107542203Y-124504926D01*
X107539053Y-124483691D01*
X107538000Y-124462250D01*
X107538000Y-123949750D01*
X107539053Y-123928309D01*
X107542203Y-123907074D01*
X107547419Y-123886250D01*
X107554651Y-123866038D01*
X107563830Y-123846632D01*
X107574866Y-123828219D01*
X107587654Y-123810976D01*
X107602070Y-123795070D01*
X107617976Y-123780654D01*
X107635219Y-123767866D01*
X107653632Y-123756830D01*
X107673038Y-123747651D01*
X107693250Y-123740419D01*
X107714074Y-123735203D01*
X107735309Y-123732053D01*
X107756750Y-123731000D01*
X108194250Y-123731000D01*
X108215691Y-123732053D01*
X108215691Y-123732053D01*
G37*
D14*
G04 #@! TD*
G04 #@! TO.P,C2,1*
G04 #@! TO.N,VDD*
X107975500Y-124206000D03*
D13*
G04 #@! TO.N,VDD*
G04 #@! TO.C,C1*
G36*
X111263691Y-117255053D02*
X111284926Y-117258203D01*
X111305750Y-117263419D01*
X111325962Y-117270651D01*
X111345368Y-117279830D01*
X111363781Y-117290866D01*
X111381024Y-117303654D01*
X111396930Y-117318070D01*
X111411346Y-117333976D01*
X111424134Y-117351219D01*
X111435170Y-117369632D01*
X111444349Y-117389038D01*
X111451581Y-117409250D01*
X111456797Y-117430074D01*
X111459947Y-117451309D01*
X111461000Y-117472750D01*
X111461000Y-117985250D01*
X111459947Y-118006691D01*
X111456797Y-118027926D01*
X111451581Y-118048750D01*
X111444349Y-118068962D01*
X111435170Y-118088368D01*
X111424134Y-118106781D01*
X111411346Y-118124024D01*
X111396930Y-118139930D01*
X111381024Y-118154346D01*
X111363781Y-118167134D01*
X111345368Y-118178170D01*
X111325962Y-118187349D01*
X111305750Y-118194581D01*
X111284926Y-118199797D01*
X111263691Y-118202947D01*
X111242250Y-118204000D01*
X110804750Y-118204000D01*
X110783309Y-118202947D01*
X110762074Y-118199797D01*
X110741250Y-118194581D01*
X110721038Y-118187349D01*
X110701632Y-118178170D01*
X110683219Y-118167134D01*
X110665976Y-118154346D01*
X110650070Y-118139930D01*
X110635654Y-118124024D01*
X110622866Y-118106781D01*
X110611830Y-118088368D01*
X110602651Y-118068962D01*
X110595419Y-118048750D01*
X110590203Y-118027926D01*
X110587053Y-118006691D01*
X110586000Y-117985250D01*
X110586000Y-117472750D01*
X110587053Y-117451309D01*
X110590203Y-117430074D01*
X110595419Y-117409250D01*
X110602651Y-117389038D01*
X110611830Y-117369632D01*
X110622866Y-117351219D01*
X110635654Y-117333976D01*
X110650070Y-117318070D01*
X110665976Y-117303654D01*
X110683219Y-117290866D01*
X110701632Y-117279830D01*
X110721038Y-117270651D01*
X110741250Y-117263419D01*
X110762074Y-117258203D01*
X110783309Y-117255053D01*
X110804750Y-117254000D01*
X111242250Y-117254000D01*
X111263691Y-117255053D01*
X111263691Y-117255053D01*
G37*
D14*
G04 #@! TD*
G04 #@! TO.P,C1,1*
G04 #@! TO.N,VDD*
X111023500Y-117729000D03*
D13*
G04 #@! TO.N,/~RESET~*
G04 #@! TO.C,C1*
G36*
X109688691Y-117255053D02*
X109709926Y-117258203D01*
X109730750Y-117263419D01*
X109750962Y-117270651D01*
X109770368Y-117279830D01*
X109788781Y-117290866D01*
X109806024Y-117303654D01*
X109821930Y-117318070D01*
X109836346Y-117333976D01*
X109849134Y-117351219D01*
X109860170Y-117369632D01*
X109869349Y-117389038D01*
X109876581Y-117409250D01*
X109881797Y-117430074D01*
X109884947Y-117451309D01*
X109886000Y-117472750D01*
X109886000Y-117985250D01*
X109884947Y-118006691D01*
X109881797Y-118027926D01*
X109876581Y-118048750D01*
X109869349Y-118068962D01*
X109860170Y-118088368D01*
X109849134Y-118106781D01*
X109836346Y-118124024D01*
X109821930Y-118139930D01*
X109806024Y-118154346D01*
X109788781Y-118167134D01*
X109770368Y-118178170D01*
X109750962Y-118187349D01*
X109730750Y-118194581D01*
X109709926Y-118199797D01*
X109688691Y-118202947D01*
X109667250Y-118204000D01*
X109229750Y-118204000D01*
X109208309Y-118202947D01*
X109187074Y-118199797D01*
X109166250Y-118194581D01*
X109146038Y-118187349D01*
X109126632Y-118178170D01*
X109108219Y-118167134D01*
X109090976Y-118154346D01*
X109075070Y-118139930D01*
X109060654Y-118124024D01*
X109047866Y-118106781D01*
X109036830Y-118088368D01*
X109027651Y-118068962D01*
X109020419Y-118048750D01*
X109015203Y-118027926D01*
X109012053Y-118006691D01*
X109011000Y-117985250D01*
X109011000Y-117472750D01*
X109012053Y-117451309D01*
X109015203Y-117430074D01*
X109020419Y-117409250D01*
X109027651Y-117389038D01*
X109036830Y-117369632D01*
X109047866Y-117351219D01*
X109060654Y-117333976D01*
X109075070Y-117318070D01*
X109090976Y-117303654D01*
X109108219Y-117290866D01*
X109126632Y-117279830D01*
X109146038Y-117270651D01*
X109166250Y-117263419D01*
X109187074Y-117258203D01*
X109208309Y-117255053D01*
X109229750Y-117254000D01*
X109667250Y-117254000D01*
X109688691Y-117255053D01*
X109688691Y-117255053D01*
G37*
D14*
G04 #@! TD*
G04 #@! TO.P,C1,2*
G04 #@! TO.N,/~RESET~*
X109448500Y-117729000D03*
D11*
G04 #@! TO.P,J3,14*
G04 #@! TO.N,VDD*
X116840000Y-93980000D03*
G04 #@! TO.P,J3,13*
G04 #@! TO.N,/PA27*
X116840000Y-96520000D03*
G04 #@! TO.P,J3,12*
G04 #@! TO.N,/PA25*
X116840000Y-99060000D03*
G04 #@! TO.P,J3,11*
G04 #@! TO.N,/PA24*
X116840000Y-101600000D03*
G04 #@! TO.P,J3,10*
G04 #@! TO.N,/PA23*
X116840000Y-104140000D03*
G04 #@! TO.P,J3,9*
G04 #@! TO.N,/PA22*
X116840000Y-106680000D03*
G04 #@! TO.P,J3,8*
G04 #@! TO.N,/PA19*
X116840000Y-109220000D03*
G04 #@! TO.P,J3,7*
G04 #@! TO.N,/PA18*
X116840000Y-111760000D03*
G04 #@! TO.P,J3,6*
G04 #@! TO.N,/PA17*
X116840000Y-114300000D03*
G04 #@! TO.P,J3,5*
G04 #@! TO.N,/PA16*
X116840000Y-116840000D03*
G04 #@! TO.P,J3,4*
G04 #@! TO.N,/PA15*
X116840000Y-119380000D03*
G04 #@! TO.P,J3,3*
G04 #@! TO.N,/PA14*
X116840000Y-121920000D03*
G04 #@! TO.P,J3,2*
G04 #@! TO.N,GND*
X116840000Y-124460000D03*
D10*
G04 #@! TO.P,J3,1*
X116840000Y-127000000D03*
G04 #@! TD*
G04 #@! TO.P,J2,1*
G04 #@! TO.N,GND*
X101600000Y-127000000D03*
D11*
G04 #@! TO.P,J2,2*
G04 #@! TO.N,/PA11*
X101600000Y-124460000D03*
G04 #@! TO.P,J2,3*
G04 #@! TO.N,/PA10*
X101600000Y-121920000D03*
G04 #@! TO.P,J2,4*
G04 #@! TO.N,/PA09*
X101600000Y-119380000D03*
G04 #@! TO.P,J2,5*
G04 #@! TO.N,/PA08*
X101600000Y-116840000D03*
G04 #@! TO.P,J2,6*
G04 #@! TO.N,/PA07*
X101600000Y-114300000D03*
G04 #@! TO.P,J2,7*
G04 #@! TO.N,/PA06*
X101600000Y-111760000D03*
G04 #@! TO.P,J2,8*
G04 #@! TO.N,/PA05*
X101600000Y-109220000D03*
G04 #@! TO.P,J2,9*
G04 #@! TO.N,/PA04*
X101600000Y-106680000D03*
G04 #@! TO.P,J2,10*
G04 #@! TO.N,/PA03*
X101600000Y-104140000D03*
G04 #@! TO.P,J2,11*
G04 #@! TO.N,/PA02*
X101600000Y-101600000D03*
G04 #@! TO.P,J2,12*
G04 #@! TO.N,/PA01*
X101600000Y-99060000D03*
G04 #@! TO.P,J2,13*
G04 #@! TO.N,/PA00*
X101600000Y-96520000D03*
G04 #@! TO.P,J2,14*
G04 #@! TO.N,VDD*
X101600000Y-93980000D03*
G04 #@! TD*
D15*
G04 #@! TO.P,U1,33*
G04 #@! TO.N,GND*
X109220000Y-110490000D03*
D16*
G04 #@! TO.P,U1,32*
G04 #@! TO.N,/SWDIO*
X107470000Y-107990000D03*
G04 #@! TO.P,U1,31*
G04 #@! TO.N,/SWCLK*
X107970000Y-107990001D03*
G04 #@! TO.P,U1,30*
G04 #@! TO.N,VDD*
X108470000Y-107990000D03*
G04 #@! TO.P,U1,29*
G04 #@! TO.N,Net-(U1-Pad29)*
X108970000Y-107990000D03*
G04 #@! TO.P,U1,28*
G04 #@! TO.N,GND*
X109470000Y-107990000D03*
G04 #@! TO.P,U1,27*
G04 #@! TO.N,VDD*
X109970000Y-107990000D03*
G04 #@! TO.P,U1,26*
G04 #@! TO.N,/~RESET~*
X110470000Y-107990001D03*
G04 #@! TO.P,U1,25*
G04 #@! TO.N,/PA27*
X110970000Y-107990000D03*
D17*
G04 #@! TO.P,U1,24*
G04 #@! TO.N,/PA25*
X111720000Y-108740000D03*
G04 #@! TO.P,U1,23*
G04 #@! TO.N,/PA24*
X111719999Y-109240000D03*
G04 #@! TO.P,U1,22*
G04 #@! TO.N,/PA23*
X111720000Y-109740000D03*
G04 #@! TO.P,U1,21*
G04 #@! TO.N,/PA22*
X111720000Y-110240000D03*
G04 #@! TO.P,U1,20*
G04 #@! TO.N,/PA19*
X111720000Y-110740000D03*
G04 #@! TO.P,U1,19*
G04 #@! TO.N,/PA18*
X111720000Y-111240000D03*
G04 #@! TO.P,U1,18*
G04 #@! TO.N,/PA17*
X111719999Y-111740000D03*
G04 #@! TO.P,U1,17*
G04 #@! TO.N,/PA16*
X111720000Y-112240000D03*
D16*
G04 #@! TO.P,U1,16*
G04 #@! TO.N,/PA15*
X110970000Y-112990000D03*
G04 #@! TO.P,U1,15*
G04 #@! TO.N,/PA14*
X110470000Y-112989999D03*
G04 #@! TO.P,U1,14*
G04 #@! TO.N,/PA11*
X109970000Y-112990000D03*
G04 #@! TO.P,U1,13*
G04 #@! TO.N,/PA10*
X109470000Y-112990000D03*
G04 #@! TO.P,U1,12*
G04 #@! TO.N,/PA09*
X108970000Y-112990000D03*
G04 #@! TO.P,U1,11*
G04 #@! TO.N,/PA08*
X108470000Y-112990000D03*
G04 #@! TO.P,U1,10*
G04 #@! TO.N,GND*
X107970000Y-112989999D03*
G04 #@! TO.P,U1,9*
G04 #@! TO.N,VDD*
X107470000Y-112990000D03*
D17*
G04 #@! TO.P,U1,8*
G04 #@! TO.N,/PA07*
X106720000Y-112240000D03*
G04 #@! TO.P,U1,7*
G04 #@! TO.N,/PA06*
X106720001Y-111740000D03*
G04 #@! TO.P,U1,6*
G04 #@! TO.N,/PA05*
X106720000Y-111240000D03*
G04 #@! TO.P,U1,5*
G04 #@! TO.N,/PA04*
X106720000Y-110740000D03*
G04 #@! TO.P,U1,4*
G04 #@! TO.N,/PA03*
X106720000Y-110240000D03*
G04 #@! TO.P,U1,3*
G04 #@! TO.N,/PA02*
X106720000Y-109740000D03*
G04 #@! TO.P,U1,2*
G04 #@! TO.N,/PA01*
X106720001Y-109240000D03*
G04 #@! TO.P,U1,1*
G04 #@! TO.N,/PA00*
X106720000Y-108740000D03*
G04 #@! TD*
D13*
G04 #@! TO.N,/~RESET~*
G04 #@! TO.C,R2*
G36*
X109688691Y-115731053D02*
X109709926Y-115734203D01*
X109730750Y-115739419D01*
X109750962Y-115746651D01*
X109770368Y-115755830D01*
X109788781Y-115766866D01*
X109806024Y-115779654D01*
X109821930Y-115794070D01*
X109836346Y-115809976D01*
X109849134Y-115827219D01*
X109860170Y-115845632D01*
X109869349Y-115865038D01*
X109876581Y-115885250D01*
X109881797Y-115906074D01*
X109884947Y-115927309D01*
X109886000Y-115948750D01*
X109886000Y-116461250D01*
X109884947Y-116482691D01*
X109881797Y-116503926D01*
X109876581Y-116524750D01*
X109869349Y-116544962D01*
X109860170Y-116564368D01*
X109849134Y-116582781D01*
X109836346Y-116600024D01*
X109821930Y-116615930D01*
X109806024Y-116630346D01*
X109788781Y-116643134D01*
X109770368Y-116654170D01*
X109750962Y-116663349D01*
X109730750Y-116670581D01*
X109709926Y-116675797D01*
X109688691Y-116678947D01*
X109667250Y-116680000D01*
X109229750Y-116680000D01*
X109208309Y-116678947D01*
X109187074Y-116675797D01*
X109166250Y-116670581D01*
X109146038Y-116663349D01*
X109126632Y-116654170D01*
X109108219Y-116643134D01*
X109090976Y-116630346D01*
X109075070Y-116615930D01*
X109060654Y-116600024D01*
X109047866Y-116582781D01*
X109036830Y-116564368D01*
X109027651Y-116544962D01*
X109020419Y-116524750D01*
X109015203Y-116503926D01*
X109012053Y-116482691D01*
X109011000Y-116461250D01*
X109011000Y-115948750D01*
X109012053Y-115927309D01*
X109015203Y-115906074D01*
X109020419Y-115885250D01*
X109027651Y-115865038D01*
X109036830Y-115845632D01*
X109047866Y-115827219D01*
X109060654Y-115809976D01*
X109075070Y-115794070D01*
X109090976Y-115779654D01*
X109108219Y-115766866D01*
X109126632Y-115755830D01*
X109146038Y-115746651D01*
X109166250Y-115739419D01*
X109187074Y-115734203D01*
X109208309Y-115731053D01*
X109229750Y-115730000D01*
X109667250Y-115730000D01*
X109688691Y-115731053D01*
X109688691Y-115731053D01*
G37*
D14*
G04 #@! TD*
G04 #@! TO.P,R2,2*
G04 #@! TO.N,/~RESET~*
X109448500Y-116205000D03*
D13*
G04 #@! TO.N,VDD*
G04 #@! TO.C,R2*
G36*
X111263691Y-115731053D02*
X111284926Y-115734203D01*
X111305750Y-115739419D01*
X111325962Y-115746651D01*
X111345368Y-115755830D01*
X111363781Y-115766866D01*
X111381024Y-115779654D01*
X111396930Y-115794070D01*
X111411346Y-115809976D01*
X111424134Y-115827219D01*
X111435170Y-115845632D01*
X111444349Y-115865038D01*
X111451581Y-115885250D01*
X111456797Y-115906074D01*
X111459947Y-115927309D01*
X111461000Y-115948750D01*
X111461000Y-116461250D01*
X111459947Y-116482691D01*
X111456797Y-116503926D01*
X111451581Y-116524750D01*
X111444349Y-116544962D01*
X111435170Y-116564368D01*
X111424134Y-116582781D01*
X111411346Y-116600024D01*
X111396930Y-116615930D01*
X111381024Y-116630346D01*
X111363781Y-116643134D01*
X111345368Y-116654170D01*
X111325962Y-116663349D01*
X111305750Y-116670581D01*
X111284926Y-116675797D01*
X111263691Y-116678947D01*
X111242250Y-116680000D01*
X110804750Y-116680000D01*
X110783309Y-116678947D01*
X110762074Y-116675797D01*
X110741250Y-116670581D01*
X110721038Y-116663349D01*
X110701632Y-116654170D01*
X110683219Y-116643134D01*
X110665976Y-116630346D01*
X110650070Y-116615930D01*
X110635654Y-116600024D01*
X110622866Y-116582781D01*
X110611830Y-116564368D01*
X110602651Y-116544962D01*
X110595419Y-116524750D01*
X110590203Y-116503926D01*
X110587053Y-116482691D01*
X110586000Y-116461250D01*
X110586000Y-115948750D01*
X110587053Y-115927309D01*
X110590203Y-115906074D01*
X110595419Y-115885250D01*
X110602651Y-115865038D01*
X110611830Y-115845632D01*
X110622866Y-115827219D01*
X110635654Y-115809976D01*
X110650070Y-115794070D01*
X110665976Y-115779654D01*
X110683219Y-115766866D01*
X110701632Y-115755830D01*
X110721038Y-115746651D01*
X110741250Y-115739419D01*
X110762074Y-115734203D01*
X110783309Y-115731053D01*
X110804750Y-115730000D01*
X111242250Y-115730000D01*
X111263691Y-115731053D01*
X111263691Y-115731053D01*
G37*
D14*
G04 #@! TD*
G04 #@! TO.P,R2,1*
G04 #@! TO.N,VDD*
X111023500Y-116205000D03*
D13*
G04 #@! TO.N,/~RESET~*
G04 #@! TO.C,R1*
G36*
X108215691Y-117255053D02*
X108236926Y-117258203D01*
X108257750Y-117263419D01*
X108277962Y-117270651D01*
X108297368Y-117279830D01*
X108315781Y-117290866D01*
X108333024Y-117303654D01*
X108348930Y-117318070D01*
X108363346Y-117333976D01*
X108376134Y-117351219D01*
X108387170Y-117369632D01*
X108396349Y-117389038D01*
X108403581Y-117409250D01*
X108408797Y-117430074D01*
X108411947Y-117451309D01*
X108413000Y-117472750D01*
X108413000Y-117985250D01*
X108411947Y-118006691D01*
X108408797Y-118027926D01*
X108403581Y-118048750D01*
X108396349Y-118068962D01*
X108387170Y-118088368D01*
X108376134Y-118106781D01*
X108363346Y-118124024D01*
X108348930Y-118139930D01*
X108333024Y-118154346D01*
X108315781Y-118167134D01*
X108297368Y-118178170D01*
X108277962Y-118187349D01*
X108257750Y-118194581D01*
X108236926Y-118199797D01*
X108215691Y-118202947D01*
X108194250Y-118204000D01*
X107756750Y-118204000D01*
X107735309Y-118202947D01*
X107714074Y-118199797D01*
X107693250Y-118194581D01*
X107673038Y-118187349D01*
X107653632Y-118178170D01*
X107635219Y-118167134D01*
X107617976Y-118154346D01*
X107602070Y-118139930D01*
X107587654Y-118124024D01*
X107574866Y-118106781D01*
X107563830Y-118088368D01*
X107554651Y-118068962D01*
X107547419Y-118048750D01*
X107542203Y-118027926D01*
X107539053Y-118006691D01*
X107538000Y-117985250D01*
X107538000Y-117472750D01*
X107539053Y-117451309D01*
X107542203Y-117430074D01*
X107547419Y-117409250D01*
X107554651Y-117389038D01*
X107563830Y-117369632D01*
X107574866Y-117351219D01*
X107587654Y-117333976D01*
X107602070Y-117318070D01*
X107617976Y-117303654D01*
X107635219Y-117290866D01*
X107653632Y-117279830D01*
X107673038Y-117270651D01*
X107693250Y-117263419D01*
X107714074Y-117258203D01*
X107735309Y-117255053D01*
X107756750Y-117254000D01*
X108194250Y-117254000D01*
X108215691Y-117255053D01*
X108215691Y-117255053D01*
G37*
D14*
G04 #@! TD*
G04 #@! TO.P,R1,1*
G04 #@! TO.N,/~RESET~*
X107975500Y-117729000D03*
D13*
G04 #@! TO.N,Net-(R1-Pad2)*
G04 #@! TO.C,R1*
G36*
X106640691Y-117255053D02*
X106661926Y-117258203D01*
X106682750Y-117263419D01*
X106702962Y-117270651D01*
X106722368Y-117279830D01*
X106740781Y-117290866D01*
X106758024Y-117303654D01*
X106773930Y-117318070D01*
X106788346Y-117333976D01*
X106801134Y-117351219D01*
X106812170Y-117369632D01*
X106821349Y-117389038D01*
X106828581Y-117409250D01*
X106833797Y-117430074D01*
X106836947Y-117451309D01*
X106838000Y-117472750D01*
X106838000Y-117985250D01*
X106836947Y-118006691D01*
X106833797Y-118027926D01*
X106828581Y-118048750D01*
X106821349Y-118068962D01*
X106812170Y-118088368D01*
X106801134Y-118106781D01*
X106788346Y-118124024D01*
X106773930Y-118139930D01*
X106758024Y-118154346D01*
X106740781Y-118167134D01*
X106722368Y-118178170D01*
X106702962Y-118187349D01*
X106682750Y-118194581D01*
X106661926Y-118199797D01*
X106640691Y-118202947D01*
X106619250Y-118204000D01*
X106181750Y-118204000D01*
X106160309Y-118202947D01*
X106139074Y-118199797D01*
X106118250Y-118194581D01*
X106098038Y-118187349D01*
X106078632Y-118178170D01*
X106060219Y-118167134D01*
X106042976Y-118154346D01*
X106027070Y-118139930D01*
X106012654Y-118124024D01*
X105999866Y-118106781D01*
X105988830Y-118088368D01*
X105979651Y-118068962D01*
X105972419Y-118048750D01*
X105967203Y-118027926D01*
X105964053Y-118006691D01*
X105963000Y-117985250D01*
X105963000Y-117472750D01*
X105964053Y-117451309D01*
X105967203Y-117430074D01*
X105972419Y-117409250D01*
X105979651Y-117389038D01*
X105988830Y-117369632D01*
X105999866Y-117351219D01*
X106012654Y-117333976D01*
X106027070Y-117318070D01*
X106042976Y-117303654D01*
X106060219Y-117290866D01*
X106078632Y-117279830D01*
X106098038Y-117270651D01*
X106118250Y-117263419D01*
X106139074Y-117258203D01*
X106160309Y-117255053D01*
X106181750Y-117254000D01*
X106619250Y-117254000D01*
X106640691Y-117255053D01*
X106640691Y-117255053D01*
G37*
D14*
G04 #@! TD*
G04 #@! TO.P,R1,2*
G04 #@! TO.N,Net-(R1-Pad2)*
X106400500Y-117729000D03*
D18*
G04 #@! TO.N,/~RESET~*
X108585000Y-116840000D03*
X110871000Y-106426000D03*
G04 #@! TO.N,GND*
X108331000Y-111252000D03*
X110109000Y-111252000D03*
X110109000Y-109474000D03*
X108331000Y-109474000D03*
G04 #@! TO.N,VDD*
X109236500Y-101473000D03*
X103632000Y-114808000D03*
X103632000Y-126492000D03*
X110998000Y-96012000D03*
G04 #@! TO.N,GND*
X109220000Y-106426000D03*
X108077000Y-100711000D03*
X111633000Y-100711000D03*
X109347000Y-120650000D03*
X113665000Y-114808000D03*
G04 #@! TD*
D19*
G04 #@! TO.N,/~RESET~*
X107975500Y-117729000D02*
X109448500Y-117729000D01*
X109448500Y-116205000D02*
X109448500Y-117729000D01*
X109448500Y-117729000D02*
X109448500Y-117703500D01*
X109448500Y-117703500D02*
X108585000Y-116840000D01*
X110470000Y-106827000D02*
X110470000Y-107990001D01*
X110871000Y-106426000D02*
X110470000Y-106827000D01*
G04 #@! TO.N,Net-(R1-Pad2)*
X105791000Y-117729000D02*
X106400500Y-117729000D01*
X104630000Y-120650000D02*
X104630000Y-118890000D01*
X104630000Y-118890000D02*
X105791000Y-117729000D01*
G04 #@! TO.N,VDD*
X108470000Y-105478500D02*
X107774000Y-104782500D01*
X108470000Y-107990000D02*
X108470000Y-105478500D01*
X108478000Y-105478500D02*
X109236500Y-104720000D01*
X108470000Y-105478500D02*
X108478000Y-105478500D01*
X109236500Y-103245000D02*
X109236500Y-104720000D01*
X109970000Y-105453500D02*
X109236500Y-104720000D01*
X109970000Y-107990000D02*
X109970000Y-105453500D01*
X107470000Y-112990000D02*
X107470000Y-113129000D01*
X105765500Y-114833500D02*
X104648000Y-114833500D01*
X107470000Y-113129000D02*
X105765500Y-114833500D01*
X113030000Y-93980000D02*
X116840000Y-93980000D01*
X107950000Y-124231500D02*
X107975500Y-124206000D01*
X107950000Y-127000000D02*
X107950000Y-124231500D01*
X111023500Y-121158000D02*
X111023500Y-117729000D01*
X107975500Y-124206000D02*
X111023500Y-121158000D01*
X111023500Y-117729000D02*
X111023500Y-116205000D01*
X109236500Y-103245000D02*
X109236500Y-101473000D01*
X103657500Y-114833500D02*
X103632000Y-114808000D01*
X104648000Y-114833500D02*
X103657500Y-114833500D01*
X104140000Y-127000000D02*
X104031999Y-126891999D01*
X107950000Y-127000000D02*
X104140000Y-127000000D01*
X104031999Y-126891999D02*
X103632000Y-126492000D01*
X111252000Y-95758000D02*
X110998000Y-96012000D01*
X109236500Y-101473000D02*
X109236500Y-97773500D01*
X110598001Y-96411999D02*
X110998000Y-96012000D01*
X113030000Y-93980000D02*
X111252000Y-95758000D01*
X109236500Y-97773500D02*
X110598001Y-96411999D01*
G04 #@! TO.N,/PA00*
X104283000Y-99203000D02*
X101600000Y-96520000D01*
X104283000Y-107077000D02*
X104283000Y-99203000D01*
X106720000Y-108740000D02*
X105946000Y-108740000D01*
X105946000Y-108740000D02*
X104283000Y-107077000D01*
G04 #@! TO.N,/PA01*
X103675021Y-101135021D02*
X102449999Y-99909999D01*
X103675021Y-107231021D02*
X103675021Y-101135021D01*
X102449999Y-99909999D02*
X101600000Y-99060000D01*
X106720001Y-109240000D02*
X105684000Y-109240000D01*
X105684000Y-109240000D02*
X103675021Y-107231021D01*
G04 #@! TO.N,/PA02*
X102449999Y-102449999D02*
X101600000Y-101600000D01*
X103225011Y-103225011D02*
X102449999Y-102449999D01*
X106720000Y-109740000D02*
X105422000Y-109740000D01*
X103225011Y-107543011D02*
X103225011Y-103225011D01*
X105422000Y-109740000D02*
X103225011Y-107543011D01*
G04 #@! TO.N,/PA03*
X102775001Y-107852181D02*
X102775001Y-105315001D01*
X102775001Y-105315001D02*
X102449999Y-104989999D01*
X105162820Y-110240000D02*
X102775001Y-107852181D01*
X106720000Y-110240000D02*
X105162820Y-110240000D01*
X102449999Y-104989999D02*
X101600000Y-104140000D01*
G04 #@! TO.N,/PA04*
X105026410Y-110740000D02*
X101600000Y-107313590D01*
X101600000Y-107313590D02*
X101600000Y-106680000D01*
X106720000Y-110740000D02*
X105026410Y-110740000D01*
G04 #@! TO.N,/PA05*
X102870000Y-109220000D02*
X101600000Y-109220000D01*
X106720000Y-111240000D02*
X104890000Y-111240000D01*
X104890000Y-111240000D02*
X102870000Y-109220000D01*
G04 #@! TO.N,/PA06*
X101620000Y-111740000D02*
X101600000Y-111760000D01*
X106720001Y-111740000D02*
X101620000Y-111740000D01*
G04 #@! TO.N,/PA07*
X106720000Y-112240000D02*
X106720000Y-112430494D01*
X106720000Y-112430494D02*
X105129484Y-114021010D01*
X101854000Y-114046000D02*
X101600000Y-114300000D01*
X105129484Y-114021010D02*
X105053990Y-114021010D01*
X105053990Y-114021010D02*
X105029000Y-114046000D01*
X105029000Y-114046000D02*
X101854000Y-114046000D01*
G04 #@! TO.N,GND*
X109470000Y-110240000D02*
X109220000Y-110490000D01*
X109470000Y-107990000D02*
X109470000Y-110240000D01*
X107970000Y-111740000D02*
X109220000Y-110490000D01*
X107970000Y-112989999D02*
X107970000Y-111740000D01*
G04 #@! TO.N,/PA08*
X108470000Y-113653000D02*
X105283000Y-116840000D01*
X108470000Y-112990000D02*
X108470000Y-113653000D01*
X105283000Y-116840000D02*
X102802081Y-116840000D01*
X102802081Y-116840000D02*
X101600000Y-116840000D01*
G04 #@! TO.N,/PA09*
X103379411Y-119380000D02*
X102802081Y-119380000D01*
X102802081Y-119380000D02*
X101600000Y-119380000D01*
X108970000Y-112990000D02*
X108970000Y-113789411D01*
X108970000Y-113789411D02*
X103379411Y-119380000D01*
G04 #@! TO.N,/PA10*
X102802081Y-121920000D02*
X101600000Y-121920000D01*
X105835002Y-121920000D02*
X102802081Y-121920000D01*
X107188000Y-120567002D02*
X105835002Y-121920000D01*
X107188000Y-116332000D02*
X107188000Y-120567002D01*
X109470000Y-112990000D02*
X109470000Y-114050000D01*
X109470000Y-114050000D02*
X107188000Y-116332000D01*
G04 #@! TO.N,/PA11*
X110211010Y-114149420D02*
X110211010Y-118515990D01*
X110019990Y-113461754D02*
X110019990Y-113958400D01*
X109994990Y-113436754D02*
X110019990Y-113461754D01*
X102802081Y-124460000D02*
X101600000Y-124460000D01*
X109970000Y-112990000D02*
X109994990Y-113014990D01*
X110019990Y-113958400D02*
X110211010Y-114149420D01*
X109994990Y-113014990D02*
X109994990Y-113436754D01*
X110211010Y-118515990D02*
X104267000Y-124460000D01*
X104267000Y-124460000D02*
X102802081Y-124460000D01*
G04 #@! TO.N,/PA14*
X110470000Y-113772000D02*
X110470000Y-112989999D01*
X115443000Y-118745000D02*
X110470000Y-113772000D01*
X116840000Y-121920000D02*
X115443000Y-120523000D01*
X115443000Y-120523000D02*
X115443000Y-118745000D01*
G04 #@! TO.N,/PA15*
X110970000Y-113510000D02*
X116840000Y-119380000D01*
X110970000Y-112990000D02*
X110970000Y-113510000D01*
G04 #@! TO.N,/PA16*
X112240000Y-112240000D02*
X111720000Y-112240000D01*
X116840000Y-116840000D02*
X112240000Y-112240000D01*
G04 #@! TO.N,/PA17*
X115062000Y-114300000D02*
X116840000Y-114300000D01*
X111719999Y-111740000D02*
X112502000Y-111740000D01*
X112502000Y-111740000D02*
X115062000Y-114300000D01*
G04 #@! TO.N,/PA18*
X113158410Y-111760000D02*
X116840000Y-111760000D01*
X112191754Y-111289990D02*
X112688401Y-111289991D01*
X111720000Y-111240000D02*
X111744990Y-111264990D01*
X112688401Y-111289991D02*
X113158410Y-111760000D01*
X112166754Y-111264990D02*
X112191754Y-111289990D01*
X111744990Y-111264990D02*
X112166754Y-111264990D01*
G04 #@! TO.N,/PA19*
X115062000Y-109220000D02*
X116840000Y-109220000D01*
X111720000Y-110740000D02*
X113542000Y-110740000D01*
X113542000Y-110740000D02*
X115062000Y-109220000D01*
G04 #@! TO.N,/PA22*
X113281411Y-110240000D02*
X116840000Y-106681411D01*
X116840000Y-106681411D02*
X116840000Y-106680000D01*
X111720000Y-110240000D02*
X113281411Y-110240000D01*
G04 #@! TO.N,/PA23*
X115327022Y-105652978D02*
X115990001Y-104989999D01*
X115990001Y-104989999D02*
X116840000Y-104140000D01*
X111720000Y-109740000D02*
X113020822Y-109740000D01*
X113020822Y-109740000D02*
X115327022Y-107433800D01*
X115327022Y-107433800D02*
X115327022Y-105652978D01*
G04 #@! TO.N,/PA24*
X114877011Y-107247400D02*
X114877011Y-103562989D01*
X114877011Y-103562989D02*
X115990001Y-102449999D01*
X115990001Y-102449999D02*
X116840000Y-101600000D01*
X111719999Y-109240000D02*
X112884411Y-109240000D01*
X112884411Y-109240000D02*
X114877011Y-107247400D01*
G04 #@! TO.N,/PA25*
X114427000Y-101473000D02*
X116840000Y-99060000D01*
X114427000Y-107061000D02*
X114427000Y-101473000D01*
X112748000Y-108740000D02*
X114427000Y-107061000D01*
X111720000Y-108740000D02*
X112748000Y-108740000D01*
G04 #@! TO.N,/PA27*
X115990001Y-97369999D02*
X116840000Y-96520000D01*
X113919000Y-99441000D02*
X115990001Y-97369999D01*
X113919000Y-106680000D02*
X113919000Y-99441000D01*
X110970000Y-107990000D02*
X112609000Y-107990000D01*
X112609000Y-107990000D02*
X113919000Y-106680000D01*
G04 #@! TO.N,/SWCLK*
X105918000Y-98552000D02*
X109640001Y-94829999D01*
X109640001Y-94829999D02*
X110490000Y-93980000D01*
X107970000Y-107990001D02*
X107970000Y-107568235D01*
X105918000Y-105516235D02*
X105918000Y-98552000D01*
X107970000Y-107568235D02*
X105918000Y-105516235D01*
G04 #@! TO.N,/SWDIO*
X105410000Y-95080000D02*
X105410000Y-93980000D01*
X105410000Y-105664000D02*
X105410000Y-95080000D01*
X107470000Y-107990000D02*
X107470000Y-107724000D01*
X107470000Y-107724000D02*
X105410000Y-105664000D01*
G04 #@! TD*
D20*
G04 #@! TO.N,GND*
G36*
X117235242Y-92695243D02*
X117595540Y-92868256D01*
X117889038Y-93139563D01*
X118089787Y-93485178D01*
X118185442Y-93897863D01*
X118189001Y-93988444D01*
X118189000Y-126967934D01*
X118124757Y-127395242D01*
X118044000Y-127563418D01*
X118044000Y-127115500D01*
X117955500Y-127027000D01*
X116867000Y-127027000D01*
X116867000Y-128115500D01*
X116955500Y-128204000D01*
X117413651Y-128204000D01*
X117334823Y-128249787D01*
X116922138Y-128345442D01*
X116831582Y-128349000D01*
X101632066Y-128349000D01*
X101204758Y-128284757D01*
X101036582Y-128204000D01*
X101484500Y-128204000D01*
X101573000Y-128115500D01*
X101573000Y-127027000D01*
X101627000Y-127027000D01*
X101627000Y-128115500D01*
X101715500Y-128204000D01*
X102520415Y-128204000D01*
X102650525Y-128150107D01*
X102750107Y-128050525D01*
X102804000Y-127920415D01*
X102804000Y-127115500D01*
X102715500Y-127027000D01*
X101627000Y-127027000D01*
X101573000Y-127027000D01*
X100484500Y-127027000D01*
X100396000Y-127115500D01*
X100396000Y-127573651D01*
X100350213Y-127494823D01*
X100254558Y-127082138D01*
X100251000Y-126991582D01*
X100251000Y-126079585D01*
X100396000Y-126079585D01*
X100396000Y-126884500D01*
X100484500Y-126973000D01*
X101573000Y-126973000D01*
X101573000Y-125884500D01*
X101627000Y-125884500D01*
X101627000Y-126973000D01*
X102715500Y-126973000D01*
X102804000Y-126884500D01*
X102804000Y-126079585D01*
X102750107Y-125949475D01*
X102650525Y-125849893D01*
X102520415Y-125796000D01*
X101715500Y-125796000D01*
X101627000Y-125884500D01*
X101573000Y-125884500D01*
X101484500Y-125796000D01*
X100679585Y-125796000D01*
X100549475Y-125849893D01*
X100449893Y-125949475D01*
X100396000Y-126079585D01*
X100251000Y-126079585D01*
X100251000Y-96520000D01*
X100372413Y-96520000D01*
X100465857Y-96989777D01*
X100731965Y-97388035D01*
X101130223Y-97654143D01*
X101481420Y-97724000D01*
X101718580Y-97724000D01*
X102058899Y-97656307D01*
X103804001Y-99401409D01*
X103804001Y-100586593D01*
X102822063Y-99604656D01*
X102822061Y-99604653D01*
X102736307Y-99518899D01*
X102827587Y-99060000D01*
X102734143Y-98590223D01*
X102468035Y-98191965D01*
X102069777Y-97925857D01*
X101718580Y-97856000D01*
X101481420Y-97856000D01*
X101130223Y-97925857D01*
X100731965Y-98191965D01*
X100465857Y-98590223D01*
X100372413Y-99060000D01*
X100465857Y-99529777D01*
X100731965Y-99928035D01*
X101130223Y-100194143D01*
X101481420Y-100264000D01*
X101718580Y-100264000D01*
X102058899Y-100196307D01*
X102144653Y-100282061D01*
X102144656Y-100282063D01*
X103196022Y-101333430D01*
X103196022Y-102518614D01*
X102822063Y-102144656D01*
X102822061Y-102144653D01*
X102736307Y-102058899D01*
X102827587Y-101600000D01*
X102734143Y-101130223D01*
X102468035Y-100731965D01*
X102069777Y-100465857D01*
X101718580Y-100396000D01*
X101481420Y-100396000D01*
X101130223Y-100465857D01*
X100731965Y-100731965D01*
X100465857Y-101130223D01*
X100372413Y-101600000D01*
X100465857Y-102069777D01*
X100731965Y-102468035D01*
X101130223Y-102734143D01*
X101481420Y-102804000D01*
X101718580Y-102804000D01*
X102058899Y-102736307D01*
X102144653Y-102822061D01*
X102144656Y-102822063D01*
X102746012Y-103423421D01*
X102746012Y-103729892D01*
X102734143Y-103670223D01*
X102468035Y-103271965D01*
X102069777Y-103005857D01*
X101718580Y-102936000D01*
X101481420Y-102936000D01*
X101130223Y-103005857D01*
X100731965Y-103271965D01*
X100465857Y-103670223D01*
X100372413Y-104140000D01*
X100465857Y-104609777D01*
X100731965Y-105008035D01*
X101130223Y-105274143D01*
X101481420Y-105344000D01*
X101718580Y-105344000D01*
X102058899Y-105276307D01*
X102144653Y-105362061D01*
X102144656Y-105362063D01*
X102296002Y-105513409D01*
X102296002Y-105697016D01*
X102069777Y-105545857D01*
X101718580Y-105476000D01*
X101481420Y-105476000D01*
X101130223Y-105545857D01*
X100731965Y-105811965D01*
X100465857Y-106210223D01*
X100372413Y-106680000D01*
X100465857Y-107149777D01*
X100731965Y-107548035D01*
X101130223Y-107814143D01*
X101481420Y-107884000D01*
X101493003Y-107884000D01*
X101625003Y-108016000D01*
X101481420Y-108016000D01*
X101130223Y-108085857D01*
X100731965Y-108351965D01*
X100465857Y-108750223D01*
X100372413Y-109220000D01*
X100465857Y-109689777D01*
X100731965Y-110088035D01*
X101130223Y-110354143D01*
X101481420Y-110424000D01*
X101718580Y-110424000D01*
X102069777Y-110354143D01*
X102468035Y-110088035D01*
X102705395Y-109732802D01*
X104233592Y-111261000D01*
X102714617Y-111261000D01*
X102468035Y-110891965D01*
X102069777Y-110625857D01*
X101718580Y-110556000D01*
X101481420Y-110556000D01*
X101130223Y-110625857D01*
X100731965Y-110891965D01*
X100465857Y-111290223D01*
X100372413Y-111760000D01*
X100465857Y-112229777D01*
X100731965Y-112628035D01*
X101130223Y-112894143D01*
X101481420Y-112964000D01*
X101718580Y-112964000D01*
X102069777Y-112894143D01*
X102284626Y-112750585D01*
X103819000Y-112750585D01*
X103819000Y-113143000D01*
X103907500Y-113231500D01*
X104621000Y-113231500D01*
X104621000Y-112555500D01*
X104532500Y-112467000D01*
X104102585Y-112467000D01*
X103972475Y-112520893D01*
X103872893Y-112620475D01*
X103819000Y-112750585D01*
X102284626Y-112750585D01*
X102468035Y-112628035D01*
X102734143Y-112229777D01*
X102736287Y-112219000D01*
X105960304Y-112219000D01*
X105956127Y-112240000D01*
X105995243Y-112436651D01*
X106011742Y-112461344D01*
X105477000Y-112996087D01*
X105477000Y-112750585D01*
X105423107Y-112620475D01*
X105323525Y-112520893D01*
X105193415Y-112467000D01*
X104763500Y-112467000D01*
X104675000Y-112555500D01*
X104675000Y-113231500D01*
X104695000Y-113231500D01*
X104695000Y-113285500D01*
X104675000Y-113285500D01*
X104675000Y-113305500D01*
X104621000Y-113305500D01*
X104621000Y-113285500D01*
X103907500Y-113285500D01*
X103819000Y-113374000D01*
X103819000Y-113567000D01*
X102558263Y-113567000D01*
X102468035Y-113431965D01*
X102069777Y-113165857D01*
X101718580Y-113096000D01*
X101481420Y-113096000D01*
X101130223Y-113165857D01*
X100731965Y-113431965D01*
X100465857Y-113830223D01*
X100372413Y-114300000D01*
X100465857Y-114769777D01*
X100731965Y-115168035D01*
X101130223Y-115434143D01*
X101481420Y-115504000D01*
X101718580Y-115504000D01*
X102069777Y-115434143D01*
X102468035Y-115168035D01*
X102734143Y-114769777D01*
X102782832Y-114525000D01*
X102933098Y-114525000D01*
X102878000Y-114658020D01*
X102878000Y-114957980D01*
X102992789Y-115235107D01*
X103204893Y-115447211D01*
X103482020Y-115562000D01*
X103781980Y-115562000D01*
X103997614Y-115472682D01*
X104169914Y-115587809D01*
X104391750Y-115631935D01*
X104904250Y-115631935D01*
X105126086Y-115587809D01*
X105314149Y-115462149D01*
X105414142Y-115312500D01*
X105718325Y-115312500D01*
X105765500Y-115321884D01*
X105812675Y-115312500D01*
X105812676Y-115312500D01*
X105952396Y-115284708D01*
X106110840Y-115178840D01*
X106137567Y-115138840D01*
X107535579Y-113740829D01*
X107666651Y-113714757D01*
X107729387Y-113672838D01*
X107756604Y-113688988D01*
X105084593Y-116361000D01*
X102727980Y-116361000D01*
X102468035Y-115971965D01*
X102069777Y-115705857D01*
X101718580Y-115636000D01*
X101481420Y-115636000D01*
X101130223Y-115705857D01*
X100731965Y-115971965D01*
X100465857Y-116370223D01*
X100372413Y-116840000D01*
X100465857Y-117309777D01*
X100731965Y-117708035D01*
X101130223Y-117974143D01*
X101481420Y-118044000D01*
X101718580Y-118044000D01*
X102069777Y-117974143D01*
X102468035Y-117708035D01*
X102727980Y-117319000D01*
X104763004Y-117319000D01*
X103181004Y-118901000D01*
X102727980Y-118901000D01*
X102468035Y-118511965D01*
X102069777Y-118245857D01*
X101718580Y-118176000D01*
X101481420Y-118176000D01*
X101130223Y-118245857D01*
X100731965Y-118511965D01*
X100465857Y-118910223D01*
X100372413Y-119380000D01*
X100465857Y-119849777D01*
X100731965Y-120248035D01*
X101130223Y-120514143D01*
X101481420Y-120584000D01*
X101718580Y-120584000D01*
X102069777Y-120514143D01*
X102468035Y-120248035D01*
X102727980Y-119859000D01*
X103179065Y-119859000D01*
X103179065Y-121441000D01*
X102727980Y-121441000D01*
X102468035Y-121051965D01*
X102069777Y-120785857D01*
X101718580Y-120716000D01*
X101481420Y-120716000D01*
X101130223Y-120785857D01*
X100731965Y-121051965D01*
X100465857Y-121450223D01*
X100372413Y-121920000D01*
X100465857Y-122389777D01*
X100731965Y-122788035D01*
X101130223Y-123054143D01*
X101481420Y-123124000D01*
X101718580Y-123124000D01*
X102069777Y-123054143D01*
X102468035Y-122788035D01*
X102727980Y-122399000D01*
X105650593Y-122399000D01*
X104068593Y-123981000D01*
X102727980Y-123981000D01*
X102468035Y-123591965D01*
X102069777Y-123325857D01*
X101718580Y-123256000D01*
X101481420Y-123256000D01*
X101130223Y-123325857D01*
X100731965Y-123591965D01*
X100465857Y-123990223D01*
X100372413Y-124460000D01*
X100465857Y-124929777D01*
X100731965Y-125328035D01*
X101130223Y-125594143D01*
X101481420Y-125664000D01*
X101718580Y-125664000D01*
X102069777Y-125594143D01*
X102468035Y-125328035D01*
X102727980Y-124939000D01*
X104219825Y-124939000D01*
X104267000Y-124948384D01*
X104314175Y-124939000D01*
X104314176Y-124939000D01*
X104453896Y-124911208D01*
X104612340Y-124805340D01*
X104639067Y-124765340D01*
X105082907Y-124321500D01*
X105609000Y-124321500D01*
X105609000Y-124751415D01*
X105662893Y-124881525D01*
X105762475Y-124981107D01*
X105892585Y-125035000D01*
X106285000Y-125035000D01*
X106373500Y-124946500D01*
X106373500Y-124233000D01*
X105697500Y-124233000D01*
X105609000Y-124321500D01*
X105082907Y-124321500D01*
X105609000Y-123795407D01*
X105609000Y-124090500D01*
X105697500Y-124179000D01*
X106373500Y-124179000D01*
X106373500Y-123465500D01*
X106285000Y-123377000D01*
X106027407Y-123377000D01*
X110516353Y-118888055D01*
X110544501Y-118869247D01*
X110544500Y-120959592D01*
X108134028Y-123370065D01*
X107756750Y-123370065D01*
X107534914Y-123414191D01*
X107346851Y-123539851D01*
X107221191Y-123727914D01*
X107192000Y-123874667D01*
X107192000Y-123660585D01*
X107138107Y-123530475D01*
X107038525Y-123430893D01*
X106908415Y-123377000D01*
X106516000Y-123377000D01*
X106427500Y-123465500D01*
X106427500Y-124179000D01*
X106447500Y-124179000D01*
X106447500Y-124233000D01*
X106427500Y-124233000D01*
X106427500Y-124946500D01*
X106516000Y-125035000D01*
X106908415Y-125035000D01*
X107038525Y-124981107D01*
X107138107Y-124881525D01*
X107192000Y-124751415D01*
X107192000Y-124537333D01*
X107221191Y-124684086D01*
X107346851Y-124872149D01*
X107471001Y-124955103D01*
X107471000Y-125872019D01*
X107081965Y-126131965D01*
X106822020Y-126521000D01*
X104386000Y-126521000D01*
X104386000Y-126342020D01*
X104271211Y-126064893D01*
X104059107Y-125852789D01*
X103781980Y-125738000D01*
X103482020Y-125738000D01*
X103204893Y-125852789D01*
X102992789Y-126064893D01*
X102878000Y-126342020D01*
X102878000Y-126641980D01*
X102992789Y-126919107D01*
X103204893Y-127131211D01*
X103482020Y-127246000D01*
X103708592Y-127246000D01*
X103726653Y-127264061D01*
X103726655Y-127264062D01*
X103767934Y-127305342D01*
X103794660Y-127345340D01*
X103953104Y-127451208D01*
X104092824Y-127479000D01*
X104139999Y-127488384D01*
X104187174Y-127479000D01*
X106822020Y-127479000D01*
X107081965Y-127868035D01*
X107480223Y-128134143D01*
X107831420Y-128204000D01*
X108068580Y-128204000D01*
X108419777Y-128134143D01*
X108818035Y-127868035D01*
X109084143Y-127469777D01*
X109154612Y-127115500D01*
X109286000Y-127115500D01*
X109286000Y-127920415D01*
X109339893Y-128050525D01*
X109439475Y-128150107D01*
X109569585Y-128204000D01*
X110374500Y-128204000D01*
X110463000Y-128115500D01*
X110463000Y-127027000D01*
X110517000Y-127027000D01*
X110517000Y-128115500D01*
X110605500Y-128204000D01*
X111410415Y-128204000D01*
X111540525Y-128150107D01*
X111640107Y-128050525D01*
X111694000Y-127920415D01*
X111694000Y-127115500D01*
X115636000Y-127115500D01*
X115636000Y-127920415D01*
X115689893Y-128050525D01*
X115789475Y-128150107D01*
X115919585Y-128204000D01*
X116724500Y-128204000D01*
X116813000Y-128115500D01*
X116813000Y-127027000D01*
X115724500Y-127027000D01*
X115636000Y-127115500D01*
X111694000Y-127115500D01*
X111605500Y-127027000D01*
X110517000Y-127027000D01*
X110463000Y-127027000D01*
X109374500Y-127027000D01*
X109286000Y-127115500D01*
X109154612Y-127115500D01*
X109177587Y-127000000D01*
X109084143Y-126530223D01*
X108818035Y-126131965D01*
X108739643Y-126079585D01*
X109286000Y-126079585D01*
X109286000Y-126884500D01*
X109374500Y-126973000D01*
X110463000Y-126973000D01*
X110463000Y-125884500D01*
X110517000Y-125884500D01*
X110517000Y-126973000D01*
X111605500Y-126973000D01*
X111694000Y-126884500D01*
X111694000Y-126079585D01*
X115636000Y-126079585D01*
X115636000Y-126884500D01*
X115724500Y-126973000D01*
X116813000Y-126973000D01*
X116813000Y-125884500D01*
X116867000Y-125884500D01*
X116867000Y-126973000D01*
X117955500Y-126973000D01*
X118044000Y-126884500D01*
X118044000Y-126079585D01*
X117990107Y-125949475D01*
X117890525Y-125849893D01*
X117760415Y-125796000D01*
X116955500Y-125796000D01*
X116867000Y-125884500D01*
X116813000Y-125884500D01*
X116724500Y-125796000D01*
X115919585Y-125796000D01*
X115789475Y-125849893D01*
X115689893Y-125949475D01*
X115636000Y-126079585D01*
X111694000Y-126079585D01*
X111640107Y-125949475D01*
X111540525Y-125849893D01*
X111410415Y-125796000D01*
X110605500Y-125796000D01*
X110517000Y-125884500D01*
X110463000Y-125884500D01*
X110374500Y-125796000D01*
X109569585Y-125796000D01*
X109439475Y-125849893D01*
X109339893Y-125949475D01*
X109286000Y-126079585D01*
X108739643Y-126079585D01*
X108429000Y-125872020D01*
X108429000Y-124989180D01*
X108604149Y-124872149D01*
X108729809Y-124684086D01*
X108731622Y-124674967D01*
X115655346Y-124674967D01*
X115663255Y-124714745D01*
X115850316Y-125145674D01*
X116188047Y-125472216D01*
X116625032Y-125644657D01*
X116813000Y-125575200D01*
X116813000Y-124487000D01*
X116867000Y-124487000D01*
X116867000Y-125575200D01*
X117054968Y-125644657D01*
X117491953Y-125472216D01*
X117829684Y-125145674D01*
X118016745Y-124714745D01*
X118024654Y-124674967D01*
X117955173Y-124487000D01*
X116867000Y-124487000D01*
X116813000Y-124487000D01*
X115724827Y-124487000D01*
X115655346Y-124674967D01*
X108731622Y-124674967D01*
X108773935Y-124462250D01*
X108773935Y-124245033D01*
X115655346Y-124245033D01*
X115724827Y-124433000D01*
X116813000Y-124433000D01*
X116813000Y-123344800D01*
X116867000Y-123344800D01*
X116867000Y-124433000D01*
X117955173Y-124433000D01*
X118024654Y-124245033D01*
X118016745Y-124205255D01*
X117829684Y-123774326D01*
X117491953Y-123447784D01*
X117054968Y-123275343D01*
X116867000Y-123344800D01*
X116813000Y-123344800D01*
X116625032Y-123275343D01*
X116188047Y-123447784D01*
X115850316Y-123774326D01*
X115663255Y-124205255D01*
X115655346Y-124245033D01*
X108773935Y-124245033D01*
X108773935Y-124084972D01*
X111328844Y-121530064D01*
X111368840Y-121503340D01*
X111474708Y-121344896D01*
X111502500Y-121205176D01*
X111502500Y-121205175D01*
X111511884Y-121158000D01*
X111502500Y-121110825D01*
X111502500Y-120765500D01*
X112366000Y-120765500D01*
X112366000Y-121520415D01*
X112419893Y-121650525D01*
X112519475Y-121750107D01*
X112649585Y-121804000D01*
X113694500Y-121804000D01*
X113783000Y-121715500D01*
X113783000Y-120677000D01*
X112454500Y-120677000D01*
X112366000Y-120765500D01*
X111502500Y-120765500D01*
X111502500Y-119779585D01*
X112366000Y-119779585D01*
X112366000Y-120534500D01*
X112454500Y-120623000D01*
X113783000Y-120623000D01*
X113783000Y-119584500D01*
X113694500Y-119496000D01*
X112649585Y-119496000D01*
X112519475Y-119549893D01*
X112419893Y-119649475D01*
X112366000Y-119779585D01*
X111502500Y-119779585D01*
X111502500Y-118495142D01*
X111652149Y-118395149D01*
X111777809Y-118207086D01*
X111821935Y-117985250D01*
X111821935Y-117472750D01*
X111777809Y-117250914D01*
X111652149Y-117062851D01*
X111508698Y-116967000D01*
X111652149Y-116871149D01*
X111777809Y-116683086D01*
X111821935Y-116461250D01*
X111821935Y-115948750D01*
X111785333Y-115764741D01*
X114964001Y-118943409D01*
X114964001Y-119496000D01*
X113925500Y-119496000D01*
X113837000Y-119584500D01*
X113837000Y-120623000D01*
X113857000Y-120623000D01*
X113857000Y-120677000D01*
X113837000Y-120677000D01*
X113837000Y-121715500D01*
X113925500Y-121804000D01*
X114970415Y-121804000D01*
X115100525Y-121750107D01*
X115200107Y-121650525D01*
X115254000Y-121520415D01*
X115254000Y-121011407D01*
X115703693Y-121461101D01*
X115612413Y-121920000D01*
X115705857Y-122389777D01*
X115971965Y-122788035D01*
X116370223Y-123054143D01*
X116721420Y-123124000D01*
X116958580Y-123124000D01*
X117309777Y-123054143D01*
X117708035Y-122788035D01*
X117974143Y-122389777D01*
X118067587Y-121920000D01*
X117974143Y-121450223D01*
X117708035Y-121051965D01*
X117309777Y-120785857D01*
X116958580Y-120716000D01*
X116721420Y-120716000D01*
X116381101Y-120783693D01*
X115922000Y-120324593D01*
X115922000Y-120173257D01*
X115971965Y-120248035D01*
X116370223Y-120514143D01*
X116721420Y-120584000D01*
X116958580Y-120584000D01*
X117309777Y-120514143D01*
X117708035Y-120248035D01*
X117974143Y-119849777D01*
X118067587Y-119380000D01*
X117974143Y-118910223D01*
X117708035Y-118511965D01*
X117309777Y-118245857D01*
X116958580Y-118176000D01*
X116721420Y-118176000D01*
X116381101Y-118243693D01*
X111466209Y-113328802D01*
X111474000Y-113289635D01*
X111474000Y-112744000D01*
X112019635Y-112744000D01*
X112058802Y-112736209D01*
X115703693Y-116381101D01*
X115612413Y-116840000D01*
X115705857Y-117309777D01*
X115971965Y-117708035D01*
X116370223Y-117974143D01*
X116721420Y-118044000D01*
X116958580Y-118044000D01*
X117309777Y-117974143D01*
X117708035Y-117708035D01*
X117974143Y-117309777D01*
X118067587Y-116840000D01*
X117974143Y-116370223D01*
X117708035Y-115971965D01*
X117309777Y-115705857D01*
X116958580Y-115636000D01*
X116721420Y-115636000D01*
X116381101Y-115703693D01*
X115456408Y-114779000D01*
X115712020Y-114779000D01*
X115971965Y-115168035D01*
X116370223Y-115434143D01*
X116721420Y-115504000D01*
X116958580Y-115504000D01*
X117309777Y-115434143D01*
X117708035Y-115168035D01*
X117974143Y-114769777D01*
X118067587Y-114300000D01*
X117974143Y-113830223D01*
X117708035Y-113431965D01*
X117309777Y-113165857D01*
X116958580Y-113096000D01*
X116721420Y-113096000D01*
X116370223Y-113165857D01*
X115971965Y-113431965D01*
X115712020Y-113821000D01*
X115260408Y-113821000D01*
X113678407Y-112239000D01*
X115712020Y-112239000D01*
X115971965Y-112628035D01*
X116370223Y-112894143D01*
X116721420Y-112964000D01*
X116958580Y-112964000D01*
X117309777Y-112894143D01*
X117708035Y-112628035D01*
X117974143Y-112229777D01*
X118067587Y-111760000D01*
X117974143Y-111290223D01*
X117708035Y-110891965D01*
X117309777Y-110625857D01*
X116958580Y-110556000D01*
X116721420Y-110556000D01*
X116370223Y-110625857D01*
X115971965Y-110891965D01*
X115712020Y-111281000D01*
X113356818Y-111281000D01*
X113294818Y-111219000D01*
X113494825Y-111219000D01*
X113542000Y-111228384D01*
X113589175Y-111219000D01*
X113589176Y-111219000D01*
X113728896Y-111191208D01*
X113887340Y-111085340D01*
X113914067Y-111045340D01*
X115260408Y-109699000D01*
X115712020Y-109699000D01*
X115971965Y-110088035D01*
X116370223Y-110354143D01*
X116721420Y-110424000D01*
X116958580Y-110424000D01*
X117309777Y-110354143D01*
X117708035Y-110088035D01*
X117974143Y-109689777D01*
X118067587Y-109220000D01*
X117974143Y-108750223D01*
X117708035Y-108351965D01*
X117309777Y-108085857D01*
X116958580Y-108016000D01*
X116721420Y-108016000D01*
X116370223Y-108085857D01*
X115971965Y-108351965D01*
X115712020Y-108741000D01*
X115457819Y-108741000D01*
X116382278Y-107816541D01*
X116721420Y-107884000D01*
X116958580Y-107884000D01*
X117309777Y-107814143D01*
X117708035Y-107548035D01*
X117974143Y-107149777D01*
X118067587Y-106680000D01*
X117974143Y-106210223D01*
X117708035Y-105811965D01*
X117309777Y-105545857D01*
X116958580Y-105476000D01*
X116721420Y-105476000D01*
X116370223Y-105545857D01*
X115971965Y-105811965D01*
X115806022Y-106060316D01*
X115806022Y-105851385D01*
X116362063Y-105295345D01*
X116362065Y-105295342D01*
X116381100Y-105276307D01*
X116721420Y-105344000D01*
X116958580Y-105344000D01*
X117309777Y-105274143D01*
X117708035Y-105008035D01*
X117974143Y-104609777D01*
X118067587Y-104140000D01*
X117974143Y-103670223D01*
X117708035Y-103271965D01*
X117309777Y-103005857D01*
X116958580Y-102936000D01*
X116721420Y-102936000D01*
X116370223Y-103005857D01*
X115971965Y-103271965D01*
X115705857Y-103670223D01*
X115612413Y-104140000D01*
X115703693Y-104598900D01*
X115684658Y-104617935D01*
X115684655Y-104617937D01*
X115356011Y-104946581D01*
X115356011Y-103761396D01*
X116362063Y-102755345D01*
X116362065Y-102755342D01*
X116381100Y-102736307D01*
X116721420Y-102804000D01*
X116958580Y-102804000D01*
X117309777Y-102734143D01*
X117708035Y-102468035D01*
X117974143Y-102069777D01*
X118067587Y-101600000D01*
X117974143Y-101130223D01*
X117708035Y-100731965D01*
X117309777Y-100465857D01*
X116958580Y-100396000D01*
X116721420Y-100396000D01*
X116370223Y-100465857D01*
X115971965Y-100731965D01*
X115705857Y-101130223D01*
X115612413Y-101600000D01*
X115703693Y-102058900D01*
X115684658Y-102077935D01*
X115684655Y-102077937D01*
X114906000Y-102856593D01*
X114906000Y-101671407D01*
X116381101Y-100196307D01*
X116721420Y-100264000D01*
X116958580Y-100264000D01*
X117309777Y-100194143D01*
X117708035Y-99928035D01*
X117974143Y-99529777D01*
X118067587Y-99060000D01*
X117974143Y-98590223D01*
X117708035Y-98191965D01*
X117309777Y-97925857D01*
X116958580Y-97856000D01*
X116721420Y-97856000D01*
X116370223Y-97925857D01*
X115971965Y-98191965D01*
X115705857Y-98590223D01*
X115612413Y-99060000D01*
X115703693Y-99518899D01*
X114398000Y-100824593D01*
X114398000Y-99639407D01*
X116362063Y-97675345D01*
X116362065Y-97675342D01*
X116381100Y-97656307D01*
X116721420Y-97724000D01*
X116958580Y-97724000D01*
X117309777Y-97654143D01*
X117708035Y-97388035D01*
X117974143Y-96989777D01*
X118067587Y-96520000D01*
X117974143Y-96050223D01*
X117708035Y-95651965D01*
X117309777Y-95385857D01*
X116958580Y-95316000D01*
X116721420Y-95316000D01*
X116370223Y-95385857D01*
X115971965Y-95651965D01*
X115705857Y-96050223D01*
X115612413Y-96520000D01*
X115703693Y-96978900D01*
X115684658Y-96997935D01*
X115684655Y-96997937D01*
X113613658Y-99068935D01*
X113573661Y-99095660D01*
X113472609Y-99246896D01*
X113467793Y-99254104D01*
X113430616Y-99441000D01*
X113440001Y-99488180D01*
X113440000Y-106481592D01*
X112410593Y-107511000D01*
X111423142Y-107511000D01*
X111333363Y-107376637D01*
X111166650Y-107265243D01*
X110970000Y-107226127D01*
X110949000Y-107230304D01*
X110949000Y-107180000D01*
X111020980Y-107180000D01*
X111298107Y-107065211D01*
X111510211Y-106853107D01*
X111625000Y-106575980D01*
X111625000Y-106276020D01*
X111510211Y-105998893D01*
X111298107Y-105786789D01*
X111020980Y-105672000D01*
X110721020Y-105672000D01*
X110449000Y-105784674D01*
X110449000Y-105549000D01*
X110696000Y-105549000D01*
X110784500Y-105460500D01*
X110784500Y-104747000D01*
X110838500Y-104747000D01*
X110838500Y-105460500D01*
X110927000Y-105549000D01*
X111319415Y-105549000D01*
X111449525Y-105495107D01*
X111549107Y-105395525D01*
X111603000Y-105265415D01*
X111603000Y-104835500D01*
X111514500Y-104747000D01*
X110838500Y-104747000D01*
X110784500Y-104747000D01*
X110764500Y-104747000D01*
X110764500Y-104693000D01*
X110784500Y-104693000D01*
X110784500Y-103272000D01*
X110838500Y-103272000D01*
X110838500Y-104693000D01*
X111514500Y-104693000D01*
X111603000Y-104604500D01*
X111603000Y-104174585D01*
X111549107Y-104044475D01*
X111487132Y-103982500D01*
X111549107Y-103920525D01*
X111603000Y-103790415D01*
X111603000Y-103360500D01*
X111514500Y-103272000D01*
X110838500Y-103272000D01*
X110784500Y-103272000D01*
X110764500Y-103272000D01*
X110764500Y-103218000D01*
X110784500Y-103218000D01*
X110784500Y-102504500D01*
X110838500Y-102504500D01*
X110838500Y-103218000D01*
X111514500Y-103218000D01*
X111603000Y-103129500D01*
X111603000Y-102699585D01*
X111549107Y-102569475D01*
X111449525Y-102469893D01*
X111319415Y-102416000D01*
X110927000Y-102416000D01*
X110838500Y-102504500D01*
X110784500Y-102504500D01*
X110696000Y-102416000D01*
X110303585Y-102416000D01*
X110173475Y-102469893D01*
X110073893Y-102569475D01*
X110020000Y-102699585D01*
X110020000Y-102913667D01*
X109990809Y-102766914D01*
X109865149Y-102578851D01*
X109715500Y-102478858D01*
X109715500Y-102060318D01*
X109875711Y-101900107D01*
X109990500Y-101622980D01*
X109990500Y-101323020D01*
X109875711Y-101045893D01*
X109715500Y-100885682D01*
X109715500Y-97971907D01*
X110921408Y-96766000D01*
X111147980Y-96766000D01*
X111425107Y-96651211D01*
X111637211Y-96439107D01*
X111752000Y-96161980D01*
X111752000Y-95935407D01*
X112571101Y-95116307D01*
X112911420Y-95184000D01*
X113148580Y-95184000D01*
X113499777Y-95114143D01*
X113898035Y-94848035D01*
X114157980Y-94459000D01*
X115712020Y-94459000D01*
X115971965Y-94848035D01*
X116370223Y-95114143D01*
X116721420Y-95184000D01*
X116958580Y-95184000D01*
X117309777Y-95114143D01*
X117708035Y-94848035D01*
X117974143Y-94449777D01*
X118067587Y-93980000D01*
X117974143Y-93510223D01*
X117708035Y-93111965D01*
X117309777Y-92845857D01*
X116958580Y-92776000D01*
X116721420Y-92776000D01*
X116370223Y-92845857D01*
X115971965Y-93111965D01*
X115712020Y-93501000D01*
X114157980Y-93501000D01*
X113898035Y-93111965D01*
X113499777Y-92845857D01*
X113148580Y-92776000D01*
X112911420Y-92776000D01*
X112560223Y-92845857D01*
X112161965Y-93111965D01*
X111895857Y-93510223D01*
X111802413Y-93980000D01*
X111893693Y-94438899D01*
X111074593Y-95258000D01*
X110848020Y-95258000D01*
X110570893Y-95372789D01*
X110358789Y-95584893D01*
X110244000Y-95862020D01*
X110244000Y-96088592D01*
X108931158Y-97401435D01*
X108891161Y-97428160D01*
X108805144Y-97556895D01*
X108785293Y-97586604D01*
X108748116Y-97773500D01*
X108757501Y-97820680D01*
X108757500Y-100885682D01*
X108597289Y-101045893D01*
X108482500Y-101323020D01*
X108482500Y-101622980D01*
X108597289Y-101900107D01*
X108757501Y-102060319D01*
X108757500Y-102478858D01*
X108607851Y-102578851D01*
X108573985Y-102629535D01*
X108549107Y-102569475D01*
X108449525Y-102469893D01*
X108319415Y-102416000D01*
X107889500Y-102416000D01*
X107801000Y-102504500D01*
X107801000Y-103180500D01*
X107821000Y-103180500D01*
X107821000Y-103234500D01*
X107801000Y-103234500D01*
X107801000Y-103254500D01*
X107747000Y-103254500D01*
X107747000Y-103234500D01*
X107033500Y-103234500D01*
X106945000Y-103323000D01*
X106945000Y-103715415D01*
X106998893Y-103845525D01*
X107098475Y-103945107D01*
X107228585Y-103999000D01*
X107442667Y-103999000D01*
X107295914Y-104028191D01*
X107107851Y-104153851D01*
X106982191Y-104341914D01*
X106938065Y-104563750D01*
X106938065Y-105001250D01*
X106982191Y-105223086D01*
X107107851Y-105411149D01*
X107295914Y-105536809D01*
X107517750Y-105580935D01*
X107895027Y-105580935D01*
X107991001Y-105676909D01*
X107991000Y-106911828D01*
X106397000Y-105317828D01*
X106397000Y-102699585D01*
X106945000Y-102699585D01*
X106945000Y-103092000D01*
X107033500Y-103180500D01*
X107747000Y-103180500D01*
X107747000Y-102504500D01*
X107658500Y-102416000D01*
X107228585Y-102416000D01*
X107098475Y-102469893D01*
X106998893Y-102569475D01*
X106945000Y-102699585D01*
X106397000Y-102699585D01*
X106397000Y-98750407D01*
X110012063Y-95135345D01*
X110012065Y-95135342D01*
X110031100Y-95116307D01*
X110371420Y-95184000D01*
X110608580Y-95184000D01*
X110959777Y-95114143D01*
X111358035Y-94848035D01*
X111624143Y-94449777D01*
X111717587Y-93980000D01*
X111624143Y-93510223D01*
X111358035Y-93111965D01*
X110959777Y-92845857D01*
X110608580Y-92776000D01*
X110371420Y-92776000D01*
X110020223Y-92845857D01*
X109621965Y-93111965D01*
X109355857Y-93510223D01*
X109262413Y-93980000D01*
X109353693Y-94438900D01*
X109334658Y-94457935D01*
X109334655Y-94457937D01*
X105889000Y-97903593D01*
X105889000Y-95190935D01*
X106260000Y-95190935D01*
X106398124Y-95163460D01*
X106515220Y-95085220D01*
X106593460Y-94968124D01*
X106620935Y-94830000D01*
X106620935Y-94194968D01*
X106765343Y-94194968D01*
X106937784Y-94631953D01*
X107264326Y-94969684D01*
X107695255Y-95156745D01*
X107735033Y-95164654D01*
X107923000Y-95095173D01*
X107923000Y-94007000D01*
X107977000Y-94007000D01*
X107977000Y-95095173D01*
X108164967Y-95164654D01*
X108204745Y-95156745D01*
X108635674Y-94969684D01*
X108962216Y-94631953D01*
X109134657Y-94194968D01*
X109065200Y-94007000D01*
X107977000Y-94007000D01*
X107923000Y-94007000D01*
X106834800Y-94007000D01*
X106765343Y-94194968D01*
X106620935Y-94194968D01*
X106620935Y-93765032D01*
X106765343Y-93765032D01*
X106834800Y-93953000D01*
X107923000Y-93953000D01*
X107923000Y-92864827D01*
X107977000Y-92864827D01*
X107977000Y-93953000D01*
X109065200Y-93953000D01*
X109134657Y-93765032D01*
X108962216Y-93328047D01*
X108635674Y-92990316D01*
X108204745Y-92803255D01*
X108164967Y-92795346D01*
X107977000Y-92864827D01*
X107923000Y-92864827D01*
X107735033Y-92795346D01*
X107695255Y-92803255D01*
X107264326Y-92990316D01*
X106937784Y-93328047D01*
X106765343Y-93765032D01*
X106620935Y-93765032D01*
X106620935Y-93130000D01*
X106593460Y-92991876D01*
X106515220Y-92874780D01*
X106398124Y-92796540D01*
X106260000Y-92769065D01*
X104560000Y-92769065D01*
X104421876Y-92796540D01*
X104304780Y-92874780D01*
X104226540Y-92991876D01*
X104199065Y-93130000D01*
X104199065Y-94830000D01*
X104226540Y-94968124D01*
X104304780Y-95085220D01*
X104421876Y-95163460D01*
X104560000Y-95190935D01*
X104931001Y-95190935D01*
X104931000Y-105616825D01*
X104921616Y-105664000D01*
X104931000Y-105711175D01*
X104958792Y-105850895D01*
X105064660Y-106009340D01*
X105104660Y-106036067D01*
X106966000Y-107897408D01*
X106966001Y-108236000D01*
X106420365Y-108236000D01*
X106294680Y-108261000D01*
X106144408Y-108261000D01*
X104762000Y-106878593D01*
X104762000Y-99250175D01*
X104771384Y-99203000D01*
X104757988Y-99135655D01*
X104734208Y-99016104D01*
X104628340Y-98857660D01*
X104588343Y-98830935D01*
X102736307Y-96978899D01*
X102827587Y-96520000D01*
X102734143Y-96050223D01*
X102468035Y-95651965D01*
X102069777Y-95385857D01*
X101718580Y-95316000D01*
X101481420Y-95316000D01*
X101130223Y-95385857D01*
X100731965Y-95651965D01*
X100465857Y-96050223D01*
X100372413Y-96520000D01*
X100251000Y-96520000D01*
X100251000Y-94012066D01*
X100255820Y-93980000D01*
X100372413Y-93980000D01*
X100465857Y-94449777D01*
X100731965Y-94848035D01*
X101130223Y-95114143D01*
X101481420Y-95184000D01*
X101718580Y-95184000D01*
X102069777Y-95114143D01*
X102468035Y-94848035D01*
X102734143Y-94449777D01*
X102827587Y-93980000D01*
X102734143Y-93510223D01*
X102468035Y-93111965D01*
X102069777Y-92845857D01*
X101718580Y-92776000D01*
X101481420Y-92776000D01*
X101130223Y-92845857D01*
X100731965Y-93111965D01*
X100465857Y-93510223D01*
X100372413Y-93980000D01*
X100255820Y-93980000D01*
X100315243Y-93584758D01*
X100488256Y-93224460D01*
X100759563Y-92930962D01*
X101105178Y-92730213D01*
X101517863Y-92634558D01*
X101608419Y-92631000D01*
X116807934Y-92631000D01*
X117235242Y-92695243D01*
X117235242Y-92695243D01*
G37*
X117235242Y-92695243D02*
X117595540Y-92868256D01*
X117889038Y-93139563D01*
X118089787Y-93485178D01*
X118185442Y-93897863D01*
X118189001Y-93988444D01*
X118189000Y-126967934D01*
X118124757Y-127395242D01*
X118044000Y-127563418D01*
X118044000Y-127115500D01*
X117955500Y-127027000D01*
X116867000Y-127027000D01*
X116867000Y-128115500D01*
X116955500Y-128204000D01*
X117413651Y-128204000D01*
X117334823Y-128249787D01*
X116922138Y-128345442D01*
X116831582Y-128349000D01*
X101632066Y-128349000D01*
X101204758Y-128284757D01*
X101036582Y-128204000D01*
X101484500Y-128204000D01*
X101573000Y-128115500D01*
X101573000Y-127027000D01*
X101627000Y-127027000D01*
X101627000Y-128115500D01*
X101715500Y-128204000D01*
X102520415Y-128204000D01*
X102650525Y-128150107D01*
X102750107Y-128050525D01*
X102804000Y-127920415D01*
X102804000Y-127115500D01*
X102715500Y-127027000D01*
X101627000Y-127027000D01*
X101573000Y-127027000D01*
X100484500Y-127027000D01*
X100396000Y-127115500D01*
X100396000Y-127573651D01*
X100350213Y-127494823D01*
X100254558Y-127082138D01*
X100251000Y-126991582D01*
X100251000Y-126079585D01*
X100396000Y-126079585D01*
X100396000Y-126884500D01*
X100484500Y-126973000D01*
X101573000Y-126973000D01*
X101573000Y-125884500D01*
X101627000Y-125884500D01*
X101627000Y-126973000D01*
X102715500Y-126973000D01*
X102804000Y-126884500D01*
X102804000Y-126079585D01*
X102750107Y-125949475D01*
X102650525Y-125849893D01*
X102520415Y-125796000D01*
X101715500Y-125796000D01*
X101627000Y-125884500D01*
X101573000Y-125884500D01*
X101484500Y-125796000D01*
X100679585Y-125796000D01*
X100549475Y-125849893D01*
X100449893Y-125949475D01*
X100396000Y-126079585D01*
X100251000Y-126079585D01*
X100251000Y-96520000D01*
X100372413Y-96520000D01*
X100465857Y-96989777D01*
X100731965Y-97388035D01*
X101130223Y-97654143D01*
X101481420Y-97724000D01*
X101718580Y-97724000D01*
X102058899Y-97656307D01*
X103804001Y-99401409D01*
X103804001Y-100586593D01*
X102822063Y-99604656D01*
X102822061Y-99604653D01*
X102736307Y-99518899D01*
X102827587Y-99060000D01*
X102734143Y-98590223D01*
X102468035Y-98191965D01*
X102069777Y-97925857D01*
X101718580Y-97856000D01*
X101481420Y-97856000D01*
X101130223Y-97925857D01*
X100731965Y-98191965D01*
X100465857Y-98590223D01*
X100372413Y-99060000D01*
X100465857Y-99529777D01*
X100731965Y-99928035D01*
X101130223Y-100194143D01*
X101481420Y-100264000D01*
X101718580Y-100264000D01*
X102058899Y-100196307D01*
X102144653Y-100282061D01*
X102144656Y-100282063D01*
X103196022Y-101333430D01*
X103196022Y-102518614D01*
X102822063Y-102144656D01*
X102822061Y-102144653D01*
X102736307Y-102058899D01*
X102827587Y-101600000D01*
X102734143Y-101130223D01*
X102468035Y-100731965D01*
X102069777Y-100465857D01*
X101718580Y-100396000D01*
X101481420Y-100396000D01*
X101130223Y-100465857D01*
X100731965Y-100731965D01*
X100465857Y-101130223D01*
X100372413Y-101600000D01*
X100465857Y-102069777D01*
X100731965Y-102468035D01*
X101130223Y-102734143D01*
X101481420Y-102804000D01*
X101718580Y-102804000D01*
X102058899Y-102736307D01*
X102144653Y-102822061D01*
X102144656Y-102822063D01*
X102746012Y-103423421D01*
X102746012Y-103729892D01*
X102734143Y-103670223D01*
X102468035Y-103271965D01*
X102069777Y-103005857D01*
X101718580Y-102936000D01*
X101481420Y-102936000D01*
X101130223Y-103005857D01*
X100731965Y-103271965D01*
X100465857Y-103670223D01*
X100372413Y-104140000D01*
X100465857Y-104609777D01*
X100731965Y-105008035D01*
X101130223Y-105274143D01*
X101481420Y-105344000D01*
X101718580Y-105344000D01*
X102058899Y-105276307D01*
X102144653Y-105362061D01*
X102144656Y-105362063D01*
X102296002Y-105513409D01*
X102296002Y-105697016D01*
X102069777Y-105545857D01*
X101718580Y-105476000D01*
X101481420Y-105476000D01*
X101130223Y-105545857D01*
X100731965Y-105811965D01*
X100465857Y-106210223D01*
X100372413Y-106680000D01*
X100465857Y-107149777D01*
X100731965Y-107548035D01*
X101130223Y-107814143D01*
X101481420Y-107884000D01*
X101493003Y-107884000D01*
X101625003Y-108016000D01*
X101481420Y-108016000D01*
X101130223Y-108085857D01*
X100731965Y-108351965D01*
X100465857Y-108750223D01*
X100372413Y-109220000D01*
X100465857Y-109689777D01*
X100731965Y-110088035D01*
X101130223Y-110354143D01*
X101481420Y-110424000D01*
X101718580Y-110424000D01*
X102069777Y-110354143D01*
X102468035Y-110088035D01*
X102705395Y-109732802D01*
X104233592Y-111261000D01*
X102714617Y-111261000D01*
X102468035Y-110891965D01*
X102069777Y-110625857D01*
X101718580Y-110556000D01*
X101481420Y-110556000D01*
X101130223Y-110625857D01*
X100731965Y-110891965D01*
X100465857Y-111290223D01*
X100372413Y-111760000D01*
X100465857Y-112229777D01*
X100731965Y-112628035D01*
X101130223Y-112894143D01*
X101481420Y-112964000D01*
X101718580Y-112964000D01*
X102069777Y-112894143D01*
X102284626Y-112750585D01*
X103819000Y-112750585D01*
X103819000Y-113143000D01*
X103907500Y-113231500D01*
X104621000Y-113231500D01*
X104621000Y-112555500D01*
X104532500Y-112467000D01*
X104102585Y-112467000D01*
X103972475Y-112520893D01*
X103872893Y-112620475D01*
X103819000Y-112750585D01*
X102284626Y-112750585D01*
X102468035Y-112628035D01*
X102734143Y-112229777D01*
X102736287Y-112219000D01*
X105960304Y-112219000D01*
X105956127Y-112240000D01*
X105995243Y-112436651D01*
X106011742Y-112461344D01*
X105477000Y-112996087D01*
X105477000Y-112750585D01*
X105423107Y-112620475D01*
X105323525Y-112520893D01*
X105193415Y-112467000D01*
X104763500Y-112467000D01*
X104675000Y-112555500D01*
X104675000Y-113231500D01*
X104695000Y-113231500D01*
X104695000Y-113285500D01*
X104675000Y-113285500D01*
X104675000Y-113305500D01*
X104621000Y-113305500D01*
X104621000Y-113285500D01*
X103907500Y-113285500D01*
X103819000Y-113374000D01*
X103819000Y-113567000D01*
X102558263Y-113567000D01*
X102468035Y-113431965D01*
X102069777Y-113165857D01*
X101718580Y-113096000D01*
X101481420Y-113096000D01*
X101130223Y-113165857D01*
X100731965Y-113431965D01*
X100465857Y-113830223D01*
X100372413Y-114300000D01*
X100465857Y-114769777D01*
X100731965Y-115168035D01*
X101130223Y-115434143D01*
X101481420Y-115504000D01*
X101718580Y-115504000D01*
X102069777Y-115434143D01*
X102468035Y-115168035D01*
X102734143Y-114769777D01*
X102782832Y-114525000D01*
X102933098Y-114525000D01*
X102878000Y-114658020D01*
X102878000Y-114957980D01*
X102992789Y-115235107D01*
X103204893Y-115447211D01*
X103482020Y-115562000D01*
X103781980Y-115562000D01*
X103997614Y-115472682D01*
X104169914Y-115587809D01*
X104391750Y-115631935D01*
X104904250Y-115631935D01*
X105126086Y-115587809D01*
X105314149Y-115462149D01*
X105414142Y-115312500D01*
X105718325Y-115312500D01*
X105765500Y-115321884D01*
X105812675Y-115312500D01*
X105812676Y-115312500D01*
X105952396Y-115284708D01*
X106110840Y-115178840D01*
X106137567Y-115138840D01*
X107535579Y-113740829D01*
X107666651Y-113714757D01*
X107729387Y-113672838D01*
X107756604Y-113688988D01*
X105084593Y-116361000D01*
X102727980Y-116361000D01*
X102468035Y-115971965D01*
X102069777Y-115705857D01*
X101718580Y-115636000D01*
X101481420Y-115636000D01*
X101130223Y-115705857D01*
X100731965Y-115971965D01*
X100465857Y-116370223D01*
X100372413Y-116840000D01*
X100465857Y-117309777D01*
X100731965Y-117708035D01*
X101130223Y-117974143D01*
X101481420Y-118044000D01*
X101718580Y-118044000D01*
X102069777Y-117974143D01*
X102468035Y-117708035D01*
X102727980Y-117319000D01*
X104763004Y-117319000D01*
X103181004Y-118901000D01*
X102727980Y-118901000D01*
X102468035Y-118511965D01*
X102069777Y-118245857D01*
X101718580Y-118176000D01*
X101481420Y-118176000D01*
X101130223Y-118245857D01*
X100731965Y-118511965D01*
X100465857Y-118910223D01*
X100372413Y-119380000D01*
X100465857Y-119849777D01*
X100731965Y-120248035D01*
X101130223Y-120514143D01*
X101481420Y-120584000D01*
X101718580Y-120584000D01*
X102069777Y-120514143D01*
X102468035Y-120248035D01*
X102727980Y-119859000D01*
X103179065Y-119859000D01*
X103179065Y-121441000D01*
X102727980Y-121441000D01*
X102468035Y-121051965D01*
X102069777Y-120785857D01*
X101718580Y-120716000D01*
X101481420Y-120716000D01*
X101130223Y-120785857D01*
X100731965Y-121051965D01*
X100465857Y-121450223D01*
X100372413Y-121920000D01*
X100465857Y-122389777D01*
X100731965Y-122788035D01*
X101130223Y-123054143D01*
X101481420Y-123124000D01*
X101718580Y-123124000D01*
X102069777Y-123054143D01*
X102468035Y-122788035D01*
X102727980Y-122399000D01*
X105650593Y-122399000D01*
X104068593Y-123981000D01*
X102727980Y-123981000D01*
X102468035Y-123591965D01*
X102069777Y-123325857D01*
X101718580Y-123256000D01*
X101481420Y-123256000D01*
X101130223Y-123325857D01*
X100731965Y-123591965D01*
X100465857Y-123990223D01*
X100372413Y-124460000D01*
X100465857Y-124929777D01*
X100731965Y-125328035D01*
X101130223Y-125594143D01*
X101481420Y-125664000D01*
X101718580Y-125664000D01*
X102069777Y-125594143D01*
X102468035Y-125328035D01*
X102727980Y-124939000D01*
X104219825Y-124939000D01*
X104267000Y-124948384D01*
X104314175Y-124939000D01*
X104314176Y-124939000D01*
X104453896Y-124911208D01*
X104612340Y-124805340D01*
X104639067Y-124765340D01*
X105082907Y-124321500D01*
X105609000Y-124321500D01*
X105609000Y-124751415D01*
X105662893Y-124881525D01*
X105762475Y-124981107D01*
X105892585Y-125035000D01*
X106285000Y-125035000D01*
X106373500Y-124946500D01*
X106373500Y-124233000D01*
X105697500Y-124233000D01*
X105609000Y-124321500D01*
X105082907Y-124321500D01*
X105609000Y-123795407D01*
X105609000Y-124090500D01*
X105697500Y-124179000D01*
X106373500Y-124179000D01*
X106373500Y-123465500D01*
X106285000Y-123377000D01*
X106027407Y-123377000D01*
X110516353Y-118888055D01*
X110544501Y-118869247D01*
X110544500Y-120959592D01*
X108134028Y-123370065D01*
X107756750Y-123370065D01*
X107534914Y-123414191D01*
X107346851Y-123539851D01*
X107221191Y-123727914D01*
X107192000Y-123874667D01*
X107192000Y-123660585D01*
X107138107Y-123530475D01*
X107038525Y-123430893D01*
X106908415Y-123377000D01*
X106516000Y-123377000D01*
X106427500Y-123465500D01*
X106427500Y-124179000D01*
X106447500Y-124179000D01*
X106447500Y-124233000D01*
X106427500Y-124233000D01*
X106427500Y-124946500D01*
X106516000Y-125035000D01*
X106908415Y-125035000D01*
X107038525Y-124981107D01*
X107138107Y-124881525D01*
X107192000Y-124751415D01*
X107192000Y-124537333D01*
X107221191Y-124684086D01*
X107346851Y-124872149D01*
X107471001Y-124955103D01*
X107471000Y-125872019D01*
X107081965Y-126131965D01*
X106822020Y-126521000D01*
X104386000Y-126521000D01*
X104386000Y-126342020D01*
X104271211Y-126064893D01*
X104059107Y-125852789D01*
X103781980Y-125738000D01*
X103482020Y-125738000D01*
X103204893Y-125852789D01*
X102992789Y-126064893D01*
X102878000Y-126342020D01*
X102878000Y-126641980D01*
X102992789Y-126919107D01*
X103204893Y-127131211D01*
X103482020Y-127246000D01*
X103708592Y-127246000D01*
X103726653Y-127264061D01*
X103726655Y-127264062D01*
X103767934Y-127305342D01*
X103794660Y-127345340D01*
X103953104Y-127451208D01*
X104092824Y-127479000D01*
X104139999Y-127488384D01*
X104187174Y-127479000D01*
X106822020Y-127479000D01*
X107081965Y-127868035D01*
X107480223Y-128134143D01*
X107831420Y-128204000D01*
X108068580Y-128204000D01*
X108419777Y-128134143D01*
X108818035Y-127868035D01*
X109084143Y-127469777D01*
X109154612Y-127115500D01*
X109286000Y-127115500D01*
X109286000Y-127920415D01*
X109339893Y-128050525D01*
X109439475Y-128150107D01*
X109569585Y-128204000D01*
X110374500Y-128204000D01*
X110463000Y-128115500D01*
X110463000Y-127027000D01*
X110517000Y-127027000D01*
X110517000Y-128115500D01*
X110605500Y-128204000D01*
X111410415Y-128204000D01*
X111540525Y-128150107D01*
X111640107Y-128050525D01*
X111694000Y-127920415D01*
X111694000Y-127115500D01*
X115636000Y-127115500D01*
X115636000Y-127920415D01*
X115689893Y-128050525D01*
X115789475Y-128150107D01*
X115919585Y-128204000D01*
X116724500Y-128204000D01*
X116813000Y-128115500D01*
X116813000Y-127027000D01*
X115724500Y-127027000D01*
X115636000Y-127115500D01*
X111694000Y-127115500D01*
X111605500Y-127027000D01*
X110517000Y-127027000D01*
X110463000Y-127027000D01*
X109374500Y-127027000D01*
X109286000Y-127115500D01*
X109154612Y-127115500D01*
X109177587Y-127000000D01*
X109084143Y-126530223D01*
X108818035Y-126131965D01*
X108739643Y-126079585D01*
X109286000Y-126079585D01*
X109286000Y-126884500D01*
X109374500Y-126973000D01*
X110463000Y-126973000D01*
X110463000Y-125884500D01*
X110517000Y-125884500D01*
X110517000Y-126973000D01*
X111605500Y-126973000D01*
X111694000Y-126884500D01*
X111694000Y-126079585D01*
X115636000Y-126079585D01*
X115636000Y-126884500D01*
X115724500Y-126973000D01*
X116813000Y-126973000D01*
X116813000Y-125884500D01*
X116867000Y-125884500D01*
X116867000Y-126973000D01*
X117955500Y-126973000D01*
X118044000Y-126884500D01*
X118044000Y-126079585D01*
X117990107Y-125949475D01*
X117890525Y-125849893D01*
X117760415Y-125796000D01*
X116955500Y-125796000D01*
X116867000Y-125884500D01*
X116813000Y-125884500D01*
X116724500Y-125796000D01*
X115919585Y-125796000D01*
X115789475Y-125849893D01*
X115689893Y-125949475D01*
X115636000Y-126079585D01*
X111694000Y-126079585D01*
X111640107Y-125949475D01*
X111540525Y-125849893D01*
X111410415Y-125796000D01*
X110605500Y-125796000D01*
X110517000Y-125884500D01*
X110463000Y-125884500D01*
X110374500Y-125796000D01*
X109569585Y-125796000D01*
X109439475Y-125849893D01*
X109339893Y-125949475D01*
X109286000Y-126079585D01*
X108739643Y-126079585D01*
X108429000Y-125872020D01*
X108429000Y-124989180D01*
X108604149Y-124872149D01*
X108729809Y-124684086D01*
X108731622Y-124674967D01*
X115655346Y-124674967D01*
X115663255Y-124714745D01*
X115850316Y-125145674D01*
X116188047Y-125472216D01*
X116625032Y-125644657D01*
X116813000Y-125575200D01*
X116813000Y-124487000D01*
X116867000Y-124487000D01*
X116867000Y-125575200D01*
X117054968Y-125644657D01*
X117491953Y-125472216D01*
X117829684Y-125145674D01*
X118016745Y-124714745D01*
X118024654Y-124674967D01*
X117955173Y-124487000D01*
X116867000Y-124487000D01*
X116813000Y-124487000D01*
X115724827Y-124487000D01*
X115655346Y-124674967D01*
X108731622Y-124674967D01*
X108773935Y-124462250D01*
X108773935Y-124245033D01*
X115655346Y-124245033D01*
X115724827Y-124433000D01*
X116813000Y-124433000D01*
X116813000Y-123344800D01*
X116867000Y-123344800D01*
X116867000Y-124433000D01*
X117955173Y-124433000D01*
X118024654Y-124245033D01*
X118016745Y-124205255D01*
X117829684Y-123774326D01*
X117491953Y-123447784D01*
X117054968Y-123275343D01*
X116867000Y-123344800D01*
X116813000Y-123344800D01*
X116625032Y-123275343D01*
X116188047Y-123447784D01*
X115850316Y-123774326D01*
X115663255Y-124205255D01*
X115655346Y-124245033D01*
X108773935Y-124245033D01*
X108773935Y-124084972D01*
X111328844Y-121530064D01*
X111368840Y-121503340D01*
X111474708Y-121344896D01*
X111502500Y-121205176D01*
X111502500Y-121205175D01*
X111511884Y-121158000D01*
X111502500Y-121110825D01*
X111502500Y-120765500D01*
X112366000Y-120765500D01*
X112366000Y-121520415D01*
X112419893Y-121650525D01*
X112519475Y-121750107D01*
X112649585Y-121804000D01*
X113694500Y-121804000D01*
X113783000Y-121715500D01*
X113783000Y-120677000D01*
X112454500Y-120677000D01*
X112366000Y-120765500D01*
X111502500Y-120765500D01*
X111502500Y-119779585D01*
X112366000Y-119779585D01*
X112366000Y-120534500D01*
X112454500Y-120623000D01*
X113783000Y-120623000D01*
X113783000Y-119584500D01*
X113694500Y-119496000D01*
X112649585Y-119496000D01*
X112519475Y-119549893D01*
X112419893Y-119649475D01*
X112366000Y-119779585D01*
X111502500Y-119779585D01*
X111502500Y-118495142D01*
X111652149Y-118395149D01*
X111777809Y-118207086D01*
X111821935Y-117985250D01*
X111821935Y-117472750D01*
X111777809Y-117250914D01*
X111652149Y-117062851D01*
X111508698Y-116967000D01*
X111652149Y-116871149D01*
X111777809Y-116683086D01*
X111821935Y-116461250D01*
X111821935Y-115948750D01*
X111785333Y-115764741D01*
X114964001Y-118943409D01*
X114964001Y-119496000D01*
X113925500Y-119496000D01*
X113837000Y-119584500D01*
X113837000Y-120623000D01*
X113857000Y-120623000D01*
X113857000Y-120677000D01*
X113837000Y-120677000D01*
X113837000Y-121715500D01*
X113925500Y-121804000D01*
X114970415Y-121804000D01*
X115100525Y-121750107D01*
X115200107Y-121650525D01*
X115254000Y-121520415D01*
X115254000Y-121011407D01*
X115703693Y-121461101D01*
X115612413Y-121920000D01*
X115705857Y-122389777D01*
X115971965Y-122788035D01*
X116370223Y-123054143D01*
X116721420Y-123124000D01*
X116958580Y-123124000D01*
X117309777Y-123054143D01*
X117708035Y-122788035D01*
X117974143Y-122389777D01*
X118067587Y-121920000D01*
X117974143Y-121450223D01*
X117708035Y-121051965D01*
X117309777Y-120785857D01*
X116958580Y-120716000D01*
X116721420Y-120716000D01*
X116381101Y-120783693D01*
X115922000Y-120324593D01*
X115922000Y-120173257D01*
X115971965Y-120248035D01*
X116370223Y-120514143D01*
X116721420Y-120584000D01*
X116958580Y-120584000D01*
X117309777Y-120514143D01*
X117708035Y-120248035D01*
X117974143Y-119849777D01*
X118067587Y-119380000D01*
X117974143Y-118910223D01*
X117708035Y-118511965D01*
X117309777Y-118245857D01*
X116958580Y-118176000D01*
X116721420Y-118176000D01*
X116381101Y-118243693D01*
X111466209Y-113328802D01*
X111474000Y-113289635D01*
X111474000Y-112744000D01*
X112019635Y-112744000D01*
X112058802Y-112736209D01*
X115703693Y-116381101D01*
X115612413Y-116840000D01*
X115705857Y-117309777D01*
X115971965Y-117708035D01*
X116370223Y-117974143D01*
X116721420Y-118044000D01*
X116958580Y-118044000D01*
X117309777Y-117974143D01*
X117708035Y-117708035D01*
X117974143Y-117309777D01*
X118067587Y-116840000D01*
X117974143Y-116370223D01*
X117708035Y-115971965D01*
X117309777Y-115705857D01*
X116958580Y-115636000D01*
X116721420Y-115636000D01*
X116381101Y-115703693D01*
X115456408Y-114779000D01*
X115712020Y-114779000D01*
X115971965Y-115168035D01*
X116370223Y-115434143D01*
X116721420Y-115504000D01*
X116958580Y-115504000D01*
X117309777Y-115434143D01*
X117708035Y-115168035D01*
X117974143Y-114769777D01*
X118067587Y-114300000D01*
X117974143Y-113830223D01*
X117708035Y-113431965D01*
X117309777Y-113165857D01*
X116958580Y-113096000D01*
X116721420Y-113096000D01*
X116370223Y-113165857D01*
X115971965Y-113431965D01*
X115712020Y-113821000D01*
X115260408Y-113821000D01*
X113678407Y-112239000D01*
X115712020Y-112239000D01*
X115971965Y-112628035D01*
X116370223Y-112894143D01*
X116721420Y-112964000D01*
X116958580Y-112964000D01*
X117309777Y-112894143D01*
X117708035Y-112628035D01*
X117974143Y-112229777D01*
X118067587Y-111760000D01*
X117974143Y-111290223D01*
X117708035Y-110891965D01*
X117309777Y-110625857D01*
X116958580Y-110556000D01*
X116721420Y-110556000D01*
X116370223Y-110625857D01*
X115971965Y-110891965D01*
X115712020Y-111281000D01*
X113356818Y-111281000D01*
X113294818Y-111219000D01*
X113494825Y-111219000D01*
X113542000Y-111228384D01*
X113589175Y-111219000D01*
X113589176Y-111219000D01*
X113728896Y-111191208D01*
X113887340Y-111085340D01*
X113914067Y-111045340D01*
X115260408Y-109699000D01*
X115712020Y-109699000D01*
X115971965Y-110088035D01*
X116370223Y-110354143D01*
X116721420Y-110424000D01*
X116958580Y-110424000D01*
X117309777Y-110354143D01*
X117708035Y-110088035D01*
X117974143Y-109689777D01*
X118067587Y-109220000D01*
X117974143Y-108750223D01*
X117708035Y-108351965D01*
X117309777Y-108085857D01*
X116958580Y-108016000D01*
X116721420Y-108016000D01*
X116370223Y-108085857D01*
X115971965Y-108351965D01*
X115712020Y-108741000D01*
X115457819Y-108741000D01*
X116382278Y-107816541D01*
X116721420Y-107884000D01*
X116958580Y-107884000D01*
X117309777Y-107814143D01*
X117708035Y-107548035D01*
X117974143Y-107149777D01*
X118067587Y-106680000D01*
X117974143Y-106210223D01*
X117708035Y-105811965D01*
X117309777Y-105545857D01*
X116958580Y-105476000D01*
X116721420Y-105476000D01*
X116370223Y-105545857D01*
X115971965Y-105811965D01*
X115806022Y-106060316D01*
X115806022Y-105851385D01*
X116362063Y-105295345D01*
X116362065Y-105295342D01*
X116381100Y-105276307D01*
X116721420Y-105344000D01*
X116958580Y-105344000D01*
X117309777Y-105274143D01*
X117708035Y-105008035D01*
X117974143Y-104609777D01*
X118067587Y-104140000D01*
X117974143Y-103670223D01*
X117708035Y-103271965D01*
X117309777Y-103005857D01*
X116958580Y-102936000D01*
X116721420Y-102936000D01*
X116370223Y-103005857D01*
X115971965Y-103271965D01*
X115705857Y-103670223D01*
X115612413Y-104140000D01*
X115703693Y-104598900D01*
X115684658Y-104617935D01*
X115684655Y-104617937D01*
X115356011Y-104946581D01*
X115356011Y-103761396D01*
X116362063Y-102755345D01*
X116362065Y-102755342D01*
X116381100Y-102736307D01*
X116721420Y-102804000D01*
X116958580Y-102804000D01*
X117309777Y-102734143D01*
X117708035Y-102468035D01*
X117974143Y-102069777D01*
X118067587Y-101600000D01*
X117974143Y-101130223D01*
X117708035Y-100731965D01*
X117309777Y-100465857D01*
X116958580Y-100396000D01*
X116721420Y-100396000D01*
X116370223Y-100465857D01*
X115971965Y-100731965D01*
X115705857Y-101130223D01*
X115612413Y-101600000D01*
X115703693Y-102058900D01*
X115684658Y-102077935D01*
X115684655Y-102077937D01*
X114906000Y-102856593D01*
X114906000Y-101671407D01*
X116381101Y-100196307D01*
X116721420Y-100264000D01*
X116958580Y-100264000D01*
X117309777Y-100194143D01*
X117708035Y-99928035D01*
X117974143Y-99529777D01*
X118067587Y-99060000D01*
X117974143Y-98590223D01*
X117708035Y-98191965D01*
X117309777Y-97925857D01*
X116958580Y-97856000D01*
X116721420Y-97856000D01*
X116370223Y-97925857D01*
X115971965Y-98191965D01*
X115705857Y-98590223D01*
X115612413Y-99060000D01*
X115703693Y-99518899D01*
X114398000Y-100824593D01*
X114398000Y-99639407D01*
X116362063Y-97675345D01*
X116362065Y-97675342D01*
X116381100Y-97656307D01*
X116721420Y-97724000D01*
X116958580Y-97724000D01*
X117309777Y-97654143D01*
X117708035Y-97388035D01*
X117974143Y-96989777D01*
X118067587Y-96520000D01*
X117974143Y-96050223D01*
X117708035Y-95651965D01*
X117309777Y-95385857D01*
X116958580Y-95316000D01*
X116721420Y-95316000D01*
X116370223Y-95385857D01*
X115971965Y-95651965D01*
X115705857Y-96050223D01*
X115612413Y-96520000D01*
X115703693Y-96978900D01*
X115684658Y-96997935D01*
X115684655Y-96997937D01*
X113613658Y-99068935D01*
X113573661Y-99095660D01*
X113472609Y-99246896D01*
X113467793Y-99254104D01*
X113430616Y-99441000D01*
X113440001Y-99488180D01*
X113440000Y-106481592D01*
X112410593Y-107511000D01*
X111423142Y-107511000D01*
X111333363Y-107376637D01*
X111166650Y-107265243D01*
X110970000Y-107226127D01*
X110949000Y-107230304D01*
X110949000Y-107180000D01*
X111020980Y-107180000D01*
X111298107Y-107065211D01*
X111510211Y-106853107D01*
X111625000Y-106575980D01*
X111625000Y-106276020D01*
X111510211Y-105998893D01*
X111298107Y-105786789D01*
X111020980Y-105672000D01*
X110721020Y-105672000D01*
X110449000Y-105784674D01*
X110449000Y-105549000D01*
X110696000Y-105549000D01*
X110784500Y-105460500D01*
X110784500Y-104747000D01*
X110838500Y-104747000D01*
X110838500Y-105460500D01*
X110927000Y-105549000D01*
X111319415Y-105549000D01*
X111449525Y-105495107D01*
X111549107Y-105395525D01*
X111603000Y-105265415D01*
X111603000Y-104835500D01*
X111514500Y-104747000D01*
X110838500Y-104747000D01*
X110784500Y-104747000D01*
X110764500Y-104747000D01*
X110764500Y-104693000D01*
X110784500Y-104693000D01*
X110784500Y-103272000D01*
X110838500Y-103272000D01*
X110838500Y-104693000D01*
X111514500Y-104693000D01*
X111603000Y-104604500D01*
X111603000Y-104174585D01*
X111549107Y-104044475D01*
X111487132Y-103982500D01*
X111549107Y-103920525D01*
X111603000Y-103790415D01*
X111603000Y-103360500D01*
X111514500Y-103272000D01*
X110838500Y-103272000D01*
X110784500Y-103272000D01*
X110764500Y-103272000D01*
X110764500Y-103218000D01*
X110784500Y-103218000D01*
X110784500Y-102504500D01*
X110838500Y-102504500D01*
X110838500Y-103218000D01*
X111514500Y-103218000D01*
X111603000Y-103129500D01*
X111603000Y-102699585D01*
X111549107Y-102569475D01*
X111449525Y-102469893D01*
X111319415Y-102416000D01*
X110927000Y-102416000D01*
X110838500Y-102504500D01*
X110784500Y-102504500D01*
X110696000Y-102416000D01*
X110303585Y-102416000D01*
X110173475Y-102469893D01*
X110073893Y-102569475D01*
X110020000Y-102699585D01*
X110020000Y-102913667D01*
X109990809Y-102766914D01*
X109865149Y-102578851D01*
X109715500Y-102478858D01*
X109715500Y-102060318D01*
X109875711Y-101900107D01*
X109990500Y-101622980D01*
X109990500Y-101323020D01*
X109875711Y-101045893D01*
X109715500Y-100885682D01*
X109715500Y-97971907D01*
X110921408Y-96766000D01*
X111147980Y-96766000D01*
X111425107Y-96651211D01*
X111637211Y-96439107D01*
X111752000Y-96161980D01*
X111752000Y-95935407D01*
X112571101Y-95116307D01*
X112911420Y-95184000D01*
X113148580Y-95184000D01*
X113499777Y-95114143D01*
X113898035Y-94848035D01*
X114157980Y-94459000D01*
X115712020Y-94459000D01*
X115971965Y-94848035D01*
X116370223Y-95114143D01*
X116721420Y-95184000D01*
X116958580Y-95184000D01*
X117309777Y-95114143D01*
X117708035Y-94848035D01*
X117974143Y-94449777D01*
X118067587Y-93980000D01*
X117974143Y-93510223D01*
X117708035Y-93111965D01*
X117309777Y-92845857D01*
X116958580Y-92776000D01*
X116721420Y-92776000D01*
X116370223Y-92845857D01*
X115971965Y-93111965D01*
X115712020Y-93501000D01*
X114157980Y-93501000D01*
X113898035Y-93111965D01*
X113499777Y-92845857D01*
X113148580Y-92776000D01*
X112911420Y-92776000D01*
X112560223Y-92845857D01*
X112161965Y-93111965D01*
X111895857Y-93510223D01*
X111802413Y-93980000D01*
X111893693Y-94438899D01*
X111074593Y-95258000D01*
X110848020Y-95258000D01*
X110570893Y-95372789D01*
X110358789Y-95584893D01*
X110244000Y-95862020D01*
X110244000Y-96088592D01*
X108931158Y-97401435D01*
X108891161Y-97428160D01*
X108805144Y-97556895D01*
X108785293Y-97586604D01*
X108748116Y-97773500D01*
X108757501Y-97820680D01*
X108757500Y-100885682D01*
X108597289Y-101045893D01*
X108482500Y-101323020D01*
X108482500Y-101622980D01*
X108597289Y-101900107D01*
X108757501Y-102060319D01*
X108757500Y-102478858D01*
X108607851Y-102578851D01*
X108573985Y-102629535D01*
X108549107Y-102569475D01*
X108449525Y-102469893D01*
X108319415Y-102416000D01*
X107889500Y-102416000D01*
X107801000Y-102504500D01*
X107801000Y-103180500D01*
X107821000Y-103180500D01*
X107821000Y-103234500D01*
X107801000Y-103234500D01*
X107801000Y-103254500D01*
X107747000Y-103254500D01*
X107747000Y-103234500D01*
X107033500Y-103234500D01*
X106945000Y-103323000D01*
X106945000Y-103715415D01*
X106998893Y-103845525D01*
X107098475Y-103945107D01*
X107228585Y-103999000D01*
X107442667Y-103999000D01*
X107295914Y-104028191D01*
X107107851Y-104153851D01*
X106982191Y-104341914D01*
X106938065Y-104563750D01*
X106938065Y-105001250D01*
X106982191Y-105223086D01*
X107107851Y-105411149D01*
X107295914Y-105536809D01*
X107517750Y-105580935D01*
X107895027Y-105580935D01*
X107991001Y-105676909D01*
X107991000Y-106911828D01*
X106397000Y-105317828D01*
X106397000Y-102699585D01*
X106945000Y-102699585D01*
X106945000Y-103092000D01*
X107033500Y-103180500D01*
X107747000Y-103180500D01*
X107747000Y-102504500D01*
X107658500Y-102416000D01*
X107228585Y-102416000D01*
X107098475Y-102469893D01*
X106998893Y-102569475D01*
X106945000Y-102699585D01*
X106397000Y-102699585D01*
X106397000Y-98750407D01*
X110012063Y-95135345D01*
X110012065Y-95135342D01*
X110031100Y-95116307D01*
X110371420Y-95184000D01*
X110608580Y-95184000D01*
X110959777Y-95114143D01*
X111358035Y-94848035D01*
X111624143Y-94449777D01*
X111717587Y-93980000D01*
X111624143Y-93510223D01*
X111358035Y-93111965D01*
X110959777Y-92845857D01*
X110608580Y-92776000D01*
X110371420Y-92776000D01*
X110020223Y-92845857D01*
X109621965Y-93111965D01*
X109355857Y-93510223D01*
X109262413Y-93980000D01*
X109353693Y-94438900D01*
X109334658Y-94457935D01*
X109334655Y-94457937D01*
X105889000Y-97903593D01*
X105889000Y-95190935D01*
X106260000Y-95190935D01*
X106398124Y-95163460D01*
X106515220Y-95085220D01*
X106593460Y-94968124D01*
X106620935Y-94830000D01*
X106620935Y-94194968D01*
X106765343Y-94194968D01*
X106937784Y-94631953D01*
X107264326Y-94969684D01*
X107695255Y-95156745D01*
X107735033Y-95164654D01*
X107923000Y-95095173D01*
X107923000Y-94007000D01*
X107977000Y-94007000D01*
X107977000Y-95095173D01*
X108164967Y-95164654D01*
X108204745Y-95156745D01*
X108635674Y-94969684D01*
X108962216Y-94631953D01*
X109134657Y-94194968D01*
X109065200Y-94007000D01*
X107977000Y-94007000D01*
X107923000Y-94007000D01*
X106834800Y-94007000D01*
X106765343Y-94194968D01*
X106620935Y-94194968D01*
X106620935Y-93765032D01*
X106765343Y-93765032D01*
X106834800Y-93953000D01*
X107923000Y-93953000D01*
X107923000Y-92864827D01*
X107977000Y-92864827D01*
X107977000Y-93953000D01*
X109065200Y-93953000D01*
X109134657Y-93765032D01*
X108962216Y-93328047D01*
X108635674Y-92990316D01*
X108204745Y-92803255D01*
X108164967Y-92795346D01*
X107977000Y-92864827D01*
X107923000Y-92864827D01*
X107735033Y-92795346D01*
X107695255Y-92803255D01*
X107264326Y-92990316D01*
X106937784Y-93328047D01*
X106765343Y-93765032D01*
X106620935Y-93765032D01*
X106620935Y-93130000D01*
X106593460Y-92991876D01*
X106515220Y-92874780D01*
X106398124Y-92796540D01*
X106260000Y-92769065D01*
X104560000Y-92769065D01*
X104421876Y-92796540D01*
X104304780Y-92874780D01*
X104226540Y-92991876D01*
X104199065Y-93130000D01*
X104199065Y-94830000D01*
X104226540Y-94968124D01*
X104304780Y-95085220D01*
X104421876Y-95163460D01*
X104560000Y-95190935D01*
X104931001Y-95190935D01*
X104931000Y-105616825D01*
X104921616Y-105664000D01*
X104931000Y-105711175D01*
X104958792Y-105850895D01*
X105064660Y-106009340D01*
X105104660Y-106036067D01*
X106966000Y-107897408D01*
X106966001Y-108236000D01*
X106420365Y-108236000D01*
X106294680Y-108261000D01*
X106144408Y-108261000D01*
X104762000Y-106878593D01*
X104762000Y-99250175D01*
X104771384Y-99203000D01*
X104757988Y-99135655D01*
X104734208Y-99016104D01*
X104628340Y-98857660D01*
X104588343Y-98830935D01*
X102736307Y-96978899D01*
X102827587Y-96520000D01*
X102734143Y-96050223D01*
X102468035Y-95651965D01*
X102069777Y-95385857D01*
X101718580Y-95316000D01*
X101481420Y-95316000D01*
X101130223Y-95385857D01*
X100731965Y-95651965D01*
X100465857Y-96050223D01*
X100372413Y-96520000D01*
X100251000Y-96520000D01*
X100251000Y-94012066D01*
X100255820Y-93980000D01*
X100372413Y-93980000D01*
X100465857Y-94449777D01*
X100731965Y-94848035D01*
X101130223Y-95114143D01*
X101481420Y-95184000D01*
X101718580Y-95184000D01*
X102069777Y-95114143D01*
X102468035Y-94848035D01*
X102734143Y-94449777D01*
X102827587Y-93980000D01*
X102734143Y-93510223D01*
X102468035Y-93111965D01*
X102069777Y-92845857D01*
X101718580Y-92776000D01*
X101481420Y-92776000D01*
X101130223Y-92845857D01*
X100731965Y-93111965D01*
X100465857Y-93510223D01*
X100372413Y-93980000D01*
X100255820Y-93980000D01*
X100315243Y-93584758D01*
X100488256Y-93224460D01*
X100759563Y-92930962D01*
X101105178Y-92730213D01*
X101517863Y-92634558D01*
X101608419Y-92631000D01*
X116807934Y-92631000D01*
X117235242Y-92695243D01*
G36*
X109247000Y-110463000D02*
X109267000Y-110463000D01*
X109267000Y-110517000D01*
X109247000Y-110517000D01*
X109247000Y-110537000D01*
X109193000Y-110537000D01*
X109193000Y-110517000D01*
X109173000Y-110517000D01*
X109173000Y-110463000D01*
X109193000Y-110463000D01*
X109193000Y-110443000D01*
X109247000Y-110443000D01*
X109247000Y-110463000D01*
X109247000Y-110463000D01*
G37*
X109247000Y-110463000D02*
X109267000Y-110463000D01*
X109267000Y-110517000D01*
X109247000Y-110517000D01*
X109247000Y-110537000D01*
X109193000Y-110537000D01*
X109193000Y-110517000D01*
X109173000Y-110517000D01*
X109173000Y-110463000D01*
X109193000Y-110463000D01*
X109193000Y-110443000D01*
X109247000Y-110443000D01*
X109247000Y-110463000D01*
G36*
X109491001Y-105651909D02*
X109491000Y-107564680D01*
X109470000Y-107670256D01*
X109444757Y-107543349D01*
X109443000Y-107540719D01*
X109443000Y-107325378D01*
X109364603Y-107247144D01*
X109302072Y-107264032D01*
X109229386Y-107307162D01*
X109166650Y-107265243D01*
X108970000Y-107226127D01*
X108949000Y-107230304D01*
X108949000Y-105684907D01*
X109077972Y-105555935D01*
X109395027Y-105555935D01*
X109491001Y-105651909D01*
X109491001Y-105651909D01*
G37*
X109491001Y-105651909D02*
X109491000Y-107564680D01*
X109470000Y-107670256D01*
X109444757Y-107543349D01*
X109443000Y-107540719D01*
X109443000Y-107325378D01*
X109364603Y-107247144D01*
X109302072Y-107264032D01*
X109229386Y-107307162D01*
X109166650Y-107265243D01*
X108970000Y-107226127D01*
X108949000Y-107230304D01*
X108949000Y-105684907D01*
X109077972Y-105555935D01*
X109395027Y-105555935D01*
X109491001Y-105651909D01*
G04 #@! TD*
M02*
